<?xml version="1.0" encoding="UTF-8"?>
<svg width="600" height="50" version="1.0" viewBox="0 0 450 37.5" xmlns="http://www.w3.org/2000/svg" zoomAndPan="magnify">
<defs/>
<g fill="#bf6a66">
<g transform="translate(84.211 25.374)">
<path d="m1.8906-15.891h7.2188c1.7188 0 3.2383 0.32812 4.5625 0.98438 1.332 0.65625 2.3633 1.5859 3.0938 2.7812 0.73828 1.1992 1.1094 2.5898 1.1094 4.1719 0 1.5938-0.37109 2.9922-1.1094 4.1875-0.73047 1.1992-1.7617 2.125-3.0938 2.7812-1.3242 0.65625-2.8438 0.98438-4.5625 0.98438h-7.2188zm7.0312 12.875c1.5938 0 2.8594-0.44141 3.7969-1.3281 0.94531-0.88281 1.4219-2.0859 1.4219-3.6094 0-1.5078-0.47656-2.707-1.4219-3.5938-0.9375-0.88281-2.2031-1.3281-3.7969-1.3281h-3.3594v9.8594z"/>
</g>
</g>
<g fill="#bf6a66">
<g transform="translate(102.96 25.374)">
<path d="m5.0156-10.609c0.42578-0.58203 1-1.0234 1.7188-1.3281 0.71875-0.30078 1.5469-0.45312 2.4844-0.45312v3.2656c-0.39844-0.03125-0.66406-0.046875-0.79688-0.046875-1.0117 0-1.8086 0.28906-2.3906 0.85938-0.57422 0.5625-0.85938 1.4141-0.85938 2.5469v5.7656h-3.5312v-12.219h3.375z"/>
</g>
</g>
<g fill="#bf6a66">
<g transform="translate(112.74 25.374)">
<path d="m13.594-6.0625c0 0.042969-0.023438 0.35938-0.0625 0.95312h-9.2344c0.16406 0.76172 0.55469 1.3594 1.1719 1.7969 0.625 0.4375 1.3945 0.65625 2.3125 0.65625 0.63281 0 1.1953-0.09375 1.6875-0.28125 0.5-0.1875 0.96094-0.48828 1.3906-0.90625l1.875 2.0469c-1.1484 1.3242-2.8242 1.9844-5.0312 1.9844-1.3867 0-2.6094-0.26953-3.6719-0.8125-1.0547-0.53906-1.8711-1.2852-2.4531-2.2344-0.57422-0.95703-0.85938-2.0391-0.85938-3.25 0-1.1953 0.28125-2.2734 0.84375-3.2344 0.57031-0.95703 1.3516-1.7031 2.3438-2.2344 1-0.53906 2.1133-0.8125 3.3438-0.8125 1.1875 0 2.2656 0.25781 3.2344 0.76562 0.96875 0.51172 1.7266 1.25 2.2812 2.2188 0.55078 0.96094 0.82812 2.0742 0.82812 3.3438zm-6.3281-3.6562c-0.80469 0-1.4805 0.23047-2.0312 0.6875-0.54297 0.44922-0.87109 1.0703-0.98438 1.8594h6.0156c-0.125-0.76953-0.46094-1.3828-1-1.8438-0.54297-0.46875-1.2109-0.70312-2-0.70312z"/>
</g>
</g>
<g fill="#bf6a66">
<g transform="translate(127.06 25.374)">
<path d="m5.75 0.1875c-1.0234 0-2.0156-0.125-2.9844-0.375s-1.7422-0.56641-2.3125-0.95312l1.1875-2.5312c0.53906 0.34375 1.1953 0.625 1.9688 0.84375 0.76953 0.21875 1.5234 0.32812 2.2656 0.32812 1.5 0 2.25-0.36719 2.25-1.1094 0-0.34375-0.20312-0.59375-0.60938-0.75s-1.0391-0.28516-1.8906-0.39062c-1-0.14453-1.8281-0.31641-2.4844-0.51562-0.64844-0.19531-1.2109-0.54688-1.6875-1.0469-0.46875-0.5-0.70312-1.2109-0.70312-2.1406 0-0.76953 0.22266-1.4531 0.67188-2.0469 0.44531-0.59375 1.0977-1.0547 1.9531-1.3906 0.85156-0.33203 1.8633-0.5 3.0312-0.5 0.86328 0 1.7227 0.09375 2.5781 0.28125 0.85156 0.1875 1.5625 0.44922 2.125 0.78125l-1.1875 2.5156c-1.0742-0.60156-2.2461-0.90625-3.5156-0.90625-0.76172 0-1.3359 0.10938-1.7188 0.32812-0.375 0.21094-0.5625 0.48047-0.5625 0.8125 0 0.375 0.20312 0.64062 0.60938 0.79688 0.41406 0.14844 1.0703 0.28906 1.9688 0.42188 1 0.16797 1.8164 0.35156 2.4531 0.54688 0.63281 0.1875 1.1875 0.53125 1.6562 1.0312 0.46875 0.49219 0.70312 1.1836 0.70312 2.0781 0 0.76172-0.23047 1.4375-0.6875 2.0312-0.46094 0.58594-1.125 1.043-2 1.375-0.86719 0.32031-1.8906 0.48438-3.0781 0.48438z"/>
</g>
</g>
<g fill="#bf6a66">
<g transform="translate(139.12 25.374)">
<path d="m5.75 0.1875c-1.0234 0-2.0156-0.125-2.9844-0.375s-1.7422-0.56641-2.3125-0.95312l1.1875-2.5312c0.53906 0.34375 1.1953 0.625 1.9688 0.84375 0.76953 0.21875 1.5234 0.32812 2.2656 0.32812 1.5 0 2.25-0.36719 2.25-1.1094 0-0.34375-0.20312-0.59375-0.60938-0.75s-1.0391-0.28516-1.8906-0.39062c-1-0.14453-1.8281-0.31641-2.4844-0.51562-0.64844-0.19531-1.2109-0.54688-1.6875-1.0469-0.46875-0.5-0.70312-1.2109-0.70312-2.1406 0-0.76953 0.22266-1.4531 0.67188-2.0469 0.44531-0.59375 1.0977-1.0547 1.9531-1.3906 0.85156-0.33203 1.8633-0.5 3.0312-0.5 0.86328 0 1.7227 0.09375 2.5781 0.28125 0.85156 0.1875 1.5625 0.44922 2.125 0.78125l-1.1875 2.5156c-1.0742-0.60156-2.2461-0.90625-3.5156-0.90625-0.76172 0-1.3359 0.10938-1.7188 0.32812-0.375 0.21094-0.5625 0.48047-0.5625 0.8125 0 0.375 0.20312 0.64062 0.60938 0.79688 0.41406 0.14844 1.0703 0.28906 1.9688 0.42188 1 0.16797 1.8164 0.35156 2.4531 0.54688 0.63281 0.1875 1.1875 0.53125 1.6562 1.0312 0.46875 0.49219 0.70312 1.1836 0.70312 2.0781 0 0.76172-0.23047 1.4375-0.6875 2.0312-0.46094 0.58594-1.125 1.043-2 1.375-0.86719 0.32031-1.8906 0.48438-3.0781 0.48438z"/>
</g>
</g>
<g fill="#bf6a66">
<g transform="translate(151.17 25.374)"/>
</g>
<g fill="#bf6a66">
<g transform="translate(157.59 25.374)">
<path d="m7.5312 0.1875c-1.3047 0-2.4766-0.26953-3.5156-0.8125-1.0312-0.53906-1.8398-1.2852-2.4219-2.2344-0.58594-0.95703-0.875-2.0391-0.875-3.25 0-1.207 0.28906-2.2852 0.875-3.2344 0.58203-0.95703 1.3906-1.7031 2.4219-2.2344 1.0391-0.53906 2.2109-0.8125 3.5156-0.8125 1.2891 0 2.4141 0.27344 3.375 0.8125 0.95703 0.53125 1.6602 1.2969 2.1094 2.2969l-2.75 1.4688c-0.63672-1.1133-1.5547-1.6719-2.75-1.6719-0.92969 0-1.6953 0.30469-2.2969 0.90625-0.60547 0.60547-0.90625 1.4297-0.90625 2.4688 0 1.043 0.30078 1.8711 0.90625 2.4844 0.60156 0.60547 1.3672 0.90625 2.2969 0.90625 1.207 0 2.125-0.5625 2.75-1.6875l2.75 1.5c-0.44922 0.96875-1.1523 1.7305-2.1094 2.2812-0.96094 0.54297-2.0859 0.8125-3.375 0.8125z"/>
</g>
</g>
<g fill="#bf6a66">
<g transform="translate(171 25.374)">
<path d="m7.4531 0.1875c-1.293 0-2.4492-0.26953-3.4688-0.8125-1.0234-0.53906-1.8242-1.2852-2.4062-2.2344-0.57422-0.95703-0.85938-2.0391-0.85938-3.25 0-1.207 0.28516-2.2852 0.85938-3.2344 0.58203-0.95703 1.3828-1.7031 2.4062-2.2344 1.0195-0.53906 2.1758-0.8125 3.4688-0.8125 1.2812 0 2.4258 0.27344 3.4375 0.8125 1.0195 0.53125 1.8164 1.2773 2.3906 2.2344 0.57031 0.94922 0.85938 2.0273 0.85938 3.2344 0 1.2109-0.28906 2.293-0.85938 3.25-0.57422 0.94922-1.3711 1.6953-2.3906 2.2344-1.0117 0.54297-2.1562 0.8125-3.4375 0.8125zm0-2.9062c0.90625 0 1.6484-0.30469 2.2344-0.92188 0.58203-0.61328 0.875-1.4375 0.875-2.4688s-0.29297-1.8477-0.875-2.4531c-0.58594-0.61328-1.3281-0.92188-2.2344-0.92188-0.91797 0-1.6719 0.30859-2.2656 0.92188-0.58594 0.60547-0.875 1.4219-0.875 2.4531s0.28906 1.8555 0.875 2.4688c0.59375 0.61719 1.3477 0.92188 2.2656 0.92188z"/>
</g>
</g>
<g fill="#bf6a66">
<g transform="translate(185.87 25.374)">
<path d="m14.078-16.844v16.844h-3.3906v-1.4062c-0.875 1.0625-2.1484 1.5938-3.8125 1.5938-1.1484 0-2.1875-0.25391-3.125-0.76562-0.92969-0.51953-1.6562-1.2539-2.1875-2.2031-0.53125-0.95703-0.79688-2.0664-0.79688-3.3281 0-1.25 0.26562-2.3516 0.79688-3.3125 0.53125-0.95703 1.2578-1.6914 2.1875-2.2031 0.9375-0.50781 1.9766-0.76562 3.125-0.76562 1.5625 0 2.7812 0.49219 3.6562 1.4688v-5.9219zm-6.5938 14.125c0.89453 0 1.6406-0.30469 2.2344-0.92188 0.59375-0.61328 0.89062-1.4375 0.89062-2.4688s-0.29688-1.8477-0.89062-2.4531c-0.59375-0.61328-1.3398-0.92188-2.2344-0.92188-0.90625 0-1.6562 0.30859-2.25 0.92188-0.58594 0.60547-0.875 1.4219-0.875 2.4531s0.28906 1.8555 0.875 2.4688c0.59375 0.61719 1.3438 0.92188 2.25 0.92188z"/>
</g>
</g>
<g fill="#bf6a66">
<g transform="translate(201.58 25.374)">
<path d="m13.594-6.0625c0 0.042969-0.023438 0.35938-0.0625 0.95312h-9.2344c0.16406 0.76172 0.55469 1.3594 1.1719 1.7969 0.625 0.4375 1.3945 0.65625 2.3125 0.65625 0.63281 0 1.1953-0.09375 1.6875-0.28125 0.5-0.1875 0.96094-0.48828 1.3906-0.90625l1.875 2.0469c-1.1484 1.3242-2.8242 1.9844-5.0312 1.9844-1.3867 0-2.6094-0.26953-3.6719-0.8125-1.0547-0.53906-1.8711-1.2852-2.4531-2.2344-0.57422-0.95703-0.85938-2.0391-0.85938-3.25 0-1.1953 0.28125-2.2734 0.84375-3.2344 0.57031-0.95703 1.3516-1.7031 2.3438-2.2344 1-0.53906 2.1133-0.8125 3.3438-0.8125 1.1875 0 2.2656 0.25781 3.2344 0.76562 0.96875 0.51172 1.7266 1.25 2.2812 2.2188 0.55078 0.96094 0.82812 2.0742 0.82812 3.3438zm-6.3281-3.6562c-0.80469 0-1.4805 0.23047-2.0312 0.6875-0.54297 0.44922-0.87109 1.0703-0.98438 1.8594h6.0156c-0.125-0.76953-0.46094-1.3828-1-1.8438-0.54297-0.46875-1.2109-0.70312-2-0.70312z"/>
</g>
</g>
<g fill="#bf6a66">
<g transform="translate(215.9 25.374)">
<path d="m2.9688-7.9688c-0.61719 0-1.1367-0.21094-1.5625-0.64062-0.42969-0.42578-0.64062-0.95703-0.64062-1.5938 0-0.64453 0.21094-1.1641 0.64062-1.5625 0.42578-0.40625 0.94531-0.60938 1.5625-0.60938 0.625 0 1.1445 0.20312 1.5625 0.60938 0.42578 0.39844 0.64062 0.91797 0.64062 1.5625 0 0.63672-0.21484 1.168-0.64062 1.5938-0.41797 0.42969-0.9375 0.64062-1.5625 0.64062zm0 8.1562c-0.61719 0-1.1367-0.21094-1.5625-0.64062-0.42969-0.42578-0.64062-0.95703-0.64062-1.5938 0-0.64453 0.21094-1.1641 0.64062-1.5625 0.42578-0.40625 0.94531-0.60938 1.5625-0.60938 0.625 0 1.1445 0.20312 1.5625 0.60938 0.42578 0.39844 0.64062 0.91797 0.64062 1.5625 0 0.63672-0.21484 1.168-0.64062 1.5938-0.41797 0.42969-0.9375 0.64062-1.5625 0.64062z"/>
</g>
</g>
<g fill="#bf6a66">
<g transform="translate(221.85 25.374)"/>
</g>
<g fill="#bf6a66">
<g transform="translate(228.27 25.374)">
<path d="m7.1094 0.26562c-1.2617 0-2.4805-0.16797-3.6562-0.5-1.168-0.34375-2.1055-0.78516-2.8125-1.3281l1.25-2.7812c0.67578 0.5 1.4844 0.90625 2.4219 1.2188 0.9375 0.30469 1.875 0.45312 2.8125 0.45312 1.0508 0 1.8203-0.15625 2.3125-0.46875 0.5-0.3125 0.75-0.72266 0.75-1.2344 0-0.38281-0.14844-0.70312-0.4375-0.95312-0.29297-0.25-0.67188-0.44531-1.1406-0.59375-0.46094-0.15625-1.0781-0.32031-1.8594-0.5-1.2188-0.28906-2.2148-0.57812-2.9844-0.85938-0.77344-0.28906-1.4336-0.75391-1.9844-1.3906-0.55469-0.63281-0.82812-1.4844-0.82812-2.5469 0-0.91406 0.25-1.75 0.75-2.5s1.25-1.3438 2.25-1.7812c1.0078-0.44531 2.2422-0.67188 3.7031-0.67188 1.0078 0 2 0.125 2.9688 0.375 0.96875 0.24219 1.8164 0.58984 2.5469 1.0469l-1.1406 2.7812c-1.4688-0.83203-2.9375-1.25-4.4062-1.25-1.0312 0-1.793 0.16797-2.2812 0.5-0.49219 0.33594-0.73438 0.77734-0.73438 1.3281 0 0.54297 0.28125 0.94922 0.84375 1.2188 0.57031 0.26172 1.4414 0.51562 2.6094 0.76562 1.207 0.29297 2.1953 0.58594 2.9688 0.875 0.76953 0.28125 1.4297 0.73438 1.9844 1.3594 0.55078 0.61719 0.82812 1.4531 0.82812 2.5156 0 0.90625-0.25781 1.7344-0.76562 2.4844-0.5 0.75-1.2617 1.3438-2.2812 1.7812-1.0117 0.4375-2.2422 0.65625-3.6875 0.65625z"/>
</g>
</g>
<g fill="#bf6a66">
<g transform="translate(242.75 25.374)">
<path d="m13.594-6.0625c0 0.042969-0.023438 0.35938-0.0625 0.95312h-9.2344c0.16406 0.76172 0.55469 1.3594 1.1719 1.7969 0.625 0.4375 1.3945 0.65625 2.3125 0.65625 0.63281 0 1.1953-0.09375 1.6875-0.28125 0.5-0.1875 0.96094-0.48828 1.3906-0.90625l1.875 2.0469c-1.1484 1.3242-2.8242 1.9844-5.0312 1.9844-1.3867 0-2.6094-0.26953-3.6719-0.8125-1.0547-0.53906-1.8711-1.2852-2.4531-2.2344-0.57422-0.95703-0.85938-2.0391-0.85938-3.25 0-1.1953 0.28125-2.2734 0.84375-3.2344 0.57031-0.95703 1.3516-1.7031 2.3438-2.2344 1-0.53906 2.1133-0.8125 3.3438-0.8125 1.1875 0 2.2656 0.25781 3.2344 0.76562 0.96875 0.51172 1.7266 1.25 2.2812 2.2188 0.55078 0.96094 0.82812 2.0742 0.82812 3.3438zm-6.3281-3.6562c-0.80469 0-1.4805 0.23047-2.0312 0.6875-0.54297 0.44922-0.87109 1.0703-0.98438 1.8594h6.0156c-0.125-0.76953-0.46094-1.3828-1-1.8438-0.54297-0.46875-1.2109-0.70312-2-0.70312z"/>
</g>
</g>
<g fill="#bf6a66">
<g transform="translate(257.07 25.374)">
<path d="m17.281-12.391c1.5195 0 2.7266 0.45312 3.625 1.3594 0.90625 0.89844 1.3594 2.2422 1.3594 4.0312v7h-3.5312v-6.4531c0-0.96875-0.20312-1.6875-0.60938-2.1562-0.39844-0.47656-0.96484-0.71875-1.7031-0.71875-0.83594 0-1.4961 0.27344-1.9844 0.8125-0.48047 0.53125-0.71875 1.3281-0.71875 2.3906v6.125h-3.5469v-6.4531c0-1.9141-0.77344-2.875-2.3125-2.875-0.82422 0-1.4805 0.27344-1.9688 0.8125-0.48047 0.53125-0.71875 1.3281-0.71875 2.3906v6.125h-3.5312v-12.219h3.375v1.4062c0.45703-0.50781 1.0156-0.89844 1.6719-1.1719 0.65625-0.26953 1.3789-0.40625 2.1719-0.40625 0.85156 0 1.6289 0.17188 2.3281 0.51562 0.69531 0.33594 1.2578 0.82812 1.6875 1.4844 0.5-0.64453 1.1289-1.1406 1.8906-1.4844 0.76953-0.34375 1.6094-0.51562 2.5156-0.51562z"/>
</g>
</g>
<g fill="#bf6a66">
<g transform="translate(280.88 25.374)">
<path d="m1.6406-12.219h3.5312v12.219h-3.5312zm1.7656-1.7031c-0.64844 0-1.1797-0.1875-1.5938-0.5625-0.40625-0.375-0.60938-0.84375-0.60938-1.4062s0.20312-1.0312 0.60938-1.4062c0.41406-0.38281 0.94531-0.57812 1.5938-0.57812 0.65625 0 1.1875 0.18359 1.5938 0.54688 0.40625 0.36719 0.60938 0.82422 0.60938 1.375 0 0.58594-0.20312 1.0703-0.60938 1.4531-0.40625 0.38672-0.9375 0.57812-1.5938 0.57812z"/>
</g>
</g>
<g fill="#bf6a66">
<g transform="translate(287.71 25.374)">
<path d="m5.5156-11.938h3.1406v2.7188h-3.0469v9.2188h-3.5469v-9.2188h-1.875v-2.7188h1.875v-0.54688c0-1.3945 0.41016-2.5 1.2344-3.3125 0.83203-0.82031 1.9922-1.2344 3.4844-1.2344 0.53125 0 1.0352 0.058594 1.5156 0.17188 0.47656 0.11719 0.875 0.27734 1.1875 0.48438l-0.92188 2.5781c-0.40625-0.28906-0.88672-0.4375-1.4375-0.4375-1.0742 0-1.6094 0.58984-1.6094 1.7656z"/>
</g>
</g>
<g fill="#bf6a66">
<g transform="translate(296.5 25.374)">
<path d="m7.4531 0.1875c-1.293 0-2.4492-0.26953-3.4688-0.8125-1.0234-0.53906-1.8242-1.2852-2.4062-2.2344-0.57422-0.95703-0.85938-2.0391-0.85938-3.25 0-1.207 0.28516-2.2852 0.85938-3.2344 0.58203-0.95703 1.3828-1.7031 2.4062-2.2344 1.0195-0.53906 2.1758-0.8125 3.4688-0.8125 1.2812 0 2.4258 0.27344 3.4375 0.8125 1.0195 0.53125 1.8164 1.2773 2.3906 2.2344 0.57031 0.94922 0.85938 2.0273 0.85938 3.2344 0 1.2109-0.28906 2.293-0.85938 3.25-0.57422 0.94922-1.3711 1.6953-2.3906 2.2344-1.0117 0.54297-2.1562 0.8125-3.4375 0.8125zm0-2.9062c0.90625 0 1.6484-0.30469 2.2344-0.92188 0.58203-0.61328 0.875-1.4375 0.875-2.4688s-0.29297-1.8477-0.875-2.4531c-0.58594-0.61328-1.3281-0.92188-2.2344-0.92188-0.91797 0-1.6719 0.30859-2.2656 0.92188-0.58594 0.60547-0.875 1.4219-0.875 2.4531s0.28906 1.8555 0.875 2.4688c0.59375 0.61719 1.3477 0.92188 2.2656 0.92188z"/>
</g>
</g>
<g fill="#bf6a66">
<g transform="translate(311.36 25.374)">
<path d="m5.0156-10.609c0.42578-0.58203 1-1.0234 1.7188-1.3281 0.71875-0.30078 1.5469-0.45312 2.4844-0.45312v3.2656c-0.39844-0.03125-0.66406-0.046875-0.79688-0.046875-1.0117 0-1.8086 0.28906-2.3906 0.85938-0.57422 0.5625-0.85938 1.4141-0.85938 2.5469v5.7656h-3.5312v-12.219h3.375z"/>
</g>
</g>
<g fill="#bf6a66">
<g transform="translate(321.14 25.374)">
<path d="m17.281-12.391c1.5195 0 2.7266 0.45312 3.625 1.3594 0.90625 0.89844 1.3594 2.2422 1.3594 4.0312v7h-3.5312v-6.4531c0-0.96875-0.20312-1.6875-0.60938-2.1562-0.39844-0.47656-0.96484-0.71875-1.7031-0.71875-0.83594 0-1.4961 0.27344-1.9844 0.8125-0.48047 0.53125-0.71875 1.3281-0.71875 2.3906v6.125h-3.5469v-6.4531c0-1.9141-0.77344-2.875-2.3125-2.875-0.82422 0-1.4805 0.27344-1.9688 0.8125-0.48047 0.53125-0.71875 1.3281-0.71875 2.3906v6.125h-3.5312v-12.219h3.375v1.4062c0.45703-0.50781 1.0156-0.89844 1.6719-1.1719 0.65625-0.26953 1.3789-0.40625 2.1719-0.40625 0.85156 0 1.6289 0.17188 2.3281 0.51562 0.69531 0.33594 1.2578 0.82812 1.6875 1.4844 0.5-0.64453 1.1289-1.1406 1.8906-1.4844 0.76953-0.34375 1.6094-0.51562 2.5156-0.51562z"/>
</g>
</g>
<g fill="#bf6a66">
<g transform="translate(344.95 25.374)">
<path d="m6.5625-12.391c1.8945 0 3.3477 0.45312 4.3594 1.3594 1.0078 0.89844 1.5156 2.25 1.5156 4.0625v6.9688h-3.3125v-1.5156c-0.66797 1.1367-1.9062 1.7031-3.7188 1.7031-0.9375 0-1.75-0.15625-2.4375-0.46875-0.6875-0.32031-1.2148-0.76562-1.5781-1.3281-0.36719-0.5625-0.54688-1.1953-0.54688-1.9062 0-1.1328 0.42578-2.0234 1.2812-2.6719 0.85156-0.65625 2.1719-0.98438 3.9531-0.98438h2.8281c0-0.76953-0.24219-1.3633-0.71875-1.7812-0.46875-0.41406-1.1719-0.625-2.1094-0.625-0.64844 0-1.2891 0.10547-1.9219 0.3125-0.625 0.19922-1.1562 0.46875-1.5938 0.8125l-1.2656-2.4688c0.66406-0.46875 1.4609-0.82812 2.3906-1.0781 0.92578-0.25781 1.8828-0.39062 2.875-0.39062zm-0.28125 10.188c0.61328 0 1.1562-0.14062 1.625-0.42188s0.80078-0.69141 1-1.2344v-1.25h-2.4375c-1.4492 0-2.1719 0.48047-2.1719 1.4375 0 0.44922 0.17578 0.80859 0.53125 1.0781 0.35156 0.26172 0.83594 0.39062 1.4531 0.39062z"/>
</g>
</g>
<g fill="#bf6a66">
<g transform="translate(358.96 25.374)">
<path d="m1.6406-16.844h3.5312v16.844h-3.5312z"/>
</g>
</g>
</svg>
