<?xml version="1.0" encoding="UTF-8"?>
<svg width="600" height="50" version="1.0" viewBox="0 0 450 37.5" xmlns="http://www.w3.org/2000/svg" zoomAndPan="magnify">
<defs/>
<g fill="#7e6449">
<g transform="translate(23.781 25.374)">
<path d="m3.2969-12.391c0.61328 0 1.1289 0.20312 1.5469 0.60938 0.41406 0.39844 0.625 0.88281 0.625 1.4531 0 0.59375-0.20312 1.0859-0.60938 1.4688-0.40625 0.38672-0.92969 0.57812-1.5625 0.57812-0.63672 0-1.1641-0.19141-1.5781-0.57812-0.40625-0.38281-0.60938-0.875-0.60938-1.4688 0-0.57031 0.20703-1.0547 0.625-1.4531 0.41406-0.40625 0.9375-0.60938 1.5625-0.60938zm2.1094 15.891h-4.2188l0.70312-10.203h2.8125z"/>
</g>
</g>
<g fill="#7e6449">
<g transform="translate(30.341 25.374)">
<path d="m14.188-2.9531v2.9531h-12.297v-15.891h12v2.9531h-8.3438v3.4531h7.375v2.8594h-7.375v3.6719z"/>
</g>
</g>
<g fill="#7e6449">
<g transform="translate(45.57 25.374)">
<path d="m7.1094 0.26562c-1.2617 0-2.4805-0.16797-3.6562-0.5-1.168-0.34375-2.1055-0.78516-2.8125-1.3281l1.25-2.7812c0.67578 0.5 1.4844 0.90625 2.4219 1.2188 0.9375 0.30469 1.875 0.45312 2.8125 0.45312 1.0508 0 1.8203-0.15625 2.3125-0.46875 0.5-0.3125 0.75-0.72266 0.75-1.2344 0-0.38281-0.14844-0.70312-0.4375-0.95312-0.29297-0.25-0.67188-0.44531-1.1406-0.59375-0.46094-0.15625-1.0781-0.32031-1.8594-0.5-1.2188-0.28906-2.2148-0.57812-2.9844-0.85938-0.77344-0.28906-1.4336-0.75391-1.9844-1.3906-0.55469-0.63281-0.82812-1.4844-0.82812-2.5469 0-0.91406 0.25-1.75 0.75-2.5s1.25-1.3438 2.25-1.7812c1.0078-0.44531 2.2422-0.67188 3.7031-0.67188 1.0078 0 2 0.125 2.9688 0.375 0.96875 0.24219 1.8164 0.58984 2.5469 1.0469l-1.1406 2.7812c-1.4688-0.83203-2.9375-1.25-4.4062-1.25-1.0312 0-1.793 0.16797-2.2812 0.5-0.49219 0.33594-0.73438 0.77734-0.73438 1.3281 0 0.54297 0.28125 0.94922 0.84375 1.2188 0.57031 0.26172 1.4414 0.51562 2.6094 0.76562 1.207 0.29297 2.1953 0.58594 2.9688 0.875 0.76953 0.28125 1.4297 0.73438 1.9844 1.3594 0.55078 0.61719 0.82812 1.4531 0.82812 2.5156 0 0.90625-0.25781 1.7344-0.76562 2.4844-0.5 0.75-1.2617 1.3438-2.2812 1.7812-1.0117 0.4375-2.2422 0.65625-3.6875 0.65625z"/>
</g>
</g>
<g fill="#7e6449">
<g transform="translate(60.051 25.374)">
<path d="m5.1719-12.891h-5.0781v-3h13.844v3h-5.0781v12.891h-3.6875z"/>
</g>
</g>
<g fill="#7e6449">
<g transform="translate(74.077 25.374)">
<path d="m12.344-3.4062h-7.375l-1.4062 3.4062h-3.7656l7.0781-15.891h3.6406l7.1094 15.891h-3.8594zm-1.1562-2.7969-2.5156-6.0781-2.5156 6.0781z"/>
</g>
</g>
<g fill="#7e6449">
<g transform="translate(91.463 25.374)">
<path d="m16.344 0-0.015625-9.5312-4.6875 7.8438h-1.6562l-4.6562-7.6406v9.3281h-3.4375v-15.891h3.0312l5.9531 9.875 5.8594-9.875h3.0156l0.046875 15.891z"/>
</g>
</g>
<g fill="#7e6449">
<g transform="translate(113.14 25.374)">
<path d="m9.5781 0.26562c-1.6484 0-3.1328-0.35156-4.4531-1.0625-1.3242-0.70703-2.3594-1.6875-3.1094-2.9375s-1.125-2.6562-1.125-4.2188c0-1.5508 0.375-2.9531 1.125-4.2031s1.7852-2.2266 3.1094-2.9375c1.3203-0.71875 2.8047-1.0781 4.4531-1.0781 1.6562 0 3.1406 0.35938 4.4531 1.0781 1.3125 0.71094 2.3477 1.6875 3.1094 2.9375 0.75781 1.25 1.1406 2.6523 1.1406 4.2031 0 1.5625-0.38281 2.9688-1.1406 4.2188-0.76172 1.25-1.7969 2.2305-3.1094 2.9375-1.3125 0.71094-2.7969 1.0625-4.4531 1.0625zm0-3.125c0.9375 0 1.7852-0.21094 2.5469-0.64062 0.75781-0.4375 1.3516-1.0391 1.7812-1.8125 0.42578-0.76953 0.64062-1.6484 0.64062-2.6406 0-0.97656-0.21484-1.8516-0.64062-2.625-0.42969-0.76953-1.0234-1.3672-1.7812-1.7969-0.76172-0.4375-1.6094-0.65625-2.5469-0.65625s-1.7891 0.21875-2.5469 0.65625c-0.75 0.42969-1.3438 1.0273-1.7812 1.7969-0.42969 0.77344-0.64062 1.6484-0.64062 2.625 0 0.99219 0.21094 1.8711 0.64062 2.6406 0.4375 0.77344 1.0312 1.375 1.7812 1.8125 0.75781 0.42969 1.6094 0.64062 2.5469 0.64062z"/>
</g>
</g>
<g fill="#7e6449">
<g transform="translate(132.29 25.374)">
<path d="m7.1094 0.26562c-1.2617 0-2.4805-0.16797-3.6562-0.5-1.168-0.34375-2.1055-0.78516-2.8125-1.3281l1.25-2.7812c0.67578 0.5 1.4844 0.90625 2.4219 1.2188 0.9375 0.30469 1.875 0.45312 2.8125 0.45312 1.0508 0 1.8203-0.15625 2.3125-0.46875 0.5-0.3125 0.75-0.72266 0.75-1.2344 0-0.38281-0.14844-0.70312-0.4375-0.95312-0.29297-0.25-0.67188-0.44531-1.1406-0.59375-0.46094-0.15625-1.0781-0.32031-1.8594-0.5-1.2188-0.28906-2.2148-0.57812-2.9844-0.85938-0.77344-0.28906-1.4336-0.75391-1.9844-1.3906-0.55469-0.63281-0.82812-1.4844-0.82812-2.5469 0-0.91406 0.25-1.75 0.75-2.5s1.25-1.3438 2.25-1.7812c1.0078-0.44531 2.2422-0.67188 3.7031-0.67188 1.0078 0 2 0.125 2.9688 0.375 0.96875 0.24219 1.8164 0.58984 2.5469 1.0469l-1.1406 2.7812c-1.4688-0.83203-2.9375-1.25-4.4062-1.25-1.0312 0-1.793 0.16797-2.2812 0.5-0.49219 0.33594-0.73438 0.77734-0.73438 1.3281 0 0.54297 0.28125 0.94922 0.84375 1.2188 0.57031 0.26172 1.4414 0.51562 2.6094 0.76562 1.207 0.29297 2.1953 0.58594 2.9688 0.875 0.76953 0.28125 1.4297 0.73438 1.9844 1.3594 0.55078 0.61719 0.82812 1.4531 0.82812 2.5156 0 0.90625-0.25781 1.7344-0.76562 2.4844-0.5 0.75-1.2617 1.3438-2.2812 1.7812-1.0117 0.4375-2.2422 0.65625-3.6875 0.65625z"/>
</g>
</g>
<g fill="#7e6449">
<g transform="translate(146.78 25.374)"/>
</g>
<g fill="#7e6449">
<g transform="translate(153.2 25.374)">
<path d="m9.4844 0.26562c-1.6172 0-3.0781-0.34766-4.3906-1.0469-1.3047-0.70703-2.3281-1.6797-3.0781-2.9219-0.75-1.25-1.125-2.6641-1.125-4.25 0-1.5703 0.375-2.9766 1.125-4.2188 0.75-1.25 1.7734-2.2266 3.0781-2.9375 1.3125-0.70703 2.7852-1.0625 4.4219-1.0625 1.375 0 2.6172 0.24609 3.7344 0.73438 1.1133 0.48047 2.0469 1.1797 2.7969 2.0938l-2.3594 2.1719c-1.0742-1.2383-2.4062-1.8594-4-1.8594-0.98047 0-1.8555 0.21875-2.625 0.65625-0.77344 0.42969-1.375 1.0273-1.8125 1.7969-0.42969 0.77344-0.64062 1.6484-0.64062 2.625 0 0.99219 0.21094 1.8711 0.64062 2.6406 0.4375 0.77344 1.0391 1.375 1.8125 1.8125 0.76953 0.42969 1.6445 0.64062 2.625 0.64062 1.5938 0 2.9258-0.62891 4-1.8906l2.3594 2.1875c-0.75 0.91797-1.6875 1.6211-2.8125 2.1094-1.1172 0.47656-2.3672 0.71875-3.75 0.71875z"/>
</g>
</g>
<g fill="#7e6449">
<g transform="translate(169.84 25.374)">
<path d="m9.5781 0.26562c-1.6484 0-3.1328-0.35156-4.4531-1.0625-1.3242-0.70703-2.3594-1.6875-3.1094-2.9375s-1.125-2.6562-1.125-4.2188c0-1.5508 0.375-2.9531 1.125-4.2031s1.7852-2.2266 3.1094-2.9375c1.3203-0.71875 2.8047-1.0781 4.4531-1.0781 1.6562 0 3.1406 0.35938 4.4531 1.0781 1.3125 0.71094 2.3477 1.6875 3.1094 2.9375 0.75781 1.25 1.1406 2.6523 1.1406 4.2031 0 1.5625-0.38281 2.9688-1.1406 4.2188-0.76172 1.25-1.7969 2.2305-3.1094 2.9375-1.3125 0.71094-2.7969 1.0625-4.4531 1.0625zm0-3.125c0.9375 0 1.7852-0.21094 2.5469-0.64062 0.75781-0.4375 1.3516-1.0391 1.7812-1.8125 0.42578-0.76953 0.64062-1.6484 0.64062-2.6406 0-0.97656-0.21484-1.8516-0.64062-2.625-0.42969-0.76953-1.0234-1.3672-1.7812-1.7969-0.76172-0.4375-1.6094-0.65625-2.5469-0.65625s-1.7891 0.21875-2.5469 0.65625c-0.75 0.42969-1.3438 1.0273-1.7812 1.7969-0.42969 0.77344-0.64062 1.6484-0.64062 2.625 0 0.99219 0.21094 1.8711 0.64062 2.6406 0.4375 0.77344 1.0312 1.375 1.7812 1.8125 0.75781 0.42969 1.6094 0.64062 2.5469 0.64062z"/>
</g>
</g>
<g fill="#7e6449">
<g transform="translate(188.99 25.374)">
<path d="m16.453-15.891v15.891h-3.0156l-7.9219-9.6562v9.6562h-3.625v-15.891h3.0312l7.9062 9.6406v-9.6406z"/>
</g>
</g>
<g fill="#7e6449">
<g transform="translate(207.33 25.374)">
<path d="m5.1719-12.891h-5.0781v-3h13.844v3h-5.0781v12.891h-3.6875z"/>
</g>
</g>
<g fill="#7e6449">
<g transform="translate(221.36 25.374)">
<path d="m12.344-3.4062h-7.375l-1.4062 3.4062h-3.7656l7.0781-15.891h3.6406l7.1094 15.891h-3.8594zm-1.1562-2.7969-2.5156-6.0781-2.5156 6.0781z"/>
</g>
</g>
<g fill="#7e6449">
<g transform="translate(238.74 25.374)">
<path d="m16.453-15.891v15.891h-3.0156l-7.9219-9.6562v9.6562h-3.625v-15.891h3.0312l7.9062 9.6406v-9.6406z"/>
</g>
</g>
<g fill="#7e6449">
<g transform="translate(257.08 25.374)">
<path d="m1.8906-15.891h7.2188c1.7188 0 3.2383 0.32812 4.5625 0.98438 1.332 0.65625 2.3633 1.5859 3.0938 2.7812 0.73828 1.1992 1.1094 2.5898 1.1094 4.1719 0 1.5938-0.37109 2.9922-1.1094 4.1875-0.73047 1.1992-1.7617 2.125-3.0938 2.7812-1.3242 0.65625-2.8438 0.98438-4.5625 0.98438h-7.2188zm7.0312 12.875c1.5938 0 2.8594-0.44141 3.7969-1.3281 0.94531-0.88281 1.4219-2.0859 1.4219-3.6094 0-1.5078-0.47656-2.707-1.4219-3.5938-0.9375-0.88281-2.2031-1.3281-3.7969-1.3281h-3.3594v9.8594z"/>
</g>
</g>
<g fill="#7e6449">
<g transform="translate(275.83 25.374)">
<path d="m9.5781 0.26562c-1.6484 0-3.1328-0.35156-4.4531-1.0625-1.3242-0.70703-2.3594-1.6875-3.1094-2.9375s-1.125-2.6562-1.125-4.2188c0-1.5508 0.375-2.9531 1.125-4.2031s1.7852-2.2266 3.1094-2.9375c1.3203-0.71875 2.8047-1.0781 4.4531-1.0781 1.6562 0 3.1406 0.35938 4.4531 1.0781 1.3125 0.71094 2.3477 1.6875 3.1094 2.9375 0.75781 1.25 1.1406 2.6523 1.1406 4.2031 0 1.5625-0.38281 2.9688-1.1406 4.2188-0.76172 1.25-1.7969 2.2305-3.1094 2.9375-1.3125 0.71094-2.7969 1.0625-4.4531 1.0625zm0-3.125c0.9375 0 1.7852-0.21094 2.5469-0.64062 0.75781-0.4375 1.3516-1.0391 1.7812-1.8125 0.42578-0.76953 0.64062-1.6484 0.64062-2.6406 0-0.97656-0.21484-1.8516-0.64062-2.625-0.42969-0.76953-1.0234-1.3672-1.7812-1.7969-0.76172-0.4375-1.6094-0.65625-2.5469-0.65625s-1.7891 0.21875-2.5469 0.65625c-0.75 0.42969-1.3438 1.0273-1.7812 1.7969-0.42969 0.77344-0.64062 1.6484-0.64062 2.625 0 0.99219 0.21094 1.8711 0.64062 2.6406 0.4375 0.77344 1.0312 1.375 1.7812 1.8125 0.75781 0.42969 1.6094 0.64062 2.5469 0.64062z"/>
</g>
</g>
<g fill="#7e6449">
<g transform="translate(294.99 25.374)"/>
</g>
<g fill="#7e6449">
<g transform="translate(301.41 25.374)">
<path d="m1.8906-15.891h3.6719v12.891h7.9688v3h-11.641z"/>
</g>
</g>
<g fill="#7e6449">
<g transform="translate(315.12 25.374)">
<path d="m9.5781 0.26562c-1.6484 0-3.1328-0.35156-4.4531-1.0625-1.3242-0.70703-2.3594-1.6875-3.1094-2.9375s-1.125-2.6562-1.125-4.2188c0-1.5508 0.375-2.9531 1.125-4.2031s1.7852-2.2266 3.1094-2.9375c1.3203-0.71875 2.8047-1.0781 4.4531-1.0781 1.6562 0 3.1406 0.35938 4.4531 1.0781 1.3125 0.71094 2.3477 1.6875 3.1094 2.9375 0.75781 1.25 1.1406 2.6523 1.1406 4.2031 0 1.5625-0.38281 2.9688-1.1406 4.2188-0.76172 1.25-1.7969 2.2305-3.1094 2.9375-1.3125 0.71094-2.7969 1.0625-4.4531 1.0625zm0-3.125c0.9375 0 1.7852-0.21094 2.5469-0.64062 0.75781-0.4375 1.3516-1.0391 1.7812-1.8125 0.42578-0.76953 0.64062-1.6484 0.64062-2.6406 0-0.97656-0.21484-1.8516-0.64062-2.625-0.42969-0.76953-1.0234-1.3672-1.7812-1.7969-0.76172-0.4375-1.6094-0.65625-2.5469-0.65625s-1.7891 0.21875-2.5469 0.65625c-0.75 0.42969-1.3438 1.0273-1.7812 1.7969-0.42969 0.77344-0.64062 1.6484-0.64062 2.625 0 0.99219 0.21094 1.8711 0.64062 2.6406 0.4375 0.77344 1.0312 1.375 1.7812 1.8125 0.75781 0.42969 1.6094 0.64062 2.5469 0.64062z"/>
</g>
</g>
<g fill="#7e6449">
<g transform="translate(334.27 25.374)">
<path d="m7.1094 0.26562c-1.2617 0-2.4805-0.16797-3.6562-0.5-1.168-0.34375-2.1055-0.78516-2.8125-1.3281l1.25-2.7812c0.67578 0.5 1.4844 0.90625 2.4219 1.2188 0.9375 0.30469 1.875 0.45312 2.8125 0.45312 1.0508 0 1.8203-0.15625 2.3125-0.46875 0.5-0.3125 0.75-0.72266 0.75-1.2344 0-0.38281-0.14844-0.70312-0.4375-0.95312-0.29297-0.25-0.67188-0.44531-1.1406-0.59375-0.46094-0.15625-1.0781-0.32031-1.8594-0.5-1.2188-0.28906-2.2148-0.57812-2.9844-0.85938-0.77344-0.28906-1.4336-0.75391-1.9844-1.3906-0.55469-0.63281-0.82812-1.4844-0.82812-2.5469 0-0.91406 0.25-1.75 0.75-2.5s1.25-1.3438 2.25-1.7812c1.0078-0.44531 2.2422-0.67188 3.7031-0.67188 1.0078 0 2 0.125 2.9688 0.375 0.96875 0.24219 1.8164 0.58984 2.5469 1.0469l-1.1406 2.7812c-1.4688-0.83203-2.9375-1.25-4.4062-1.25-1.0312 0-1.793 0.16797-2.2812 0.5-0.49219 0.33594-0.73438 0.77734-0.73438 1.3281 0 0.54297 0.28125 0.94922 0.84375 1.2188 0.57031 0.26172 1.4414 0.51562 2.6094 0.76562 1.207 0.29297 2.1953 0.58594 2.9688 0.875 0.76953 0.28125 1.4297 0.73438 1.9844 1.3594 0.55078 0.61719 0.82812 1.4531 0.82812 2.5156 0 0.90625-0.25781 1.7344-0.76562 2.4844-0.5 0.75-1.2617 1.3438-2.2812 1.7812-1.0117 0.4375-2.2422 0.65625-3.6875 0.65625z"/>
</g>
</g>
<g fill="#7e6449">
<g transform="translate(348.75 25.374)"/>
</g>
<g fill="#7e6449">
<g transform="translate(355.18 25.374)">
<path d="m1.8906-15.891h7.2188c1.7188 0 3.2383 0.32812 4.5625 0.98438 1.332 0.65625 2.3633 1.5859 3.0938 2.7812 0.73828 1.1992 1.1094 2.5898 1.1094 4.1719 0 1.5938-0.37109 2.9922-1.1094 4.1875-0.73047 1.1992-1.7617 2.125-3.0938 2.7812-1.3242 0.65625-2.8438 0.98438-4.5625 0.98438h-7.2188zm7.0312 12.875c1.5938 0 2.8594-0.44141 3.7969-1.3281 0.94531-0.88281 1.4219-2.0859 1.4219-3.6094 0-1.5078-0.47656-2.707-1.4219-3.5938-0.9375-0.88281-2.2031-1.3281-3.7969-1.3281h-3.3594v9.8594z"/>
</g>
</g>
<g fill="#7e6449">
<g transform="translate(373.93 25.374)">
<path d="m1.8906-15.891h3.6719v15.891h-3.6719zm2.8281-4.5625h3.8125l-4.1094 3.2656h-2.7656z"/>
</g>
</g>
<g fill="#7e6449">
<g transform="translate(381.37 25.374)">
<path d="m12.344-3.4062h-7.375l-1.4062 3.4062h-3.7656l7.0781-15.891h3.6406l7.1094 15.891h-3.8594zm-1.1562-2.7969-2.5156-6.0781-2.5156 6.0781z"/>
</g>
</g>
<g fill="#7e6449">
<g transform="translate(398.76 25.374)">
<path d="m7.1094 0.26562c-1.2617 0-2.4805-0.16797-3.6562-0.5-1.168-0.34375-2.1055-0.78516-2.8125-1.3281l1.25-2.7812c0.67578 0.5 1.4844 0.90625 2.4219 1.2188 0.9375 0.30469 1.875 0.45312 2.8125 0.45312 1.0508 0 1.8203-0.15625 2.3125-0.46875 0.5-0.3125 0.75-0.72266 0.75-1.2344 0-0.38281-0.14844-0.70312-0.4375-0.95312-0.29297-0.25-0.67188-0.44531-1.1406-0.59375-0.46094-0.15625-1.0781-0.32031-1.8594-0.5-1.2188-0.28906-2.2148-0.57812-2.9844-0.85938-0.77344-0.28906-1.4336-0.75391-1.9844-1.3906-0.55469-0.63281-0.82812-1.4844-0.82812-2.5469 0-0.91406 0.25-1.75 0.75-2.5s1.25-1.3438 2.25-1.7812c1.0078-0.44531 2.2422-0.67188 3.7031-0.67188 1.0078 0 2 0.125 2.9688 0.375 0.96875 0.24219 1.8164 0.58984 2.5469 1.0469l-1.1406 2.7812c-1.4688-0.83203-2.9375-1.25-4.4062-1.25-1.0312 0-1.793 0.16797-2.2812 0.5-0.49219 0.33594-0.73438 0.77734-0.73438 1.3281 0 0.54297 0.28125 0.94922 0.84375 1.2188 0.57031 0.26172 1.4414 0.51562 2.6094 0.76562 1.207 0.29297 2.1953 0.58594 2.9688 0.875 0.76953 0.28125 1.4297 0.73438 1.9844 1.3594 0.55078 0.61719 0.82812 1.4531 0.82812 2.5156 0 0.90625-0.25781 1.7344-0.76562 2.4844-0.5 0.75-1.2617 1.3438-2.2812 1.7812-1.0117 0.4375-2.2422 0.65625-3.6875 0.65625z"/>
</g>
</g>
<g fill="#7e6449">
<g transform="translate(413.24 25.374)"/>
</g>
<g fill="#7e6449">
<g transform="translate(419.66 25.374)">
<path d="m1.1875-15.891h4.2188l-0.70312 10.375h-2.8125zm2.1094 16.078c-0.625 0-1.1484-0.19531-1.5625-0.59375-0.41797-0.40625-0.625-0.89844-0.625-1.4844 0-0.57031 0.20312-1.0508 0.60938-1.4375 0.41406-0.38281 0.94141-0.57812 1.5781-0.57812 0.63281 0 1.1562 0.19531 1.5625 0.57812 0.40625 0.38672 0.60938 0.86719 0.60938 1.4375 0 0.58594-0.21094 1.0781-0.625 1.4844-0.41797 0.39844-0.93359 0.59375-1.5469 0.59375z"/>
</g>
</g>
</svg>
