<?xml version="1.0" encoding="UTF-8"?>
<svg width="40" height="40" version="1.0" viewBox="0 0 30 30" xmlns="http://www.w3.org/2000/svg" zoomAndPan="magnify">
<defs>
<clipPath id="e">
<path d="m8 27h1v1.3047h-1z"/>
</clipPath>
<clipPath id="c">
<path d="m0.48438 9h1.5156v3h-1.5156z"/>
</clipPath>
<clipPath id="a">
<path d="m0.48438 10h1.5156v3h-1.5156z"/>
</clipPath>
<clipPath id="f">
<path d="m22 26h3v2.3047h-3z"/>
</clipPath>
<clipPath id="d">
<path d="m28 19h1.5156v3h-1.5156z"/>
</clipPath>
<clipPath id="b">
<path d="m28 20h1.5156v1h-1.5156z"/>
</clipPath>
</defs>
<path d="m3.4961 3.6523c-0.125 0-0.23047-0.10156-0.23047-0.22656 0-0.12891 0.10156-0.23047 0.22656-0.23047h0.003906c0.125 0 0.22656 0.10156 0.22656 0.23047 0 0.125-0.10156 0.22656-0.22656 0.22656z" fill="#f2aaa8"/>
<path d="m24.758 23.285c-0.125 0-0.23047-0.10156-0.23047-0.23047 0-0.125 0.097656-0.22656 0.22266-0.22656h0.007812c0.12109 0 0.22266 0.10156 0.22266 0.22656 0 0.12891-0.10156 0.23047-0.22266 0.23047z" fill="#f2aaa8"/>
<g clip-path="url(#e)">
<path d="m8.4727 28.305c-0.125 0-0.23047-0.10156-0.23047-0.22656s0.10156-0.22656 0.22266-0.22656h0.007812c0.125 0 0.22656 0.10156 0.22656 0.22656s-0.10156 0.22656-0.22656 0.22656z" fill="#f2aaa8"/>
</g>
<path d="m3.4961 21.457c-0.125 0-0.23047-0.10156-0.23047-0.22656s0.10156-0.23047 0.22656-0.23047h0.003906c0.125 0 0.22656 0.10547 0.22656 0.23047s-0.10156 0.22656-0.22656 0.22656z" fill="#f2aaa8"/>
<path d="m28.375 6.8711c-0.125 0-0.22656-0.10156-0.22656-0.23047 0-0.125 0.097656-0.22656 0.22266-0.22656h0.003906c0.125 0 0.22656 0.10156 0.22656 0.22656 0 0.12891-0.10156 0.23047-0.22656 0.23047z" fill="#f2aaa8"/>
<path d="m15.016 26.48c-5.4844 0-9.9492-4.5078-9.9492-10.043 0-5.5391 4.4648-10.047 9.9492-10.047 2.7305 0 5.2812 1.0938 7.1719 3.082 0.085938 0.089844 0.085938 0.23438-0.003906 0.32422-0.089844 0.085937-0.23438 0.082031-0.32031-0.007813-1.8086-1.8945-4.2383-2.9414-6.8477-2.9414-5.2383 0-9.4961 4.3008-9.4961 9.5898 0 5.2852 4.2578 9.5859 9.4961 9.5859s9.5-4.3008 9.5-9.5859c0-1.3203-0.25781-2.5938-0.77344-3.793-0.046876-0.11719 0.003906-0.25 0.12109-0.30078 0.11328-0.050781 0.24609 0.003906 0.29688 0.12109 0.53516 1.2539 0.80859 2.5898 0.80859 3.9727 0 5.5352-4.4648 10.043-9.9531 10.043z" fill="#f2aaa8"/>
<path d="m17.32 25.375c-0.015624 0-0.027343 0-0.042968-0.003906-0.125-0.023438-0.20312-0.14453-0.17969-0.26953 0.011719-0.042968 0.90234-4.582 0.90234-8.6641 0-4.0898-0.89062-8.625-0.90234-8.668-0.023437-0.125 0.054688-0.24609 0.17969-0.26953 0.12109-0.023438 0.24219 0.054688 0.26562 0.17969 0.007812 0.042968 0.91016 4.625 0.91016 8.7578 0 4.1289-0.90234 8.7109-0.91016 8.7578-0.023438 0.10547-0.11719 0.17969-0.22266 0.17969z" fill="#f2aaa8"/>
<path d="m19.582 24.465c-0.023437 0-0.050781-0.003906-0.074219-0.015625-0.11719-0.039063-0.17969-0.17188-0.13672-0.28906 0.011718-0.039062 1.3438-3.8828 1.3438-7.7227 0-3.8438-1.332-7.6875-1.3438-7.7227-0.042969-0.12109 0.019531-0.25 0.13672-0.29297 0.11719-0.042969 0.24609 0.019531 0.28906 0.13672 0.011719 0.042968 1.3711 3.957 1.3711 7.8789 0 3.918-1.3594 7.8359-1.3711 7.875-0.035156 0.09375-0.12109 0.15234-0.21484 0.15234z" fill="#f2aaa8"/>
<path d="m21.844 22.648c-0.03125 0-0.0625-0.007813-0.09375-0.023438-0.11328-0.050781-0.16406-0.1875-0.10938-0.30078 0.011719-0.03125 1.3359-2.9648 1.3359-5.8867 0-0.89453-0.125-1.875-0.36328-2.918-0.03125-0.12109 0.046875-0.24219 0.16797-0.27344 0.125-0.027344 0.24219 0.050781 0.26953 0.17188 0.25 1.0742 0.375 2.0898 0.375 3.0195 0 3.0273-1.3203 5.9531-1.375 6.0781-0.039062 0.082031-0.12109 0.13281-0.20703 0.13281z" fill="#f2aaa8"/>
<path d="m11.957 14.609h-0.011719c-0.125-0.007813-0.22266-0.11719-0.21484-0.24219 0.20703-3.4492 0.83984-6.6562 0.84375-6.6875 0.027343-0.125 0.14844-0.20313 0.26953-0.17969s0.19922 0.14453 0.17578 0.26953c-0.007812 0.03125-0.63281 3.2109-0.83594 6.625-0.007813 0.12109-0.10547 0.21484-0.22656 0.21484z" fill="#f2aaa8"/>
<path d="m12.797 25.375c-0.10547 0-0.19922-0.074219-0.22266-0.17969-0.003907-0.035156-0.63672-3.2422-0.84375-6.6914-0.007813-0.125 0.089843-0.23438 0.21484-0.24219 0.13672-0.011719 0.23047 0.089843 0.23828 0.21484 0.20312 3.418 0.82812 6.5938 0.83594 6.625 0.023438 0.125-0.054687 0.24609-0.17578 0.26953-0.015625 0.003906-0.03125 0.003906-0.046875 0.003906z" fill="#f2aaa8"/>
<path d="m10.535 24.465c-0.09375 0-0.17969-0.058594-0.21094-0.15234-0.015625-0.039062-1.3711-3.957-1.3711-7.875 0-3.9219 1.3555-7.8359 1.3711-7.8789 0.039062-0.11719 0.16797-0.17969 0.28906-0.13672 0.11719 0.042969 0.17578 0.17188 0.13672 0.28906-0.015625 0.039062-1.3438 3.8867-1.3438 7.7266s1.3281 7.6836 1.3438 7.7227c0.039062 0.11719-0.019531 0.25-0.13672 0.28906-0.027343 0.011719-0.050781 0.015625-0.078125 0.015625z" fill="#f2aaa8"/>
<path d="m8.2734 22.648c-0.085938 0-0.16797-0.050782-0.20313-0.13281-0.058593-0.125-1.3789-3.0547-1.3789-6.0781 0-3.0273 1.3203-5.957 1.3789-6.0781 0.050782-0.11719 0.1875-0.16406 0.29688-0.11328 0.11328 0.050781 0.16406 0.1875 0.11328 0.30469-0.015625 0.027344-1.3359 2.9609-1.3359 5.8867 0 2.9219 1.3203 5.8555 1.3359 5.8867 0.050781 0.11328 0 0.25-0.11328 0.30078-0.027344 0.015625-0.0625 0.023438-0.09375 0.023438z" fill="#f2aaa8"/>
<path d="m10.266 16.664h-4.2891c-0.125 0-0.22656-0.10156-0.22656-0.22656 0-0.12891 0.10156-0.23047 0.22656-0.23047h4.2891c0.125 0 0.22656 0.10156 0.22656 0.23047 0 0.125-0.10156 0.22656-0.22656 0.22656z" fill="#f2aaa8"/>
<path d="m24.145 16.664h-10.711c-0.125 0-0.22656-0.10156-0.22656-0.22656 0-0.12891 0.10156-0.23047 0.22656-0.23047h10.711c0.125 0 0.22656 0.10156 0.22656 0.23047 0 0.125-0.10156 0.22656-0.22656 0.22656z" fill="#f2aaa8"/>
<path d="m15.023 19.82c-4.0938 0-8.6328-0.90625-8.6797-0.91406-0.12109-0.027344-0.19922-0.14453-0.17578-0.26953 0.023437-0.125 0.14844-0.20312 0.26562-0.17969 0.046875 0.007813 4.5391 0.91016 8.5898 0.91016 4.0469 0 8.543-0.90234 8.5859-0.91016 0.12109-0.027343 0.24219 0.054688 0.26562 0.17969 0.027344 0.125-0.054688 0.24219-0.17578 0.26953-0.046875 0.007812-4.582 0.91406-8.6758 0.91406z" fill="#f2aaa8"/>
<path d="m15.023 22.562c-3.8867 0-7.7656-1.3711-7.8047-1.3828-0.11719-0.042969-0.17969-0.17188-0.13672-0.29297 0.042969-0.11719 0.17188-0.17969 0.28906-0.13672 0.035156 0.011719 3.8477 1.3555 7.6523 1.3555 3.8047 0 7.6133-1.3438 7.6484-1.3555 0.12109-0.042969 0.25 0.019531 0.28906 0.13672 0.042968 0.12109-0.019532 0.25-0.13672 0.29297-0.039063 0.011718-3.918 1.3828-7.8008 1.3828z" fill="#f2aaa8"/>
<path d="m15.023 24.844c-3 0-5.9023-1.332-6.0234-1.3906-0.11328-0.050781-0.16406-0.1875-0.10938-0.30078 0.050781-0.11719 0.1875-0.16406 0.29688-0.11328 0.03125 0.011719 2.9375 1.3477 5.8359 1.3477 2.8945 0 5.8008-1.3359 5.832-1.3477 0.11328-0.050781 0.24609-0.003906 0.30078 0.11328 0.050781 0.11328 0 0.25-0.11328 0.30078-0.12109 0.058594-3.0234 1.3906-6.0195 1.3906z" fill="#f2aaa8"/>
<path d="m6.3906 14.344c-0.10547 0-0.19922-0.074219-0.22266-0.18359-0.023438-0.125 0.054687-0.24219 0.17578-0.26953 0.046875-0.007813 4.5859-0.91797 8.6797-0.91797s8.6289 0.91016 8.6758 0.91797c0.12109 0.027344 0.20312 0.14453 0.17578 0.26953-0.023438 0.125-0.14453 0.20312-0.26562 0.17969-0.042969-0.007813-4.5391-0.91016-8.5859-0.91016-4.0508 0-8.543 0.90234-8.5898 0.91016-0.015625 0.003906-0.027344 0.003906-0.042969 0.003906z" fill="#f2aaa8"/>
<path d="m7.293 12.062c-0.089844 0-0.17969-0.058594-0.21094-0.15234-0.042969-0.12109 0.019531-0.25 0.13672-0.29297 0.039062-0.015626 3.918-1.3828 7.8047-1.3828 2.3477 0 4.668 0.48828 6.2031 0.90234 0.12109 0.03125 0.19141 0.15625 0.16016 0.27734-0.03125 0.12109-0.15234 0.19531-0.27734 0.16406-1.5078-0.40625-3.7891-0.88672-6.0859-0.88672-3.8047 0-7.6172 1.3438-7.6523 1.3555-0.027344 0.011719-0.050782 0.015625-0.078125 0.015625z" fill="#f2aaa8"/>
<path d="m9.0938 9.7773c-0.085938 0-0.16797-0.046875-0.20312-0.13281-0.054687-0.11328-0.003906-0.25 0.10938-0.30078 0.12109-0.058594 3.0234-1.3906 6.0234-1.3906 2.9961 0 5.8984 1.332 6.0195 1.3906 0.11328 0.050781 0.16406 0.1875 0.11328 0.30078-0.054688 0.11719-0.1875 0.16406-0.30078 0.11328-0.03125-0.015624-2.9375-1.3477-5.832-1.3477-2.8984 0-5.8047 1.332-5.8359 1.3477-0.027344 0.011719-0.0625 0.019532-0.09375 0.019532z" fill="#f2aaa8"/>
<path d="m15.023 25.797c-0.125 0-0.22656-0.10547-0.22656-0.23047v-18.336c0-0.12891 0.10156-0.23047 0.22656-0.23047s0.22266 0.10156 0.22266 0.23047v18.336c0 0.125-0.097656 0.23047-0.22266 0.23047z" fill="#f2aaa8"/>
<path d="m15.016 5.9336c-0.125 0-0.22656-0.10156-0.22656-0.22656v-5.4805c0-0.125 0.10156-0.22656 0.22656-0.22656s0.22656 0.10156 0.22656 0.22656v5.4805c0 0.125-0.10156 0.22656-0.22656 0.22656z" fill="#f2aaa8"/>
<path d="m1.6719 12.785c-0.125 0-0.22656-0.10547-0.22656-0.23047 0-1.0586 0.99219-1.5547 1.0352-1.5742 0.10938-0.054688 0.24609-0.007813 0.30078 0.10547 0.054688 0.11328 0.007812 0.25-0.10547 0.30469-0.03125 0.015625-0.77734 0.39453-0.77734 1.1641 0 0.125-0.10156 0.23047-0.22656 0.23047z" fill="#f2aaa8"/>
<path d="m2.5781 11.414c-0.035156 0-0.066406-0.007812-0.097656-0.023437-0.042969-0.019531-1.0352-0.51562-1.0352-1.5742 0-0.125 0.10156-0.23047 0.22656-0.23047s0.22656 0.10547 0.22656 0.23047c0 0.77734 0.76953 1.1602 0.77734 1.1641 0.11328 0.054687 0.16016 0.19141 0.10547 0.30469-0.039062 0.082032-0.12109 0.12891-0.20312 0.12891z" fill="#f2aaa8"/>
<g clip-path="url(#c)">
<path d="m0.76953 11.414c-0.085937 0-0.16406-0.046874-0.20312-0.12891-0.054687-0.11328-0.007812-0.25 0.10156-0.30469 0.03125-0.015625 0.77734-0.39453 0.77734-1.1641 0-0.125 0.10156-0.23047 0.22656-0.23047s0.22656 0.10547 0.22656 0.23047c0 1.0586-0.98828 1.5547-1.0312 1.5742-0.03125 0.015625-0.066407 0.023437-0.097657 0.023437z" fill="#f2aaa8"/>
</g>
<g clip-path="url(#a)">
<path d="m1.6719 12.785c-0.125 0-0.22656-0.10547-0.22656-0.23047 0-0.77734-0.76953-1.1602-0.77344-1.1641-0.11328-0.054687-0.16016-0.19141-0.10938-0.30469 0.054688-0.11328 0.19141-0.16016 0.30469-0.10547 0.042968 0.019531 1.0312 0.51562 1.0312 1.5742 0 0.125-0.10156 0.23047-0.22656 0.23047z" fill="#f2aaa8"/>
</g>
<path d="m22.934 12.785c-0.125 0-0.22656-0.10547-0.22656-0.23047 0-1.0586 0.98828-1.5547 1.0312-1.5742 0.11328-0.054688 0.25-0.007813 0.30078 0.10547 0.054688 0.11328 0.007813 0.25-0.10156 0.30469-0.03125 0.015625-0.77734 0.39453-0.77734 1.1641 0 0.125-0.10156 0.23047-0.22656 0.23047z" fill="#f2aaa8"/>
<path d="m23.836 11.414c-0.03125 0-0.066407-0.007812-0.097657-0.023437-0.042969-0.019531-1.0312-0.51562-1.0312-1.5742 0-0.125 0.10156-0.23047 0.22656-0.23047s0.22656 0.10547 0.22656 0.23047c0 0.77734 0.76953 1.1602 0.77734 1.1641 0.10938 0.054687 0.15625 0.19141 0.10547 0.30469-0.039063 0.082032-0.12109 0.12891-0.20703 0.12891z" fill="#f2aaa8"/>
<path d="m22.027 11.414c-0.082032 0-0.16406-0.046874-0.20312-0.12891-0.054688-0.11328-0.007813-0.25 0.10547-0.30469 0.03125-0.015625 0.77734-0.39453 0.77734-1.1641 0-0.125 0.10156-0.23047 0.22656-0.23047s0.22656 0.10547 0.22656 0.23047c0 1.0586-0.99219 1.5547-1.0352 1.5742-0.03125 0.015625-0.0625 0.023437-0.097656 0.023437z" fill="#f2aaa8"/>
<path d="m22.934 12.785c-0.125 0-0.22656-0.10547-0.22656-0.23047 0-0.77734-0.76953-1.1602-0.77734-1.1641-0.11328-0.054687-0.16016-0.19141-0.10547-0.30469 0.054687-0.11328 0.19141-0.16016 0.30078-0.10547 0.042969 0.019531 1.0352 0.51562 1.0352 1.5742 0 0.125-0.10156 0.23047-0.22656 0.23047z" fill="#f2aaa8"/>
<path d="m11.852 17.996c-0.125 0-0.22656-0.10156-0.22656-0.23047 0-1.0586 0.98828-1.5547 1.0312-1.5742 0.11328-0.054687 0.24609-0.007812 0.30078 0.10547 0.054688 0.11328 0.007813 0.25-0.10156 0.30469-0.03125 0.015626-0.77734 0.39453-0.77734 1.1641 0 0.12891-0.10156 0.23047-0.22656 0.23047z" fill="#f2aaa8"/>
<path d="m12.754 16.625c-0.03125 0-0.066406-0.007812-0.097656-0.023438-0.042969-0.019531-1.0312-0.51172-1.0312-1.5742 0-0.125 0.10156-0.22656 0.22656-0.22656s0.22656 0.10156 0.22656 0.22656c0 0.77734 0.76953 1.1602 0.77344 1.1641 0.11328 0.054688 0.16016 0.19141 0.10547 0.30469-0.035156 0.082031-0.11719 0.12891-0.20312 0.12891z" fill="#f2aaa8"/>
<path d="m10.945 16.625c-0.082031 0-0.16406-0.046875-0.20312-0.12891-0.054688-0.11328-0.007813-0.25 0.10547-0.30469 0.03125-0.015625 0.77734-0.39453 0.77734-1.1641 0-0.125 0.10156-0.22656 0.22656-0.22656s0.22656 0.10156 0.22656 0.22656c0 1.0625-0.99219 1.5547-1.0352 1.5742-0.03125 0.015626-0.0625 0.023438-0.097657 0.023438z" fill="#f2aaa8"/>
<path d="m11.852 17.996c-0.125 0-0.22656-0.10156-0.22656-0.23047 0-0.77344-0.76953-1.1602-0.77734-1.1641-0.11328-0.054687-0.16016-0.19141-0.10547-0.30469 0.054687-0.11328 0.19141-0.16016 0.30078-0.10547 0.042969 0.019532 1.0352 0.51562 1.0352 1.5742 0 0.12891-0.10156 0.23047-0.22656 0.23047z" fill="#f2aaa8"/>
<path d="m11.277 4.5195c-0.035156 0-0.070313-0.007812-0.10547-0.023437l-0.45312-0.24219-0.45312 0.24219c-0.074219 0.039062-0.16797 0.03125-0.23828-0.019532-0.070313-0.050781-0.10547-0.13672-0.089844-0.22266l0.085938-0.51172-0.36719-0.35938c-0.0625-0.0625-0.082031-0.15234-0.054688-0.23437 0.023438-0.082032 0.09375-0.14453 0.17969-0.15625l0.50781-0.074219 0.22656-0.46484c0.078125-0.15234 0.33203-0.15234 0.40625 0l0.22656 0.46484 0.50781 0.074219c0.085938 0.011718 0.15625 0.074218 0.18359 0.15625 0.027344 0.082031 0.003906 0.17187-0.058594 0.23437l-0.36719 0.35938 0.089844 0.51172c0.011719 0.085938-0.023437 0.17188-0.09375 0.22266-0.039062 0.03125-0.085937 0.042969-0.13281 0.042969zm-0.55859-0.75391c0.035156 0 0.074219 0.011719 0.10547 0.027344l0.15234 0.082031-0.027343-0.17188c-0.011719-0.074219 0.011719-0.14844 0.066406-0.20312l0.12109-0.12109-0.17188-0.027344c-0.070313-0.007812-0.13672-0.054687-0.16797-0.125l-0.078125-0.15625-0.074219 0.15625c-0.035156 0.070313-0.097656 0.11719-0.17188 0.125l-0.17188 0.027344 0.125 0.12109c0.050781 0.054688 0.078125 0.12891 0.066407 0.20312l-0.03125 0.17188 0.15234-0.082031c0.035157-0.015625 0.070313-0.027344 0.10547-0.027344z" fill="#f2aaa8"/>
<g clip-path="url(#f)">
<path d="m23.945 28.262c-0.035156 0-0.074218-0.007813-0.10547-0.027344l-0.45312-0.23828-0.45312 0.23828c-0.078125 0.042969-0.17188 0.035156-0.23828-0.015625-0.070312-0.050781-0.10547-0.13672-0.089843-0.22266l0.085937-0.51172-0.36719-0.35938c-0.0625-0.0625-0.085938-0.15234-0.058594-0.23438 0.027344-0.085937 0.097656-0.14453 0.18359-0.15625l0.50781-0.074219 0.22656-0.46484c0.035156-0.078124 0.11719-0.12891 0.20312-0.12891 0.085937 0 0.16406 0.050782 0.20312 0.12891l0.22656 0.46484 0.50781 0.074219c0.082031 0.011719 0.15625 0.070313 0.17969 0.15625 0.027344 0.082031 0.003906 0.17188-0.054687 0.23438l-0.36719 0.35938 0.085938 0.51172c0.015625 0.085937-0.019531 0.17188-0.089844 0.22266-0.039063 0.027344-0.085937 0.042969-0.13281 0.042969zm-0.55859-0.75391c0.035156 0 0.070312 0.007813 0.10547 0.027344l0.15234 0.082032-0.03125-0.17188c-0.011719-0.074218 0.011719-0.15234 0.066407-0.20312l0.125-0.12109-0.17188-0.027344c-0.074218-0.011719-0.13672-0.058594-0.17187-0.125l-0.074219-0.15625-0.078125 0.15625c-0.03125 0.066406-0.097656 0.11328-0.17188 0.125l-0.16797 0.027344 0.12109 0.12109c0.054687 0.050781 0.078125 0.12891 0.066406 0.19922l-0.03125 0.17578 0.15625-0.082032c0.03125-0.019531 0.066406-0.027344 0.10547-0.027344z" fill="#f2aaa8"/>
</g>
<g clip-path="url(#d)">
<path d="m28.812 21.914c-0.125 0-0.22656-0.10156-0.22656-0.22656v-1.8281c0-0.125 0.10156-0.22656 0.22656-0.22656s0.22656 0.10156 0.22656 0.22656v1.8281c0 0.125-0.10156 0.22656-0.22656 0.22656z" fill="#f2aaa8"/>
</g>
<g clip-path="url(#b)">
<path d="m29.266 21h-0.90625c-0.125 0-0.22266-0.10156-0.22266-0.22656s0.097656-0.22656 0.22266-0.22656h0.90625c0.125 0 0.22656 0.10156 0.22656 0.22656s-0.10156 0.22656-0.22656 0.22656z" fill="#f2aaa8"/>
</g>
<path d="m2.5781 27.395c-0.125 0-0.22656-0.10156-0.22656-0.23047v-1.8242c0-0.12891 0.10156-0.23047 0.22656-0.23047s0.22656 0.10156 0.22656 0.23047v1.8242c0 0.12891-0.10156 0.23047-0.22656 0.23047z" fill="#f2aaa8"/>
<path d="m3.0312 26.48h-0.90625c-0.125 0-0.22656-0.10156-0.22656-0.23047 0-0.125 0.10156-0.22656 0.22656-0.22656h0.90625c0.125 0 0.22656 0.10156 0.22656 0.22656 0 0.12891-0.10156 0.23047-0.22656 0.23047z" fill="#f2aaa8"/>
<path d="m22.48 6.3906c-0.125 0-0.22656-0.10156-0.22656-0.22656v-1.8281c0-0.125 0.10156-0.22656 0.22656-0.22656s0.22656 0.10156 0.22656 0.22656v1.8281c0 0.125-0.10156 0.22656-0.22656 0.22656z" fill="#f2aaa8"/>
<path d="m22.934 5.4805h-0.90625c-0.125 0-0.22656-0.10547-0.22656-0.23047s0.10156-0.22656 0.22656-0.22656h0.90625c0.125 0 0.22656 0.10156 0.22656 0.22656s-0.10156 0.23047-0.22656 0.23047z" fill="#f2aaa8"/>
</svg>
