<?xml version="1.0" encoding="UTF-8"?>
<svg width="40" height="40" version="1.0" viewBox="0 0 30 30" xmlns="http://www.w3.org/2000/svg" zoomAndPan="magnify">
<defs>
<clipPath id="b">
<path d="m17 2h12.516v24h-12.516z"/>
</clipPath>
<clipPath id="c">
<path d="m18 18h5v8.1289h-5z"/>
</clipPath>
<clipPath id="a">
<path d="m0.48438 9h15.516v17.129h-15.516z"/>
</clipPath>
</defs>
<g clip-path="url(#b)">
<path d="m26.914 25.219c-0.36719 0-0.66797-0.14453-0.90234-0.43359l-4.5273-5.6445c-0.054687 0.003906-0.10547 0.007813-0.16016 0.007813-0.42969 0-0.81641-0.13281-1.1562-0.40234-0.33984-0.26953-0.5625-0.61719-0.66797-1.043-0.91406-3.7422-0.17188-5.6836 0.40234-6.543-0.17578-0.42578-0.67188-1.8828-2.293-7.0938-0.078125-0.25781-0.050781-0.5 0.078125-0.73438 0.12891-0.23047 0.32031-0.37891 0.57812-0.44531 0.24219-0.054688 0.47266-0.019531 0.6875 0.10938s0.35547 0.3125 0.42578 0.55859l1.9219 6.3359 2.4062 0.88672 5.2148 3.0898c0.21484 0.12109 0.36328 0.30078 0.4375 0.53906s0.0625 0.47266-0.042969 0.69922c-0.058594 0.11328-0.13672 0.21094-0.23438 0.29688-0.09375 0.082031-0.20703 0.14062-0.32812 0.17578-0.12109 0.039063-0.24609 0.050781-0.37109 0.035156s-0.24219-0.058593-0.35547-0.12109l-4.6641-2.7656c-0.039062 0.09375-0.082031 0.1875-0.13281 0.27344-0.21484 0.33984-0.34375 0.71094-0.38672 1.1133-0.035156 0.89062 0.066406 1.7656 0.29688 2.625 0.0625 0.25781 0.074219 0.51953 0.035156 0.78125l4.6406 5.7852c0.14062 0.17578 0.22266 0.37891 0.25 0.60156 0.023438 0.22266-0.007812 0.4375-0.10547 0.64453-0.097657 0.20312-0.23828 0.36328-0.42578 0.48438-0.19141 0.12109-0.39453 0.18359-0.62109 0.18359zm-5.3438-6.4922c0.0625 0 0.11328 0.027344 0.15234 0.074219l4.5977 5.7305c0.13672 0.16016 0.30859 0.25391 0.51563 0.27344 0.20703 0.023437 0.39453-0.03125 0.55859-0.16016 0.16406-0.13281 0.25781-0.30859 0.27734-0.51953 0.023437-0.21094-0.03125-0.39844-0.16406-0.56641l-4.6992-5.8555c-0.039063-0.050781-0.050782-0.10547-0.039063-0.16797 0.046875-0.23438 0.042969-0.46875-0.015625-0.70312-0.23828-0.90234-0.34375-1.8164-0.30469-2.75 0.046875-0.46484 0.19531-0.89062 0.44141-1.2852 0.074219-0.12891 0.13281-0.26953 0.16406-0.41797 0.015624-0.0625 0.054687-0.10938 0.11719-0.13672 0.058594-0.027344 0.12109-0.023438 0.17578 0.011718l4.8828 2.8906c0.12891 0.074219 0.26562 0.089844 0.41016 0.046875 0.14453-0.042968 0.25-0.13281 0.32031-0.26562 0.058593-0.13281 0.0625-0.26562 0.015624-0.40234-0.042968-0.13672-0.12891-0.24219-0.25391-0.3125l-5.3047-3.1289-2.3438-0.84766c-0.0625-0.019531-0.10156-0.066406-0.12109-0.12891l-1.9531-6.4336c-0.039062-0.14062-0.12109-0.24609-0.24219-0.32422-0.125-0.074218-0.25391-0.097656-0.39453-0.070312-0.14844 0.035156-0.25781 0.12109-0.32812 0.25391-0.074218 0.13281-0.089844 0.26953-0.046875 0.41406 0.83984 2.6992 2.1367 6.7969 2.2969 7.125 0.054688 0.078126 0.054688 0.15625 0 0.23438-0.54297 0.75781-1.3086 2.582-0.39844 6.3047 0.082031 0.33203 0.25391 0.60938 0.52344 0.82031 0.26953 0.21484 0.57422 0.32031 0.91406 0.32031 0.074219 0 0.14453-0.007812 0.21875-0.019531 0.007812 0 0.019531 0 0.027343-0.003907z" fill="#f2aaa8"/>
</g>
<g clip-path="url(#c)">
<path d="m19.637 26.066c-0.085938 0-0.17578-0.011718-0.26172-0.03125-0.14844-0.035156-0.28516-0.097656-0.41016-0.1875s-0.23047-0.20312-0.3125-0.33594c-0.078125-0.12891-0.13281-0.27344-0.16016-0.42578-0.023438-0.15625-0.019532-0.30859 0.015624-0.45703l1.4297-6.2344c0.03125-0.12891 0.10938-0.17969 0.23828-0.14844 0.12891 0.03125 0.17578 0.10938 0.14844 0.23828l-1.4297 6.2344c-0.046875 0.20703-0.015625 0.40234 0.09375 0.58203 0.11328 0.18359 0.26953 0.29688 0.47656 0.34766 0.058594 0.011718 0.11328 0.019531 0.17188 0.019531 0.17969 0 0.33594-0.058594 0.47656-0.17188 0.14062-0.10938 0.22656-0.25391 0.26562-0.42969l1.3281-5.7773c0.027344-0.13281 0.10547-0.18359 0.23438-0.15234 0.13281 0.03125 0.17969 0.11328 0.14844 0.24219l-1.3242 5.7773c-0.058594 0.26562-0.19531 0.48438-0.40625 0.65625-0.21094 0.16797-0.45312 0.25391-0.72266 0.25391z" fill="#f2aaa8"/>
</g>
<path d="m23.711 10.016c-0.25 0-0.49219-0.050781-0.72656-0.14844-0.23047-0.097657-0.4375-0.23438-0.61328-0.41406-0.17969-0.17969-0.31641-0.38672-0.41406-0.625-0.09375-0.23438-0.14453-0.48047-0.14453-0.73438s0.050781-0.5 0.14453-0.73438c0.097657-0.23438 0.23438-0.44141 0.41406-0.62109 0.17578-0.17969 0.38281-0.32031 0.61328-0.41797 0.23438-0.097656 0.47656-0.14453 0.72656-0.14453 0.25391 0 0.49609 0.046875 0.72656 0.14453 0.23438 0.097657 0.44141 0.23828 0.61719 0.41797 0.17969 0.17969 0.31641 0.38672 0.41406 0.62109 0.09375 0.23438 0.14453 0.48047 0.14453 0.73438-0.003906 0.25391-0.050781 0.5-0.14844 0.73438-0.09375 0.23828-0.23047 0.44531-0.41016 0.625-0.17969 0.17969-0.38281 0.31641-0.61719 0.41406-0.23047 0.097656-0.47266 0.14844-0.72656 0.14844zm0-3.4414c-0.19922 0-0.39063 0.039062-0.57422 0.11719-0.18359 0.074219-0.34766 0.1875-0.48828 0.32812-0.14063 0.14453-0.24609 0.30859-0.32422 0.49219-0.078125 0.1875-0.11328 0.38281-0.11328 0.58203 0 0.20312 0.035156 0.39844 0.11328 0.58203 0.078125 0.1875 0.18359 0.35156 0.32422 0.49219 0.14062 0.14453 0.30469 0.25391 0.48828 0.33203 0.18359 0.078125 0.375 0.11328 0.57422 0.11328 0.20312 0 0.39453-0.035156 0.57812-0.11328 0.18359-0.078125 0.34375-0.1875 0.48828-0.33203 0.14062-0.14062 0.24609-0.30469 0.32422-0.49219 0.078126-0.18359 0.11328-0.37891 0.11328-0.58203 0-0.19922-0.039063-0.39453-0.11328-0.58203-0.078124-0.18359-0.18359-0.34766-0.32812-0.49219-0.14063-0.14062-0.30078-0.25-0.48438-0.32812-0.18359-0.078125-0.37891-0.11719-0.57812-0.11719z" fill="#f2aaa8"/>
<g clip-path="url(#a)">
<path d="m8.4336 26.066c-0.17188 0-0.32812-0.042968-0.48047-0.12109-0.14844-0.082031-0.26953-0.19531-0.36328-0.33984-0.09375-0.14062-0.14844-0.30078-0.16406-0.46875-0.015625-0.17188 0.011719-0.33594 0.078125-0.49609l1.5508-3.668-1.2656-1.7266-0.58984 1.8555c-0.027344 0.13672-0.082031 0.26172-0.16406 0.375l-2.2891 3.2031c-0.082032 0.10937-0.17578 0.19922-0.29297 0.26953-0.11328 0.070312-0.23438 0.11719-0.36719 0.13672-0.13281 0.019531-0.26172 0.015624-0.39063-0.015626-0.13281-0.03125-0.25-0.085937-0.35937-0.16406-0.10547-0.082031-0.19531-0.17578-0.26563-0.29297-0.070312-0.11328-0.11719-0.23828-0.14062-0.37109-0.019532-0.13281-0.015626-0.26563 0.015624-0.39844 0.027344-0.12891 0.082032-0.25 0.16016-0.35938l2.1523-3.0195 0.59766-9.0664-1.6836 1.7891c-0.15234 0.16016-0.33984 0.25-0.55859 0.26953s-0.41406-0.035156-0.59375-0.16797l-2.1484-1.5898c-0.19531-0.14453-0.30859-0.33984-0.34766-0.58203-0.035157-0.24219 0.015624-0.46094 0.16016-0.65625 0.14453-0.19922 0.33594-0.31641 0.57422-0.35156 0.23828-0.039063 0.45313 0.015625 0.64844 0.16016l1.5312 1.1328 1.6172-1.7188c0.21484-0.22656 0.47656-0.31641 0.78516-0.25781l3.8047 0.6875c0.32422 0.058594 0.54297 0.24219 0.66016 0.55078l1.1719 3.0508 2.4688-0.56641c0.23438-0.054688 0.45703-0.019532 0.66016 0.11328 0.20312 0.12891 0.33594 0.3125 0.38672 0.55078 0.054687 0.23828 0.015624 0.46094-0.11328 0.66797s-0.30859 0.33984-0.54688 0.39062l-3.2031 0.74219c-0.21094 0.042969-0.41406 0.015625-0.60547-0.085937-0.19141-0.10156-0.32422-0.25391-0.40625-0.45703l-0.78906-2.0625v4.5156l1.7227 2.8125c0.1875 0.30078 0.21094 0.61328 0.074219 0.94141l-1.7617 4.168c-0.082031 0.1875-0.20312 0.33984-0.375 0.45313-0.16797 0.10937-0.35156 0.16797-0.55469 0.16797zm-0.71875-7.4531c0.066406 0 0.12109 0.023438 0.16016 0.078125l1.5625 2.1328c0.046875 0.0625 0.054688 0.12891 0.023438 0.19922l-1.5938 3.7773c-0.066407 0.15625-0.066407 0.31641-0.003907 0.47656 0.0625 0.15625 0.17188 0.26953 0.32812 0.33984 0.15625 0.0625 0.3125 0.0625 0.46875 0s0.26953-0.17188 0.33984-0.32813l1.7617-4.1719c0.082031-0.19531 0.066406-0.38672-0.042969-0.57031l-1.7578-2.8633c-0.019532-0.03125-0.027344-0.066406-0.027344-0.10547v-5.6406c0-0.10938 0.050781-0.17578 0.16016-0.19531 0.10547-0.019532 0.17969 0.023437 0.21875 0.125l1.1758 3.0586c0.042969 0.10938 0.11719 0.19531 0.22266 0.25 0.10156 0.054688 0.21484 0.070313 0.32812 0.046875l3.207-0.73828c0.12891-0.03125 0.22656-0.10156 0.29688-0.21484 0.074219-0.11328 0.09375-0.23828 0.0625-0.36719-0.027344-0.13281-0.097657-0.23047-0.21094-0.30469-0.11328-0.070312-0.23438-0.089844-0.36328-0.0625l-2.6328 0.60938c-0.10938 0.023438-0.1875-0.015625-0.23047-0.125l-1.2305-3.2109c-0.066406-0.16797-0.1875-0.26953-0.36328-0.30469l-3.8047-0.6875c-0.16797-0.03125-0.3125 0.019532-0.42969 0.14453l-1.7383 1.8438c-0.082031 0.085937-0.16797 0.09375-0.26172 0.023437l-1.668-1.2344c-0.10547-0.082031-0.22656-0.10938-0.35547-0.089844-0.13281 0.019532-0.23438 0.085938-0.3125 0.19141-0.078125 0.10938-0.10938 0.23047-0.089844 0.36328 0.019532 0.13281 0.085938 0.23828 0.19141 0.31641l2.1484 1.5898c0.097656 0.074218 0.20703 0.10547 0.32812 0.09375 0.11719-0.011719 0.21875-0.058594 0.30469-0.14844l1.8984-2.0117c0.046875-0.054688 0.10547-0.074219 0.17578-0.0625l0.15234 0.027343c0.11719 0.023438 0.17188 0.09375 0.16406 0.21094l-0.62891 9.4766c0 0.039063-0.011719 0.074219-0.035157 0.10547l-2.1875 3.0625c-0.097656 0.13672-0.13672 0.29297-0.10938 0.46094 0.027344 0.17187 0.10938 0.30469 0.25 0.40625 0.13672 0.10156 0.28906 0.13672 0.45703 0.10937 0.16797-0.027343 0.30078-0.10937 0.39844-0.25l2.293-3.207c0.050781-0.070312 0.085937-0.15234 0.10156-0.23828l0.71484-2.25c0.023438-0.078125 0.074219-0.12109 0.15234-0.13672h0.03125z" fill="#f2aaa8"/>
</g>
<path d="m8.5078 9.2969c-0.25781 0-0.50391-0.050781-0.73828-0.14844-0.23828-0.097657-0.44531-0.24219-0.62891-0.42188-0.17969-0.18359-0.32031-0.39453-0.41797-0.63281-0.097656-0.24219-0.14453-0.48828-0.14453-0.75 0-0.25781 0.046875-0.50391 0.14453-0.74609 0.097656-0.23828 0.23828-0.44922 0.41797-0.63281 0.18359-0.18359 0.39062-0.32422 0.62891-0.42188 0.23438-0.097657 0.48047-0.14844 0.73828-0.14844 0.25391 0 0.5 0.050781 0.73438 0.14844 0.23828 0.097656 0.44531 0.23828 0.62891 0.42188 0.17969 0.18359 0.32031 0.39453 0.41797 0.63281 0.097657 0.24219 0.14453 0.48828 0.14453 0.74609 0 0.26172-0.046875 0.50781-0.14453 0.74609-0.10156 0.24219-0.23828 0.45312-0.41797 0.63281-0.18359 0.18359-0.39062 0.32422-0.62891 0.42578-0.23438 0.097656-0.48047 0.14844-0.73438 0.14844zm0-3.5039c-0.20312 0-0.40234 0.042969-0.58984 0.12109-0.1875 0.078126-0.35156 0.1875-0.49609 0.33594-0.14453 0.14453-0.25391 0.3125-0.33203 0.50391-0.078125 0.1875-0.11719 0.38672-0.11719 0.58984 0 0.20703 0.039063 0.40625 0.11719 0.59375 0.078125 0.19141 0.1875 0.35938 0.33203 0.50391 0.14453 0.14453 0.30859 0.25781 0.49609 0.33594s0.38281 0.12109 0.58594 0.12109c0.20703 0 0.40234-0.042969 0.58984-0.12109s0.35156-0.19141 0.49609-0.33594c0.14453-0.14453 0.25391-0.3125 0.33203-0.50391 0.078125-0.1875 0.11719-0.38672 0.11719-0.59375 0-0.20312-0.039062-0.40234-0.11719-0.58984-0.078125-0.19141-0.1875-0.35938-0.33203-0.50391-0.14453-0.14453-0.30859-0.25781-0.49609-0.33594-0.1875-0.078124-0.38281-0.11719-0.58594-0.12109z" fill="#f2aaa8"/>
<path d="m11.988 5.4297c-0.16406 0.019531-0.32031-0.015626-0.46484-0.097657-0.14453-0.085937-0.25-0.20312-0.31641-0.35547-0.11719-0.39453 0.23047-0.83984 0.79688-1.0156 0.23828-0.078126 0.48438-0.089844 0.73047-0.035157 0.24219 0.046875 0.40234 0.18359 0.48828 0.41797 0.12109 0.39062-0.22656 0.83594-0.79297 1.0156-0.14453 0.042969-0.29297 0.066406-0.44141 0.070313zm0.46094-1.1367c-0.11328 0-0.22266 0.019531-0.32812 0.054687-0.36328 0.10938-0.57812 0.36328-0.53516 0.51172 0.046874 0.14844 0.36719 0.23047 0.72656 0.11719 0.35938-0.11328 0.57812-0.36328 0.53125-0.51172-0.042969-0.085938-0.11328-0.13672-0.20703-0.14844-0.0625-0.015625-0.125-0.023437-0.1875-0.023437z" fill="#f2aaa8"/>
<path d="m14.996 4.3281c-0.097656 0-0.19141-0.011719-0.28516-0.035156-0.24219-0.046875-0.40625-0.18359-0.49219-0.41797-0.058594-0.24219-0.003906-0.44922 0.17188-0.625 0.17188-0.1875 0.37891-0.31641 0.62109-0.38672 0.56641-0.17578 1.1016-0.007812 1.2227 0.38281 0.058594 0.23828 0.003906 0.44922-0.17188 0.625-0.17188 0.1875-0.37891 0.31641-0.62109 0.38672-0.14453 0.046876-0.29297 0.070313-0.44531 0.070313zm0.46484-1.1367c-0.11328 0-0.22266 0.019532-0.33203 0.054688-0.17188 0.046875-0.31641 0.14062-0.44141 0.26953-0.074219 0.066406-0.10156 0.14453-0.089844 0.24219 0.042969 0.085938 0.11328 0.13672 0.21094 0.14844 0.37109 0.070312 0.69141-0.03125 0.95703-0.30078 0.074219-0.066407 0.10156-0.14453 0.089844-0.24219-0.03125-0.10156-0.1875-0.17188-0.39453-0.17188z" fill="#f2aaa8"/>
<path d="m13.035 4.6055c-0.13281 0-0.19922-0.066407-0.19922-0.20312v-3c0-0.21484 0.10156-0.35938 0.30469-0.42969l2.5234-0.88281c0.070313-0.027344 0.13672-0.03125 0.21094-0.023438 0.070312 0.011719 0.13672 0.039063 0.19531 0.082032 0.058594 0.042968 0.10547 0.09375 0.13672 0.16016 0.035157 0.066406 0.050781 0.13672 0.050781 0.20703v2.7891c0 0.13281-0.066406 0.19922-0.19922 0.19922-0.12891 0-0.19531-0.066406-0.19531-0.19922v-2.7891c0-0.015625-0.007812-0.03125-0.023437-0.042969-0.015625-0.011718-0.03125-0.011718-0.046875-0.007812l-2.5234 0.88672c-0.027343 0.007813-0.039062 0.023438-0.039062 0.050782v3c0 0.13281-0.0625 0.19922-0.19531 0.20312z" fill="#f2aaa8"/>
<path d="m23.328 4.8555c-0.16016-0.003907-0.32031-0.03125-0.47266-0.082031-0.55859-0.19141-0.89844-0.64453-0.76953-1.0312 0.089843-0.23047 0.25781-0.36719 0.5-0.40625 0.53125-0.097657 0.97656 0.054687 1.3438 0.45703 0.16797 0.17969 0.22266 0.38672 0.15625 0.625-0.089844 0.23438-0.25781 0.36719-0.5 0.40625-0.085938 0.019531-0.17188 0.03125-0.25781 0.03125zm-0.48828-1.1484c-0.054688 0-0.10938 0.003907-0.16797 0.019531-0.09375 0.007813-0.16406 0.054688-0.21094 0.14063-0.050782 0.14844 0.16406 0.40625 0.51953 0.52734 0.16797 0.058594 0.33984 0.074219 0.51562 0.039063 0.097656-0.007813 0.16797-0.054688 0.21484-0.14062 0.015624-0.097657-0.015626-0.17969-0.085938-0.24609-0.12109-0.13281-0.26562-0.22656-0.43359-0.28125-0.11328-0.039063-0.23047-0.058594-0.35156-0.058594z" fill="#f2aaa8"/>
<path d="m26.41 5.7383c-0.16406 0-0.32031-0.027343-0.47266-0.078125-0.5625-0.19141-0.90234-0.64453-0.77344-1.0352 0.12891-0.38672 0.67188-0.54297 1.2305-0.35156 0.24219 0.078124 0.44531 0.21094 0.61328 0.40234 0.1875 0.17578 0.23828 0.38672 0.15625 0.62891-0.078124 0.24219-0.24609 0.37891-0.49609 0.40625-0.085938 0.019531-0.17188 0.027343-0.25781 0.027343zm-0.48828-1.1484c-0.19922 0-0.34766 0.066406-0.38281 0.16406-0.046874 0.14844 0.16406 0.40234 0.52344 0.52344 0.16797 0.0625 0.33984 0.074218 0.51562 0.042968 0.09375-0.007812 0.16797-0.058593 0.21094-0.14453 0.015626-0.09375-0.011718-0.17578-0.082031-0.24219-0.12109-0.13281-0.26562-0.22656-0.4375-0.28125-0.11328-0.039063-0.23047-0.058594-0.34766-0.0625z" fill="#f2aaa8"/>
<path d="m26.988 5.4492c-0.078125 0-0.13672-0.035157-0.17578-0.10938-0.035156-0.074219-0.03125-0.14062 0.015625-0.20703l1.6094-2.2656c0.011719-0.011719 0.011719-0.03125 0.007812-0.046876-0.007812-0.019531-0.019531-0.027343-0.035156-0.035156l-2.5625-0.76953c-0.023437-0.007813-0.042968 0-0.054687 0.019531l-1.7344 2.4375c-0.078125 0.10938-0.16797 0.12109-0.27734 0.046875-0.10547-0.078125-0.12109-0.17188-0.042969-0.28125l1.7305-2.4375c0.125-0.17578 0.28906-0.23047 0.49219-0.16797l2.5625 0.76953c0.070312 0.023437 0.12891 0.058594 0.18359 0.10938 0.050781 0.050781 0.089844 0.10938 0.11328 0.17969 0.023438 0.070313 0.027344 0.14062 0.019532 0.21094-0.011719 0.074218-0.039063 0.14062-0.082032 0.19922l-1.6094 2.2656c-0.039063 0.054687-0.089844 0.082031-0.16016 0.082031z" fill="#f2aaa8"/>
</svg>
