<svg xmlns="http://www.w3.org/2000/svg" xmlns:xlink="http://www.w3.org/1999/xlink" width="500" zoomAndPan="magnify" viewBox="0 0 375 374.999991" height="500" preserveAspectRatio="xMidYMid meet" version="1.0"><defs><g/></defs><g fill="#7e6449" fill-opacity="1"><g transform="translate(16.608347, 160.761485)"><g><path d="M 42.070312 -34.238281 L 42.070312 -34.484375 L 33.300781 -34.484375 L 21.527344 -6.648438 L 7.585938 -34.484375 L 0.492188 -34.484375 C 2.609375 -32.90625 3.546875 -31.429688 4.484375 -29.558594 L 4.484375 -7.734375 C 4.484375 -1.035156 2.757812 -0.492188 0.738281 -0.246094 L 0.738281 0 L 9.210938 0 L 9.210938 -0.246094 C 7.191406 -0.492188 5.46875 -2.019531 5.46875 -8.71875 L 5.46875 -27.585938 L 19.558594 0.542969 L 33.300781 -31.921875 L 33.300781 -2.808594 C 33.300781 -1.035156 31.578125 -0.492188 29.558594 -0.246094 L 29.558594 0 L 42.070312 0 L 42.070312 -0.246094 C 40.050781 -0.492188 38.324219 -1.035156 38.324219 -2.808594 L 38.324219 -31.675781 C 38.324219 -33.449219 40.050781 -33.992188 42.070312 -34.238281 Z M 42.070312 -34.238281 "/></g></g></g><g fill="#7e6449" fill-opacity="1"><g transform="translate(59.4172, 160.761485)"><g><path d="M 25.417969 -4.039062 L 25.417969 -22.363281 C 22.957031 -23.597656 20.394531 -24.1875 17.242188 -24.1875 C 6.996094 -24.1875 1.96875 -18.078125 1.96875 -10.984375 C 1.96875 -3.84375 6.996094 0.34375 13.84375 0.34375 C 16.15625 0.34375 18.128906 -0.148438 19.703125 -0.984375 C 19.703125 -0.9375 19.65625 -0.9375 19.65625 -0.9375 L 27.339844 0.589844 L 27.339844 0.441406 C 25.863281 -0.542969 25.417969 -1.378906 25.417969 -4.039062 Z M 6.75 -13.644531 C 6.75 -19.457031 9.703125 -23.25 14.777344 -23.25 C 17.488281 -23.25 19.410156 -22.117188 20.886719 -20.542969 L 20.886719 -4.679688 C 20.886719 -3.890625 20.835938 -3.25 20.789062 -2.757812 C 19.804688 -1.675781 18.621094 -1.035156 16.699219 -1.035156 C 11.035156 -1.035156 6.75 -6.601562 6.75 -13.644531 Z M 6.75 -13.644531 "/></g></g></g><g fill="#7e6449" fill-opacity="1"><g transform="translate(88.728211, 160.761485)"><g><path d="M 15.863281 -24.136719 C 12.5625 -24.136719 9.804688 -22.070312 8.671875 -18.917969 L 8.03125 -18.917969 L 8.03125 -20.492188 L 8.277344 -24.136719 L 0.492188 -23.398438 L 0.492188 -23.203125 C 1.527344 -23.105469 2.808594 -22.757812 3.496094 -22.316406 L 3.496094 -3.398438 L 3.25 0 L 9.949219 0 C 8.472656 -0.984375 8.03125 -1.921875 8.03125 -4.582031 L 8.03125 -14.777344 C 8.523438 -18.226562 10.097656 -21.378906 12.609375 -21.378906 C 14.1875 -21.378906 15.371094 -19.949219 14.039062 -16.652344 L 14.238281 -16.652344 L 18.472656 -23.546875 C 17.539062 -23.992188 16.75 -24.136719 15.863281 -24.136719 Z M 15.863281 -24.136719 "/></g></g></g><g fill="#7e6449" fill-opacity="1"><g transform="translate(107.940468, 160.761485)"><g><path d="M 3.351562 -27.292969 L 15.863281 -33.992188 L 13.941406 -36.550781 L 3.203125 -27.4375 Z M 3.25 0 L 9.949219 0 C 8.472656 -0.984375 8.03125 -1.921875 8.03125 -4.582031 L 8.03125 -24.136719 L 0.492188 -23.398438 L 0.492188 -23.203125 C 1.527344 -23.105469 2.808594 -22.757812 3.496094 -22.316406 L 3.496094 -3.398438 Z M 3.25 0 "/></g></g></g><g fill="#7e6449" fill-opacity="1"><g transform="translate(119.3693, 160.761485)"><g><path d="M 25.417969 -4.039062 L 25.417969 -22.363281 C 22.957031 -23.597656 20.394531 -24.1875 17.242188 -24.1875 C 6.996094 -24.1875 1.96875 -18.078125 1.96875 -10.984375 C 1.96875 -3.84375 6.996094 0.34375 13.84375 0.34375 C 16.15625 0.34375 18.128906 -0.148438 19.703125 -0.984375 C 19.703125 -0.9375 19.65625 -0.9375 19.65625 -0.9375 L 27.339844 0.589844 L 27.339844 0.441406 C 25.863281 -0.542969 25.417969 -1.378906 25.417969 -4.039062 Z M 6.75 -13.644531 C 6.75 -19.457031 9.703125 -23.25 14.777344 -23.25 C 17.488281 -23.25 19.410156 -22.117188 20.886719 -20.542969 L 20.886719 -4.679688 C 20.886719 -3.890625 20.835938 -3.25 20.789062 -2.757812 C 19.804688 -1.675781 18.621094 -1.035156 16.699219 -1.035156 C 11.035156 -1.035156 6.75 -6.601562 6.75 -13.644531 Z M 6.75 -13.644531 "/></g></g></g><g fill="#7e6449" fill-opacity="1"><g transform="translate(148.680305, 160.761485)"><g/></g></g><g fill="#7e6449" fill-opacity="1"><g transform="translate(158.532739, 160.761485)"><g><path d="M 1.871094 -34.484375 L 1.871094 -34.238281 C 4.039062 -33.992188 5.761719 -33.449219 5.761719 -31.675781 L 5.761719 0.296875 C 5.761719 5.515625 4.238281 8.277344 -0.246094 10.445312 L -0.148438 10.542969 C 4.828125 9.113281 8.964844 6.207031 11.082031 2.957031 C 10.835938 1.527344 10.789062 -0.246094 10.789062 -3.054688 L 10.789062 -31.675781 C 10.789062 -33.449219 12.511719 -33.992188 14.53125 -34.238281 L 14.53125 -34.484375 Z M 1.871094 -34.484375 "/></g></g></g><g fill="#7e6449" fill-opacity="1"><g transform="translate(173.804031, 160.761485)"><g><path d="M 24.730469 -4.925781 C 23.203125 -2.808594 19.164062 -1.824219 16.550781 -1.824219 C 10.640625 -1.824219 6.796875 -6.945312 6.75 -13.695312 L 20.835938 -13.695312 C 26.996094 -13.695312 25.863281 -24.1875 15.617188 -24.1875 C 8.472656 -24.1875 1.96875 -19.3125 1.96875 -11.378906 C 1.96875 -3.941406 7.585938 0.34375 14.433594 0.34375 C 19.507812 0.34375 23.496094 -1.96875 24.976562 -4.730469 Z M 13.84375 -23.300781 C 20.246094 -23.300781 21.871094 -14.679688 18.867188 -14.628906 L 6.75 -14.484375 C 6.996094 -20.050781 9.851562 -23.300781 13.84375 -23.300781 Z M 13.84375 -23.300781 "/></g></g></g><g fill="#7e6449" fill-opacity="1"><g transform="translate(200.257841, 160.761485)"><g><path d="M 11.183594 0.34375 C 17.289062 0.34375 21.035156 -2.855469 21.035156 -7.242188 C 21.035156 -9.851562 19.703125 -13.203125 12.265625 -14.382812 C 9.164062 -14.878906 5.761719 -15.863281 5.761719 -19.359375 C 5.761719 -21.230469 6.648438 -23.449219 9.902344 -23.449219 C 13.25 -23.449219 17.636719 -21.035156 17.4375 -16.75 L 17.539062 -16.75 L 20.640625 -21.378906 C 18.71875 -22.957031 15.320312 -24.1875 11.675781 -24.1875 C 6.453125 -24.1875 2.316406 -21.625 2.316406 -17.242188 C 2.316406 -14.582031 3.84375 -10.9375 11.429688 -9.753906 C 15.269531 -9.164062 17.585938 -7.882812 17.585938 -4.628906 C 17.585938 -2.316406 16.453125 -0.394531 13.054688 -0.394531 C 9.210938 -0.394531 4.53125 -2.855469 4.582031 -7.144531 L 4.484375 -7.144531 L 1.722656 -2.5625 C 3.792969 -0.9375 7.289062 0.34375 11.183594 0.34375 Z M 11.183594 0.34375 "/></g></g></g><g fill="#7e6449" fill-opacity="1"><g transform="translate(223.016985, 160.761485)"><g><path d="M 25.269531 -33.992188 L 23.351562 -36.550781 L 12.609375 -27.4375 L 12.757812 -27.292969 Z M 25.8125 -1.578125 L 25.8125 -20.492188 L 26.109375 -23.890625 L 18.621094 -23.890625 L 18.621094 -23.792969 C 20.835938 -22.808594 21.28125 -21.871094 21.28125 -19.210938 L 21.28125 -5.566406 C 18.816406 -3.695312 16.355469 -1.773438 13.003906 -1.773438 C 10.691406 -1.773438 7.929688 -3.101562 7.929688 -8.71875 L 7.929688 -20.492188 L 8.226562 -23.890625 L 0.738281 -23.890625 L 0.738281 -23.792969 C 2.957031 -22.808594 3.398438 -21.871094 3.398438 -19.210938 L 3.398438 -8.621094 C 3.398438 -1.183594 7.242188 0.34375 10.195312 0.34375 C 14.828125 0.34375 18.671875 -2.511719 21.28125 -4.484375 L 21.28125 0.246094 L 28.570312 -0.492188 L 28.570312 -0.691406 C 27.785156 -0.789062 26.503906 -1.132812 25.8125 -1.578125 Z M 25.8125 -1.578125 "/></g></g></g><g fill="#7e6449" fill-opacity="1"><g transform="translate(252.328003, 160.761485)"><g><path d="M 11.183594 0.34375 C 17.289062 0.34375 21.035156 -2.855469 21.035156 -7.242188 C 21.035156 -9.851562 19.703125 -13.203125 12.265625 -14.382812 C 9.164062 -14.878906 5.761719 -15.863281 5.761719 -19.359375 C 5.761719 -21.230469 6.648438 -23.449219 9.902344 -23.449219 C 13.25 -23.449219 17.636719 -21.035156 17.4375 -16.75 L 17.539062 -16.75 L 20.640625 -21.378906 C 18.71875 -22.957031 15.320312 -24.1875 11.675781 -24.1875 C 6.453125 -24.1875 2.316406 -21.625 2.316406 -17.242188 C 2.316406 -14.582031 3.84375 -10.9375 11.429688 -9.753906 C 15.269531 -9.164062 17.585938 -7.882812 17.585938 -4.628906 C 17.585938 -2.316406 16.453125 -0.394531 13.054688 -0.394531 C 9.210938 -0.394531 4.53125 -2.855469 4.582031 -7.144531 L 4.484375 -7.144531 L 1.722656 -2.5625 C 3.792969 -0.9375 7.289062 0.34375 11.183594 0.34375 Z M 11.183594 0.34375 "/></g></g></g><g fill="#7e6449" fill-opacity="1"><g transform="translate(275.085427, 160.761485)"><g/></g></g><g fill="#7e6449" fill-opacity="1"><g transform="translate(187.499992, 253.300984)"><g><path d="M 30.199219 -44.582031 L 28.277344 -47.144531 L 17.539062 -38.03125 L 17.683594 -37.882812 Z M 33.746094 -6.207031 L 23.351562 -32.464844 C 22.316406 -35.023438 22.265625 -35.417969 22.265625 -35.8125 L 17.683594 -32.808594 L 16.898438 -32.265625 L 16.996094 -31.183594 L 6.058594 -5.960938 C 4.238281 -1.722656 3.054688 -0.789062 0.984375 -0.195312 L 0.984375 0 L 10.050781 0 L 10.050781 -0.195312 C 7.289062 -0.789062 5.320312 -1.675781 7.144531 -5.910156 L 8.226562 -8.375 L 27.488281 -8.375 L 28.472656 -5.910156 C 30.199219 -1.578125 28.226562 -0.492188 24.777344 -0.195312 L 24.777344 0 L 38.621094 0 L 38.621094 -0.195312 C 36.40625 -0.492188 35.519531 -1.675781 33.746094 -6.207031 Z M 8.570312 -9.261719 L 18.226562 -31.527344 L 27.144531 -9.261719 Z M 8.570312 -9.261719 "/></g></g></g><g fill="#7e6449" fill-opacity="1"><g transform="translate(227.106797, 253.300984)"><g><path d="M 8.03125 -4.777344 L 8.03125 -35.765625 L 8.277344 -37.683594 L -0.492188 -33.546875 L -0.492188 -33.25 C 2.5625 -34.1875 3.496094 -34.433594 3.496094 -32.464844 L 3.496094 -3.054688 L 3.054688 0 L 10.835938 0 L 10.835938 -0.195312 C 8.375 -0.738281 8.03125 -2.117188 8.03125 -4.777344 Z M 8.03125 -4.777344 "/></g></g></g><g fill="#7e6449" fill-opacity="1"><g transform="translate(238.683416, 253.300984)"><g><path d="M 18.375 -23.890625 L 18.375 -23.695312 C 20.148438 -23.105469 22.167969 -22.21875 20.34375 -17.980469 L 14.828125 -5.269531 L 8.917969 -17.980469 C 6.945312 -22.21875 9.015625 -23.398438 11.476562 -23.695312 L 11.476562 -23.890625 L 1.230469 -23.890625 L 3.054688 -20.542969 L 12.90625 0.492188 L 13.152344 0.492188 L 21.28125 -17.929688 C 23.152344 -22.167969 24.285156 -23.105469 25.863281 -23.695312 L 25.863281 -23.890625 Z M 18.375 -23.890625 "/></g></g></g><g fill="#7e6449" fill-opacity="1"><g transform="translate(265.531312, 253.300984)"><g><path d="M 25.417969 -4.039062 L 25.417969 -22.363281 C 22.957031 -23.597656 20.394531 -24.1875 17.242188 -24.1875 C 6.996094 -24.1875 1.96875 -18.078125 1.96875 -10.984375 C 1.96875 -3.84375 6.996094 0.34375 13.84375 0.34375 C 16.15625 0.34375 18.128906 -0.148438 19.703125 -0.984375 C 19.703125 -0.9375 19.65625 -0.9375 19.65625 -0.9375 L 27.339844 0.589844 L 27.339844 0.441406 C 25.863281 -0.542969 25.417969 -1.378906 25.417969 -4.039062 Z M 6.75 -13.644531 C 6.75 -19.457031 9.703125 -23.25 14.777344 -23.25 C 17.488281 -23.25 19.410156 -22.117188 20.886719 -20.542969 L 20.886719 -4.679688 C 20.886719 -3.890625 20.835938 -3.25 20.789062 -2.757812 C 19.804688 -1.675781 18.621094 -1.035156 16.699219 -1.035156 C 11.035156 -1.035156 6.75 -6.601562 6.75 -13.644531 Z M 6.75 -13.644531 "/></g></g></g><g fill="#7e6449" fill-opacity="1"><g transform="translate(294.842323, 253.300984)"><g><path d="M 15.863281 -24.136719 C 12.5625 -24.136719 9.804688 -22.070312 8.671875 -18.917969 L 8.03125 -18.917969 L 8.03125 -20.492188 L 8.277344 -24.136719 L 0.492188 -23.398438 L 0.492188 -23.203125 C 1.527344 -23.105469 2.808594 -22.757812 3.496094 -22.316406 L 3.496094 -3.398438 L 3.25 0 L 9.949219 0 C 8.472656 -0.984375 8.03125 -1.921875 8.03125 -4.582031 L 8.03125 -14.777344 C 8.523438 -18.226562 10.097656 -21.378906 12.609375 -21.378906 C 14.1875 -21.378906 15.371094 -19.949219 14.039062 -16.652344 L 14.238281 -16.652344 L 18.472656 -23.546875 C 17.539062 -23.992188 16.75 -24.136719 15.863281 -24.136719 Z M 15.863281 -24.136719 "/></g></g></g><g fill="#7e6449" fill-opacity="1"><g transform="translate(314.054574, 253.300984)"><g><path d="M 14.730469 -24.1875 C 7.242188 -24.1875 1.96875 -19.164062 1.96875 -11.921875 C 1.96875 -4.628906 7.242188 0.34375 14.730469 0.34375 C 22.21875 0.34375 27.488281 -4.679688 27.488281 -11.921875 C 27.488281 -19.210938 22.21875 -24.1875 14.730469 -24.1875 Z M 16.652344 -0.492188 C 10.542969 -0.492188 6.601562 -8.324219 6.601562 -15.125 C 6.601562 -20.246094 8.917969 -23.351562 12.808594 -23.351562 C 18.917969 -23.351562 22.859375 -15.515625 22.859375 -8.71875 C 22.859375 -3.597656 20.542969 -0.492188 16.652344 -0.492188 Z M 16.652344 -0.492188 "/></g></g></g><g fill="#7e6449" fill-opacity="1"><g transform="translate(343.512619, 253.300984)"><g/></g></g><g fill="#7e6449" fill-opacity="1"><g transform="translate(173.238107, 198.948315)"><g><path d="M 17.300781 -12.066406 C 20.109375 -11.949219 21.816406 -11.71875 23.175781 -11.71875 L 25.140625 -11.71875 C 25.664062 -12.585938 26.328125 -13.28125 27.226562 -14.261719 C 25.34375 -14.089844 23.871094 -14.03125 20.832031 -14.03125 L 14.957031 -14.03125 C 14.4375 -13.191406 13.945312 -12.613281 13.136719 -11.71875 C 20.253906 -11.71875 22.972656 -10.996094 22.972656 -5.179688 C 22.972656 -2.660156 22.421875 -0.316406 20.109375 -0.316406 C 18.140625 -0.316406 16.839844 -1.996094 14.988281 -5.582031 L 9.980469 -15.304688 C 8.507812 -18.140625 9.488281 -20.917969 12.5 -20.917969 C 15.101562 -20.917969 18.140625 -18.980469 14.957031 -14.03125 L 19.441406 -19.472656 C 19.039062 -20.542969 16.492188 -21.46875 14.003906 -21.46875 C 9.085938 -21.46875 5.640625 -17.851562 7.753906 -13.714844 L 8.679688 -11.921875 C 5.003906 -11.515625 1.300781 -9.054688 1.300781 -5.121094 C 1.300781 -1.792969 3.933594 0.203125 7.695312 0.203125 C 9.402344 0.203125 11.339844 -0.203125 12.960938 -1.621094 L 12.875 -2.257812 C 12.09375 -0.722656 10.445312 -0.550781 9.691406 -0.550781 C 6.363281 -0.550781 3.730469 -4.167969 3.730469 -7.40625 C 3.730469 -9.691406 5.0625 -10.964844 7.058594 -10.964844 C 8.796875 -10.964844 9.632812 -9.921875 10.269531 -8.765625 L 12.152344 -5.09375 C 14.378906 -0.722656 15.277344 0.230469 18.113281 0.230469 C 22.25 0.230469 25.921875 -1.734375 25.921875 -5.207031 C 25.921875 -8.882812 21.929688 -11.050781 17.300781 -12.066406 Z M 17.300781 -12.066406 "/></g></g></g></svg>