<?xml version="1.0" encoding="UTF-8"?>
<svg width="40" height="40" version="1.0" viewBox="0 0 30 30" xmlns="http://www.w3.org/2000/svg" zoomAndPan="magnify">
<defs>
<clipPath id="l">
<path d="m6 16h9v7h-9z"/>
</clipPath>
<clipPath id="be">
<path d="m0.48438 4.9766 24.902-5.0117 4.2969 21.348-24.902 5.0117z"/>
</clipPath>
<clipPath id="bq">
<path d="m-0.019531 3.2617 27.352-3.5391 2.9805 23.035-27.352 3.5391z"/>
</clipPath>
<clipPath id="ce">
<path d="m1 0h28.516v25h-28.516z"/>
</clipPath>
<clipPath id="ac">
<path d="m0.48438 4.9766 24.902-5.0117 4.2969 21.348-24.902 5.0117z"/>
</clipPath>
<clipPath id="as">
<path d="m-0.019531 3.2617 27.352-3.5391 2.9805 23.035-27.352 3.5391z"/>
</clipPath>
<clipPath id="bs">
<path d="m23 18h2v2h-2z"/>
</clipPath>
<clipPath id="cr">
<path d="m0.48438 4.9766 24.902-5.0117 4.2969 21.348-24.902 5.0117z"/>
</clipPath>
<clipPath id="ar">
<path d="m-0.019531 3.2617 27.352-3.5391 2.9805 23.035-27.352 3.5391z"/>
</clipPath>
<clipPath id="bh">
<path d="m23 17h1v2h-1z"/>
</clipPath>
<clipPath id="bt">
<path d="m0.48438 4.9766 24.902-5.0117 4.2969 21.348-24.902 5.0117z"/>
</clipPath>
<clipPath id="bl">
<path d="m-0.019531 3.2617 27.352-3.5391 2.9805 23.035-27.352 3.5391z"/>
</clipPath>
<clipPath id="cs">
<path d="m22 15h2v2h-2z"/>
</clipPath>
<clipPath id="ai">
<path d="m0.48438 4.9766 24.902-5.0117 4.2969 21.348-24.902 5.0117z"/>
</clipPath>
<clipPath id="cw">
<path d="m-0.019531 3.2617 27.352-3.5391 2.9805 23.035-27.352 3.5391z"/>
</clipPath>
<clipPath id="a">
<path d="m15 16h1v2h-1z"/>
</clipPath>
<clipPath id="h">
<path d="m0.48438 4.9766 24.902-5.0117 4.2969 21.348-24.902 5.0117z"/>
</clipPath>
<clipPath id="m">
<path d="m-0.019531 3.2617 27.352-3.5391 2.9805 23.035-27.352 3.5391z"/>
</clipPath>
<clipPath id="bx">
<path d="m14 14h2v2h-2z"/>
</clipPath>
<clipPath id="af">
<path d="m0.48438 4.9766 24.902-5.0117 4.2969 21.348-24.902 5.0117z"/>
</clipPath>
<clipPath id="bu">
<path d="m-0.019531 3.2617 27.352-3.5391 2.9805 23.035-27.352 3.5391z"/>
</clipPath>
<clipPath id="bf">
<path d="m15 18h2v2h-2z"/>
</clipPath>
<clipPath id="aj">
<path d="m0.48438 4.9766 24.902-5.0117 4.2969 21.348-24.902 5.0117z"/>
</clipPath>
<clipPath id="bk">
<path d="m-0.019531 3.2617 27.352-3.5391 2.9805 23.035-27.352 3.5391z"/>
</clipPath>
<clipPath id="cm">
<path d="m15 19h2v2h-2z"/>
</clipPath>
<clipPath id="z">
<path d="m0.48438 4.9766 24.902-5.0117 4.2969 21.348-24.902 5.0117z"/>
</clipPath>
<clipPath id="ap">
<path d="m-0.019531 3.2617 27.352-3.5391 2.9805 23.035-27.352 3.5391z"/>
</clipPath>
<clipPath id="cl">
<path d="m15 21h2v2h-2z"/>
</clipPath>
<clipPath id="bb">
<path d="m0.48438 4.9766 24.902-5.0117 4.2969 21.348-24.902 5.0117z"/>
</clipPath>
<clipPath id="an">
<path d="m-0.019531 3.2617 27.352-3.5391 2.9805 23.035-27.352 3.5391z"/>
</clipPath>
<clipPath id="bi">
<path d="m19 20h4v2h-4z"/>
</clipPath>
<clipPath id="k">
<path d="m0.48438 4.9766 24.902-5.0117 4.2969 21.348-24.902 5.0117z"/>
</clipPath>
<clipPath id="ci">
<path d="m-0.019531 3.2617 27.352-3.5391 2.9805 23.035-27.352 3.5391z"/>
</clipPath>
<clipPath id="c">
<path d="m19 19h4v2h-4z"/>
</clipPath>
<clipPath id="co">
<path d="m0.48438 4.9766 24.902-5.0117 4.2969 21.348-24.902 5.0117z"/>
</clipPath>
<clipPath id="ao">
<path d="m-0.019531 3.2617 27.352-3.5391 2.9805 23.035-27.352 3.5391z"/>
</clipPath>
<clipPath id="x">
<path d="m19 18h4v2h-4z"/>
</clipPath>
<clipPath id="am">
<path d="m0.48438 4.9766 24.902-5.0117 4.2969 21.348-24.902 5.0117z"/>
</clipPath>
<clipPath id="at">
<path d="m-0.019531 3.2617 27.352-3.5391 2.9805 23.035-27.352 3.5391z"/>
</clipPath>
<clipPath id="o">
<path d="m18 20h2v2h-2z"/>
</clipPath>
<clipPath id="bn">
<path d="m0.48438 4.9766 24.902-5.0117 4.2969 21.348-24.902 5.0117z"/>
</clipPath>
<clipPath id="br">
<path d="m-0.019531 3.2617 27.352-3.5391 2.9805 23.035-27.352 3.5391z"/>
</clipPath>
<clipPath id="bc">
<path d="m18 19h2v2h-2z"/>
</clipPath>
<clipPath id="ba">
<path d="m0.48438 4.9766 24.902-5.0117 4.2969 21.348-24.902 5.0117z"/>
</clipPath>
<clipPath id="au">
<path d="m-0.019531 3.2617 27.352-3.5391 2.9805 23.035-27.352 3.5391z"/>
</clipPath>
<clipPath id="cn">
<path d="m18 19h2v1h-2z"/>
</clipPath>
<clipPath id="d">
<path d="m0.48438 4.9766 24.902-5.0117 4.2969 21.348-24.902 5.0117z"/>
</clipPath>
<clipPath id="cq">
<path d="m-0.019531 3.2617 27.352-3.5391 2.9805 23.035-27.352 3.5391z"/>
</clipPath>
<clipPath id="f">
<path d="m18 14h4v5h-4z"/>
</clipPath>
<clipPath id="g">
<path d="m0.48438 4.9766 24.902-5.0117 4.2969 21.348-24.902 5.0117z"/>
</clipPath>
<clipPath id="cg">
<path d="m-0.019531 3.2617 27.352-3.5391 2.9805 23.035-27.352 3.5391z"/>
</clipPath>
<clipPath id="bv">
<path d="m19 8h2v2h-2z"/>
</clipPath>
<clipPath id="ca">
<path d="m0.48438 4.9766 24.902-5.0117 4.2969 21.348-24.902 5.0117z"/>
</clipPath>
<clipPath id="ax">
<path d="m-0.019531 3.2617 27.352-3.5391 2.9805 23.035-27.352 3.5391z"/>
</clipPath>
<clipPath id="by">
<path d="m18 7h3v2h-3z"/>
</clipPath>
<clipPath id="cf">
<path d="m0.48438 4.9766 24.902-5.0117 4.2969 21.348-24.902 5.0117z"/>
</clipPath>
<clipPath id="cp">
<path d="m-0.019531 3.2617 27.352-3.5391 2.9805 23.035-27.352 3.5391z"/>
</clipPath>
<clipPath id="al">
<path d="m18 5h2v2h-2z"/>
</clipPath>
<clipPath id="cv">
<path d="m0.48438 4.9766 24.902-5.0117 4.2969 21.348-24.902 5.0117z"/>
</clipPath>
<clipPath id="av">
<path d="m-0.019531 3.2617 27.352-3.5391 2.9805 23.035-27.352 3.5391z"/>
</clipPath>
<clipPath id="e">
<path d="m11 9h2v2h-2z"/>
</clipPath>
<clipPath id="aq">
<path d="m0.48438 4.9766 24.902-5.0117 4.2969 21.348-24.902 5.0117z"/>
</clipPath>
<clipPath id="bz">
<path d="m-0.019531 3.2617 27.352-3.5391 2.9805 23.035-27.352 3.5391z"/>
</clipPath>
<clipPath id="y">
<path d="m12 12h2v2h-2z"/>
</clipPath>
<clipPath id="cb">
<path d="m0.48438 4.9766 24.902-5.0117 4.2969 21.348-24.902 5.0117z"/>
</clipPath>
<clipPath id="cj">
<path d="m-0.019531 3.2617 27.352-3.5391 2.9805 23.035-27.352 3.5391z"/>
</clipPath>
<clipPath id="cd">
<path d="m12 10h1v2h-1z"/>
</clipPath>
<clipPath id="u">
<path d="m0.48438 4.9766 24.902-5.0117 4.2969 21.348-24.902 5.0117z"/>
</clipPath>
<clipPath id="j">
<path d="m-0.019531 3.2617 27.352-3.5391 2.9805 23.035-27.352 3.5391z"/>
</clipPath>
<clipPath id="aa">
<path d="m17 10h3v3h-3z"/>
</clipPath>
<clipPath id="w">
<path d="m0.48438 4.9766 24.902-5.0117 4.2969 21.348-24.902 5.0117z"/>
</clipPath>
<clipPath id="t">
<path d="m-0.019531 3.2617 27.352-3.5391 2.9805 23.035-27.352 3.5391z"/>
</clipPath>
<clipPath id="bw">
<path d="m17 10h3v2h-3z"/>
</clipPath>
<clipPath id="bm">
<path d="m0.48438 4.9766 24.902-5.0117 4.2969 21.348-24.902 5.0117z"/>
</clipPath>
<clipPath id="ag">
<path d="m-0.019531 3.2617 27.352-3.5391 2.9805 23.035-27.352 3.5391z"/>
</clipPath>
<clipPath id="aw">
<path d="m16 9h3v3h-3z"/>
</clipPath>
<clipPath id="cx">
<path d="m0.48438 4.9766 24.902-5.0117 4.2969 21.348-24.902 5.0117z"/>
</clipPath>
<clipPath id="s">
<path d="m-0.019531 3.2617 27.352-3.5391 2.9805 23.035-27.352 3.5391z"/>
</clipPath>
<clipPath id="v">
<path d="m16 12h2v2h-2z"/>
</clipPath>
<clipPath id="bd">
<path d="m0.48438 4.9766 24.902-5.0117 4.2969 21.348-24.902 5.0117z"/>
</clipPath>
<clipPath id="ch">
<path d="m-0.019531 3.2617 27.352-3.5391 2.9805 23.035-27.352 3.5391z"/>
</clipPath>
<clipPath id="r">
<path d="m15 11h2v2h-2z"/>
</clipPath>
<clipPath id="cc">
<path d="m0.48438 4.9766 24.902-5.0117 4.2969 21.348-24.902 5.0117z"/>
</clipPath>
<clipPath id="bo">
<path d="m-0.019531 3.2617 27.352-3.5391 2.9805 23.035-27.352 3.5391z"/>
</clipPath>
<clipPath id="ab">
<path d="m15 10h2v2h-2z"/>
</clipPath>
<clipPath id="ct">
<path d="m0.48438 4.9766 24.902-5.0117 4.2969 21.348-24.902 5.0117z"/>
</clipPath>
<clipPath id="ah">
<path d="m-0.019531 3.2617 27.352-3.5391 2.9805 23.035-27.352 3.5391z"/>
</clipPath>
<clipPath id="az">
<path d="m13 5h6v6h-6z"/>
</clipPath>
<clipPath id="ck">
<path d="m0.48438 4.9766 24.902-5.0117 4.2969 21.348-24.902 5.0117z"/>
</clipPath>
<clipPath id="cu">
<path d="m-0.019531 3.2617 27.352-3.5391 2.9805 23.035-27.352 3.5391z"/>
</clipPath>
<clipPath id="b">
<path d="m8 3h7v5h-7z"/>
</clipPath>
<clipPath id="bp">
<path d="m0.48438 4.9766 24.902-5.0117 4.2969 21.348-24.902 5.0117z"/>
</clipPath>
<clipPath id="ad">
<path d="m-0.019531 3.2617 27.352-3.5391 2.9805 23.035-27.352 3.5391z"/>
</clipPath>
<clipPath id="ak">
<path d="m6 7h3v3h-3z"/>
</clipPath>
<clipPath id="p">
<path d="m0.48438 4.9766 24.902-5.0117 4.2969 21.348-24.902 5.0117z"/>
</clipPath>
<clipPath id="bg">
<path d="m-0.019531 3.2617 27.352-3.5391 2.9805 23.035-27.352 3.5391z"/>
</clipPath>
<clipPath id="ay">
<path d="m4 20h5v7h-5z"/>
</clipPath>
<clipPath id="ae">
<path d="m0.48438 4.9766 24.902-5.0117 4.2969 21.348-24.902 5.0117z"/>
</clipPath>
<clipPath id="q">
<path d="m-0.019531 3.2617 27.352-3.5391 2.9805 23.035-27.352 3.5391z"/>
</clipPath>
<clipPath id="bj">
<path d="m9 24h2v2h-2z"/>
</clipPath>
<clipPath id="n">
<path d="m0.48438 4.9766 24.902-5.0117 4.2969 21.348-24.902 5.0117z"/>
</clipPath>
<clipPath id="i">
<path d="m-0.019531 3.2617 27.352-3.5391 2.9805 23.035-27.352 3.5391z"/>
</clipPath>
</defs>
<g clip-path="url(#l)">
<g clip-path="url(#be)">
<g clip-path="url(#bq)">
<path d="m12.086 16.039c-0.56641 0.015626-1.1055 0.27344-1.4727 0.69922-0.10938 0.125-0.19922 0.26172-0.26953 0.40625-0.10938-0.125-0.23047-0.23047-0.36719-0.32422-0.46484-0.32031-1.0469-0.42969-1.6016-0.30078-0.87891 0.19922-1.5156 0.96094-1.5547 1.8438-0.003906 0.097657 0 0.19922 0.011719 0.29688 0.046875 0.4375 0.25781 0.85156 0.59375 1.1758l0.43359 0.41406 2.5547 2.1133c0.16797 0.15625 0.39844 0.23047 0.62891 0.19922s0.43359-0.15625 0.55859-0.35156l1.918-2.6758 0.32812-0.53125c0.24219-0.39844 0.34375-0.85547 0.27734-1.2891-0.015625-0.09375-0.039062-0.19141-0.066406-0.28906-0.26172-0.84375-1.0742-1.418-1.9727-1.3867zm1.1836 2.6211-0.30859 0.5-1.918 2.6758-0.011719 0.019531c-0.023438 0.035156-0.054688 0.042969-0.074219 0.046875-0.015625 0-0.050781 0-0.082031-0.027344l-2.5547-2.1133-0.42578-0.40625c-0.22266-0.21484-0.36328-0.48438-0.39062-0.76562-0.007812-0.066406-0.011718-0.13281-0.007812-0.19922 0.023437-0.58594 0.44531-1.0898 1.0273-1.2227 0.375-0.085938 0.75391-0.015625 1.0664 0.19922 0.30859 0.21094 0.51172 0.54297 0.55859 0.91016l0.0625 0.49219 0.67187-0.085937-0.066406-0.49219c-0.046875-0.36719 0.066406-0.74219 0.3125-1.0234 0.24609-0.28516 0.59375-0.44922 0.97656-0.46484 0.59766-0.019531 1.1328 0.35938 1.3047 0.92188 0.019532 0.0625 0.035156 0.12891 0.046875 0.19141 0.042969 0.28125-0.023437 0.57812-0.1875 0.84375z" fill="#eaaca3"/>
</g>
</g>
</g>
<g clip-path="url(#ce)">
<g clip-path="url(#ac)">
<g clip-path="url(#as)">
<path d="m28.957 15.195 0.33594-0.046874-0.39453-3.0547-5.1055 0.66016c-0.34375 0.046875-0.64062 0.22656-0.83984 0.48047-0.23828-0.19531-0.55859-0.29688-0.89453-0.25391l-2.4219 0.3125 1.75-1.1016c0.26172-0.16406 0.44531-0.42188 0.51172-0.72266 0.003906-0.011719 0.007812-0.027344 0.007812-0.042969 0.003906 0 0.003906 0.003907 0.007812 0.003907 0.14453 0.03125 0.29297 0.035156 0.4375 0.019531 0.17969-0.023438 0.35547-0.085938 0.51172-0.1875l4.3438-2.7344-1.707-2.6523-0.28516 0.17969c-0.39062 0.24219-0.85156 0.32422-1.2969 0.22656-0.44922-0.097656-0.83203-0.36328-1.0781-0.74219-0.24609-0.38281-0.32812-0.83984-0.22656-1.2812 0.10156-0.44141 0.37109-0.82031 0.75781-1.0664l0.28516-0.17969-1.6719-2.5977-4.3438 2.7344c-0.29688 0.1875-0.48828 0.47266-0.55469 0.78906-0.30469-0.078125-0.63672-0.039062-0.92188 0.14062l-14.832 9.332 3.8438 5.9727 0.69922 5.3984 17.422-2.2578c0.33203-0.042969 0.61719-0.22266 0.79688-0.47266 0.25781 0.19531 0.58984 0.29297 0.9375 0.25l5.1016-0.66016-0.40234-3.1211-0.33594 0.042969c-0.94141 0.12109-1.8047-0.53516-1.9258-1.4648-0.12109-0.92969 0.54688-1.7812 1.4883-1.9023zm-26.695-1.582 8.1562-5.1328 0.34375 0.53906 0.45703-0.28906-0.34375-0.53516 5.6484-3.5547c0.23047-0.14453 0.53125-0.078125 0.67578 0.14453l0.27734 0.42969 0.16797 0.26172 0.57031-0.35937-0.39453-0.60938c-0.17187-0.26953-0.089843-0.625 0.17969-0.79687l3.7734-2.375 0.96094 1.4922c-0.39062 0.33203-0.66406 0.78125-0.78125 1.2852-0.14062 0.61719-0.027344 1.25 0.31641 1.7812 0.34375 0.53516 0.875 0.90234 1.5 1.0391 0.51172 0.10938 1.0391 0.054687 1.5078-0.15625l1 1.5469-3.7734 2.375c-0.13281 0.085937-0.28906 0.11328-0.44141 0.078125-0.15234-0.03125-0.28125-0.12109-0.36719-0.25391l-0.35937-0.55859-0.57031 0.35938 0.003906 0.003906 0.40625 0.63672c0.070313 0.10547 0.09375 0.23438 0.066407 0.36328-0.03125 0.125-0.10547 0.23047-0.21484 0.30078l-2.9688 1.8672-3.4805 0.45312-0.32812-0.51172-0.45703 0.28516 0.19531 0.30078-2.9023 0.375 0.14844-0.81641 0.070313-0.62109c0.050781-0.45703-0.058594-0.91016-0.30469-1.2773-0.054688-0.078125-0.11719-0.15625-0.18359-0.23047-0.60156-0.66016-1.582-0.83594-2.3867-0.43359-0.50781 0.25391-0.88281 0.71094-1.0352 1.25-0.042969 0.15625-0.066406 0.32031-0.070312 0.48047-0.14844-0.066406-0.30859-0.11328-0.47266-0.14062-0.55469-0.09375-1.1328 0.054687-1.582 0.39844-0.70312 0.54688-0.95703 1.4883-0.62109 2.3008l0.32422 2.5156zm3.0547 1.5312c-0.011718-0.023437-0.027344-0.050781-0.039062-0.078125-0.23047-0.53906-0.0625-1.168 0.41016-1.5312 0.30078-0.23438 0.67578-0.33203 1.0508-0.26953 0.36328 0.0625 0.6875 0.27344 0.89062 0.57812l0.11719 0.19531 0.57812-0.34375-0.11719-0.19922c-0.20312-0.3125-0.26172-0.69531-0.16016-1.0547s0.34766-0.65625 0.6875-0.82812c0.53516-0.26562 1.1836-0.14844 1.5781 0.28516 0.046875 0.050781 0.089844 0.10547 0.125 0.15625 0.16016 0.23828 0.23047 0.53516 0.19531 0.83984l-0.0625 0.58203-0.1875 1.0156zm21.484 2.0391c0.15234 1.1836 1.168 2.0469 2.3398 2.0586l0.23828 1.8242-4.4336 0.57422c-0.32031 0.039063-0.61328-0.18359-0.65234-0.49609l-0.085938-0.66016-0.67188 0.085937 0.003906 0.007813h-0.003906l0.097656 0.74609c0.035157 0.26172-0.15625 0.50391-0.42187 0.53906l-16.754 2.168-1.0625-8.2227 16.75-2.168c0.26953-0.035156 0.51562 0.15234 0.54688 0.41406l0.066406 0.50781 0.039063 0.30469 0.67188-0.085938-0.09375-0.71875c-0.039062-0.31641 0.1875-0.60547 0.50391-0.64844l4.4336-0.57422 0.22656 1.7578c-1.1289 0.3125-1.8945 1.4062-1.7383 2.5859z" fill="#eaaca3"/>
</g>
</g>
</g>
<g clip-path="url(#bs)">
<g clip-path="url(#cr)">
<g clip-path="url(#ar)">
<path d="m23.336 19.035 0.67187-0.085937 0.089844 0.69922-0.66797 0.089843z" fill="#eaaca3"/>
</g>
</g>
</g>
<g clip-path="url(#bh)">
<g clip-path="url(#bt)">
<g clip-path="url(#bl)">
<path d="m23.105 17.242 0.66797-0.089844 0.11719 0.89844-0.66797 0.085938z" fill="#eaaca3"/>
</g>
</g>
</g>
<g clip-path="url(#cs)">
<g clip-path="url(#ai)">
<g clip-path="url(#cw)">
<path d="m22.898 15.641 0.66797-0.085937 0.09375 0.70312-0.67188 0.085938z" fill="#eaaca3"/>
</g>
</g>
</g>
<g clip-path="url(#a)">
<g clip-path="url(#h)">
<g clip-path="url(#m)">
<path d="m15.18 16.645 0.67187-0.085937 0.10547 0.82422-0.66797 0.085938z" fill="#eaaca3"/>
</g>
</g>
</g>
<g clip-path="url(#bx)">
<g clip-path="url(#af)">
<g clip-path="url(#bu)">
<path d="m14.965 14.992 0.67188-0.085938 0.10547 0.82422-0.66797 0.085937z" fill="#eaaca3"/>
</g>
</g>
</g>
<g clip-path="url(#bf)">
<g clip-path="url(#aj)">
<g clip-path="url(#bk)">
<path d="m15.395 18.297 0.66797-0.085937 0.10938 0.82422-0.67188 0.085938z" fill="#eaaca3"/>
</g>
</g>
</g>
<g clip-path="url(#cm)">
<g clip-path="url(#z)">
<g clip-path="url(#ap)">
<path d="m15.609 19.949 0.66797-0.085938 0.10938 0.82422-0.67188 0.085938z" fill="#eaaca3"/>
</g>
</g>
</g>
<g clip-path="url(#cl)">
<g clip-path="url(#bb)">
<g clip-path="url(#an)">
<path d="m15.82 21.602 0.67188-0.085937 0.10547 0.82422-0.66797 0.085937z" fill="#eaaca3"/>
</g>
</g>
</g>
<g clip-path="url(#bi)">
<g clip-path="url(#k)">
<g clip-path="url(#ci)">
<path d="m19.953 20.875 2.2266-0.28906 0.082031 0.66016-2.2227 0.28906z" fill="#eaaca3"/>
</g>
</g>
</g>
<g clip-path="url(#c)">
<g clip-path="url(#co)">
<g clip-path="url(#ao)">
<path d="m19.828 19.902 2.2227-0.28516 0.085938 0.66016-2.2227 0.28516z" fill="#eaaca3"/>
</g>
</g>
</g>
<g clip-path="url(#x)">
<g clip-path="url(#am)">
<g clip-path="url(#at)">
<path d="m19.703 18.934 2.2227-0.28906 0.085938 0.66016-2.2266 0.28906z" fill="#eaaca3"/>
</g>
</g>
</g>
<g clip-path="url(#o)">
<g clip-path="url(#bn)">
<g clip-path="url(#br)">
<path d="m18.625 21.043 0.64453-0.082031 0.082031 0.66016-0.64062 0.085937z" fill="#eaaca3"/>
</g>
</g>
</g>
<g clip-path="url(#bc)">
<g clip-path="url(#ba)">
<g clip-path="url(#au)">
<path d="m18.5 20.074 0.64062-0.082031 0.085937 0.66016-0.64062 0.082031z" fill="#eaaca3"/>
</g>
</g>
</g>
<g clip-path="url(#cn)">
<g clip-path="url(#d)">
<g clip-path="url(#cq)">
<path d="m18.375 19.105 0.64062-0.082031 0.085937 0.66016-0.64062 0.082031z" fill="#eaaca3"/>
</g>
</g>
</g>
<g clip-path="url(#f)">
<g clip-path="url(#g)">
<g clip-path="url(#cg)">
<path d="m18.621 18.602 3.3008-0.42578-0.47656-3.7031-3.3047 0.42578zm0.27734-3.1289 1.9609-0.25391 0.30859 2.3828-1.9609 0.25391z" fill="#eaaca3"/>
</g>
</g>
</g>
<g clip-path="url(#bv)">
<g clip-path="url(#ca)">
<g clip-path="url(#ax)">
<path d="m20.879 9.2578-0.57031 0.35547-0.38281-0.59375 0.57031-0.35938z" fill="#eaaca3"/>
</g>
</g>
</g>
<g clip-path="url(#by)">
<g clip-path="url(#cf)">
<g clip-path="url(#cp)">
<path d="m20.004 7.8945-0.57031 0.35938-0.49219-0.76172 0.57031-0.35938z" fill="#eaaca3"/>
</g>
</g>
</g>
<g clip-path="url(#al)">
<g clip-path="url(#cv)">
<g clip-path="url(#av)">
<path d="m18.641 5.7734 0.38281 0.59766-0.57031 0.35938-0.38672-0.59766z" fill="#eaaca3"/>
</g>
</g>
</g>
<g clip-path="url(#e)">
<g clip-path="url(#aq)">
<g clip-path="url(#bz)">
<path d="m11.652 9.4023 0.43359 0.67188-0.45703 0.28906-0.43359-0.67188z" fill="#eaaca3"/>
</g>
</g>
</g>
<g clip-path="url(#y)">
<g clip-path="url(#cb)">
<g clip-path="url(#cj)">
<path d="m13.816 12.766-0.45703 0.28516-0.42969-0.67188 0.45312-0.28906z" fill="#eaaca3"/>
</g>
</g>
</g>
<g clip-path="url(#cd)">
<g clip-path="url(#u)">
<g clip-path="url(#j)">
<path d="m12.949 11.422-0.45312 0.28516-0.43359-0.67188 0.45312-0.28516z" fill="#eaaca3"/>
</g>
</g>
</g>
<g clip-path="url(#aa)">
<g clip-path="url(#w)">
<g clip-path="url(#t)">
<path d="m18.008 12.66-0.36328-0.5625 1.8945-1.1914 0.36328 0.5625z" fill="#eaaca3"/>
</g>
</g>
</g>
<g clip-path="url(#bw)">
<g clip-path="url(#bm)">
<g clip-path="url(#ag)">
<path d="m17.113 11.273 1.8945-1.1914 0.36328 0.55859-1.8945 1.1953z" fill="#eaaca3"/>
</g>
</g>
</g>
<g clip-path="url(#aw)">
<g clip-path="url(#cx)">
<g clip-path="url(#s)">
<path d="m18.477 9.2578 0.36328 0.55859-1.8945 1.1953-0.36328-0.5625z" fill="#eaaca3"/>
</g>
</g>
</g>
<g clip-path="url(#v)">
<g clip-path="url(#bd)">
<g clip-path="url(#ch)">
<path d="m16.875 13.371-0.35938-0.5625 0.54688-0.34375 0.35938 0.5625z" fill="#eaaca3"/>
</g>
</g>
</g>
<g clip-path="url(#r)">
<g clip-path="url(#cc)">
<g clip-path="url(#bo)">
<path d="m15.984 11.984 0.54688-0.34375 0.35938 0.5625-0.54297 0.34375z" fill="#eaaca3"/>
</g>
</g>
</g>
<g clip-path="url(#ab)">
<g clip-path="url(#ct)">
<g clip-path="url(#ah)">
<path d="m15.453 11.16 0.54688-0.34375 0.36328 0.55859-0.54688 0.34375z" fill="#eaaca3"/>
</g>
</g>
</g>
<g clip-path="url(#az)">
<g clip-path="url(#ck)">
<g clip-path="url(#cu)">
<path d="m18.273 8.832-2.0273-3.1484-2.8125 1.7695 2.0273 3.1484zm-2.2383-2.2266 1.3047 2.0234-1.6719 1.0508-1.3008-2.0234z" fill="#eaaca3"/>
</g>
</g>
</g>
<g clip-path="url(#b)">
<g clip-path="url(#bp)">
<g clip-path="url(#ad)">
<path d="m14.148 3.9883 0.35937 0.5625-5.3516 3.3516-0.36328-0.5625z" fill="#eaaca3"/>
</g>
</g>
</g>
<g clip-path="url(#ak)">
<g clip-path="url(#p)">
<g clip-path="url(#bg)">
<path d="m7.9883 7.8438 0.35938 0.5625-1.1367 0.71094-0.36328-0.5625z" fill="#eaaca3"/>
</g>
</g>
</g>
<g clip-path="url(#ay)">
<g clip-path="url(#ae)">
<g clip-path="url(#q)">
<path d="m4.9141 20.984-0.67187 0.085937 0.64453 4.9766 3.6836-0.47656-0.085937-0.66016-3.0117 0.38672z" fill="#eaaca3"/>
</g>
</g>
</g>
<g clip-path="url(#bj)">
<g clip-path="url(#n)">
<g clip-path="url(#i)">
<path d="m9.5078 24.777 1.1562-0.15234 0.085938 0.66406-1.1562 0.14844z" fill="#eaaca3"/>
</g>
</g>
</g>
</svg>
