<?xml version="1.0" encoding="UTF-8"?>
<svg width="40" height="40" version="1.0" viewBox="0 0 30 30" xmlns="http://www.w3.org/2000/svg" zoomAndPan="magnify">
<defs>
<clipPath id="c">
<path d="m20 5.082h9.5156v9.918h-9.5156z"/>
</clipPath>
<clipPath id="a">
<path d="m0.48438 24h1.5156v2h-1.5156z"/>
</clipPath>
<clipPath id="b">
<path d="m0.48438 24h2.5156v2.1289h-2.5156z"/>
</clipPath>
</defs>
<g clip-path="url(#c)">
<path d="m29.125 5.1289c-0.10156 0.023438-0.20703 0.054688-0.28906 0.089844-0.24609 0.11328-0.53125 0.29297-0.8125 0.57422l-1.7227 1.7227c-0.003906-0.003906-0.5-0.14062-1.207-0.34375l0.21875-0.21484c0.074219-0.078125 0.074219-0.19922 0-0.27734l-0.023438-0.023438c-0.078124-0.074219-0.19922-0.074219-0.27734 0l-0.37891 0.37891c-0.53906-0.16016-1.1562-0.34375-1.7461-0.52344l0.24219-0.24219c0.078125-0.078125 0.078125-0.19922 0-0.27734l-0.023437-0.023438c-0.074219-0.074219-0.19922-0.074219-0.27344 0l-0.39844 0.39844c-0.61719-0.19531-1.1758-0.38672-1.5586-0.53906-0.12109-0.046875-0.43359-0.054687-0.48828 0.070313-0.039063 0.089843 0.16016 0.25 0.24609 0.30078 0.83984 0.49219 2.4805 1.4453 3.2344 2.0352 0.23828 0.18359 0.85547 0.85156 0.85547 0.85547 0 0-2.3906 2.6719-2.4492 2.7578l-1.5352-0.42969c-0.14453-0.042969-0.29688-0.011719-0.41016 0.078125 0.28125 0.20312 1.1719 0.85156 1.4883 1.0859-0.019531 0.039063-0.042968 0.078125-0.0625 0.11328-0.03125 0.054688-0.070312 0.10547-0.097656 0.14453-0.023438 0.039062-0.035156 0.074218-0.011719 0.097656 0.023438 0.023438 0.054688 0.011719 0.09375-0.015625 0.042969-0.023437 0.089844-0.0625 0.14844-0.09375 0.035156-0.019531 0.074219-0.042969 0.11328-0.066406 0.21484 0.28906 0.83203 1.1641 1.0586 1.4805 0.074218-0.11328 0.10156-0.25 0.066406-0.38281l-0.39844-1.5469c0.089844-0.054688 2.7656-2.4492 2.7656-2.4492 0.003906 0 0.67187 0.62109 0.85547 0.85547 0.59375 0.75391 1.5469 2.3945 2.0352 3.2344 0.050782 0.085937 0.21094 0.28516 0.30469 0.24609 0.12109-0.054688 0.11328-0.36719 0.066406-0.48828-0.15234-0.38281-0.34375-0.94141-0.53906-1.5586l0.39844-0.39844c0.074219-0.074218 0.074219-0.19922 0-0.27344l-0.023437-0.023438c-0.078125-0.078125-0.19922-0.078125-0.27734 0l-0.24219 0.24219c-0.18359-0.58984-0.36719-1.2031-0.52344-1.7461l0.37891-0.37891c0.074219-0.074219 0.074219-0.19922 0-0.27344l-0.027343-0.023437c-0.074219-0.078125-0.19531-0.078125-0.27344 0l-0.21484 0.21484c-0.20312-0.70703-0.34375-1.1992-0.34375-1.2031l1.7188-1.7227c0.28125-0.27734 0.45703-0.5625 0.57031-0.8125 0.039062-0.082031 0.070312-0.19141 0.09375-0.29688 0.046875-0.19922-0.12891-0.375-0.32422-0.32812z" fill="#eaaca3"/>
</g>
<path d="m2.5 25.137c-0.13281 0.03125-0.21094 0.046875-0.21094 0.046875-0.039062 0.007812-0.0625 0.046875-0.054687 0.085937 0.007813 0.03125 0.039063 0.054688 0.070313 0.054688h0.015624c0.003907 0 0.074219-0.015625 0.21094-0.050781 0.039062-0.007813 0.0625-0.046876 0.054688-0.085938-0.007813-0.039062-0.046876-0.0625-0.085938-0.050781z" fill="#eaaca3"/>
<path d="m4.1016 24.703c-0.14453 0.042969-0.28906 0.085937-0.43359 0.125-0.039063 0.011719-0.0625 0.050781-0.050781 0.089844 0.011718 0.03125 0.039062 0.050781 0.070312 0.050781 0.007812 0 0.011719 0 0.019531-0.003906 0.14453-0.042969 0.29297-0.082032 0.4375-0.12891 0.035157-0.011719 0.058594-0.050782 0.046875-0.089844-0.007812-0.035156-0.050781-0.054688-0.089844-0.042969z" fill="#eaaca3"/>
<path d="m3.3047 24.93c-0.14844 0.039062-0.29297 0.078124-0.4375 0.11719-0.039063 0.007813-0.0625 0.046875-0.050782 0.085937 0.007813 0.035157 0.035156 0.054688 0.070313 0.054688h0.015625c0.14453-0.039062 0.29297-0.078125 0.44141-0.11719 0.039062-0.011718 0.0625-0.050781 0.050781-0.089843-0.011719-0.039063-0.050781-0.0625-0.089843-0.050781z" fill="#eaaca3"/>
<path d="m10.168 22.039c-0.125 0.082032-0.25391 0.16406-0.38281 0.24219-0.035156 0.019531-0.046875 0.066406-0.023437 0.10156 0.011719 0.019532 0.035156 0.03125 0.058593 0.03125 0.015626 0 0.027344-0.003906 0.039063-0.007812 0.13281-0.082031 0.26172-0.16406 0.38672-0.24219 0.035156-0.023437 0.042968-0.070312 0.023437-0.10156-0.023437-0.03125-0.070312-0.042969-0.10156-0.023438z" fill="#eaaca3"/>
<path d="m8.7305 22.871c-0.13281 0.070312-0.26953 0.13672-0.40234 0.20312-0.039063 0.019531-0.050781 0.0625-0.035156 0.097656 0.015625 0.027344 0.039062 0.039063 0.066406 0.039063 0.011719 0 0.023437 0 0.03125-0.007813 0.14062-0.066406 0.27344-0.13281 0.41016-0.20312 0.035157-0.019531 0.046875-0.0625 0.027344-0.097656s-0.0625-0.050782-0.097656-0.03125z" fill="#eaaca3"/>
<path d="m9.4609 22.473c-0.12891 0.074219-0.26172 0.14844-0.39453 0.22266-0.035156 0.019532-0.050781 0.0625-0.03125 0.097657 0.015625 0.023437 0.039063 0.035156 0.0625 0.035156 0.011719 0 0.027344 0 0.035156-0.007813 0.13672-0.070312 0.26953-0.14844 0.39844-0.22266 0.035156-0.019531 0.046875-0.0625 0.027344-0.097656-0.019532-0.035156-0.066406-0.046875-0.097656-0.027344z" fill="#eaaca3"/>
<path d="m10.848 21.57c-0.11719 0.089844-0.24219 0.17578-0.36719 0.26172-0.03125 0.023438-0.042969 0.066407-0.019531 0.10156 0.015624 0.019531 0.039062 0.03125 0.0625 0.03125 0.011718 0 0.027343-0.003906 0.039062-0.011719 0.12891-0.085937 0.25391-0.17969 0.37109-0.26562 0.035156-0.023438 0.039062-0.070312 0.015625-0.10156-0.023438-0.035157-0.070313-0.039063-0.10156-0.015626z" fill="#eaaca3"/>
<path d="m12.094 20.484c-0.10156 0.10547-0.21094 0.21094-0.32031 0.31641-0.03125 0.027344-0.03125 0.074219-0.003907 0.10547 0.015625 0.011719 0.035157 0.023438 0.050781 0.023438 0.019532 0 0.039063-0.007813 0.050782-0.023438 0.10938-0.10156 0.22266-0.21094 0.32422-0.32031 0.027344-0.027344 0.027344-0.074219 0-0.10156-0.027343-0.027344-0.074218-0.027344-0.10156 0z" fill="#eaaca3"/>
<path d="m11.492 21.055c-0.10938 0.09375-0.22656 0.19141-0.34766 0.28516-0.027343 0.027344-0.035156 0.070312-0.007812 0.10156 0.011719 0.019532 0.035156 0.027344 0.054687 0.027344 0.015625 0 0.03125-0.003906 0.046875-0.015625 0.12109-0.097656 0.23828-0.19531 0.35156-0.29297 0.03125-0.023437 0.035156-0.070312 0.007812-0.10156-0.027344-0.027344-0.074218-0.03125-0.10547-0.003906z" fill="#eaaca3"/>
<path d="m13.227 19.18c-0.035156-0.023438-0.078124-0.015626-0.10156 0.019531-0.082031 0.12109-0.17188 0.24609-0.26172 0.36719-0.023437 0.03125-0.015625 0.078125 0.015625 0.10156 0.011719 0.007812 0.027344 0.011719 0.042969 0.011719 0.019531 0 0.042969-0.007813 0.058594-0.027344 0.089843-0.125 0.17969-0.25 0.26172-0.37109 0.027343-0.035156 0.019531-0.082031-0.015626-0.10156z" fill="#eaaca3"/>
<path d="m7.9883 23.238c-0.13672 0.0625-0.27344 0.125-0.41406 0.1875-0.035157 0.015625-0.050781 0.058594-0.035157 0.09375 0.011719 0.027344 0.035157 0.046875 0.066407 0.046875 0.007812 0 0.019531-0.003906 0.027343-0.007812 0.14063-0.0625 0.28125-0.125 0.41406-0.1875 0.039063-0.019532 0.054687-0.0625 0.035156-0.097656-0.015625-0.035157-0.058593-0.050782-0.09375-0.035157z" fill="#eaaca3"/>
<path d="m4.8945 24.453c-0.14062 0.046875-0.28516 0.09375-0.42969 0.13672-0.039063 0.011718-0.0625 0.054687-0.046875 0.089844 0.007812 0.03125 0.035156 0.050781 0.066406 0.050781 0.007813 0 0.015625 0 0.023437-0.003907 0.14453-0.042968 0.28906-0.089843 0.43359-0.13672 0.039063-0.011719 0.058594-0.054688 0.046875-0.089844-0.011719-0.039062-0.054687-0.058594-0.09375-0.046875z" fill="#eaaca3"/>
<path d="m5.6836 24.184c-0.14062 0.050781-0.28516 0.10156-0.42969 0.14844-0.035156 0.015625-0.054687 0.054688-0.042968 0.09375 0.011718 0.03125 0.039062 0.050781 0.070312 0.050781 0.003906 0 0.015625-0.003906 0.023438-0.003906 0.14062-0.050781 0.28516-0.10156 0.42969-0.15234 0.039063-0.011718 0.058594-0.054687 0.042969-0.089843-0.015625-0.042969-0.058594-0.0625-0.09375-0.046875z" fill="#eaaca3"/>
<path d="m6.4609 23.891c-0.13672 0.054687-0.28125 0.10938-0.42188 0.16406-0.039062 0.011718-0.058593 0.054687-0.046874 0.089843 0.011718 0.03125 0.039062 0.046875 0.070312 0.046875 0.007812 0 0.015625 0 0.023438-0.003906 0.14453-0.054688 0.28516-0.10938 0.42578-0.16406 0.039062-0.011719 0.054687-0.054688 0.042969-0.09375-0.015626-0.035157-0.058594-0.050782-0.09375-0.039063z" fill="#eaaca3"/>
<path d="m7.2305 23.578c-0.13672 0.058594-0.27734 0.11719-0.41797 0.17188-0.035156 0.015625-0.054688 0.058594-0.039062 0.09375 0.007812 0.03125 0.035156 0.046875 0.066406 0.046875 0.007812 0 0.015625-0.003906 0.027344-0.003906 0.14062-0.058594 0.28125-0.11719 0.41797-0.17578 0.039063-0.019532 0.054688-0.058594 0.039063-0.097657-0.015625-0.035156-0.058594-0.050781-0.09375-0.035156z" fill="#eaaca3"/>
<path d="m11.379 12.016c0.14844-0.011719 0.29297-0.007813 0.4375 0.011719h0.007813c0.035156 0 0.066406-0.027344 0.074219-0.066406 0.003906-0.039063-0.023438-0.074219-0.0625-0.078126-0.15234-0.023437-0.3125-0.027343-0.46875-0.011718-0.039063 0.003906-0.070313 0.039062-0.066407 0.078125 0.003907 0.042969 0.039063 0.070312 0.078125 0.066406z" fill="#eaaca3"/>
<path d="m10.578 12.254c0.015625 0 0.027344-0.003906 0.039063-0.011718 0.0625-0.035157 0.12891-0.066407 0.19141-0.089844 0.070312-0.027344 0.14062-0.050782 0.21094-0.066406 0.035157-0.011719 0.058594-0.050782 0.050781-0.089844-0.011718-0.039063-0.050781-0.0625-0.089843-0.050782-0.074219 0.019532-0.14844 0.042969-0.22266 0.070313-0.074218 0.027344-0.14453 0.0625-0.21484 0.10547-0.035157 0.019531-0.046875 0.0625-0.027344 0.097656 0.015625 0.023438 0.039063 0.035156 0.0625 0.035156z" fill="#eaaca3"/>
<path d="m14.168 14.539c0.039062 0.14453 0.074219 0.28906 0.10156 0.43359 0.003907 0.035156 0.035157 0.0625 0.070313 0.0625 0.003906 0 0.007812 0 0.011718-0.003906 0.039063-0.007812 0.066407-0.042969 0.058594-0.082031-0.027344-0.15234-0.0625-0.30078-0.10547-0.44922-0.011719-0.039062-0.050782-0.058594-0.089844-0.050781-0.039063 0.011719-0.058594 0.050781-0.046875 0.089843z" fill="#eaaca3"/>
<path d="m9.9727 12.836c0.011719 0.007812 0.023438 0.011718 0.039063 0.011718 0.023437 0 0.046875-0.015625 0.0625-0.039062 0.074219-0.12891 0.16016-0.24609 0.26172-0.34375 0.03125-0.03125 0.027343-0.074219 0-0.10547-0.027344-0.027344-0.074219-0.027344-0.10156 0-0.10938 0.10938-0.20312 0.23828-0.28516 0.375-0.023438 0.039063-0.011719 0.082031 0.023437 0.10156z" fill="#eaaca3"/>
<path d="m14.051 14.188c0.007813 0.027344 0.035157 0.046875 0.066407 0.046875 0.007812 0 0.015624-0.003906 0.023437-0.003906 0.039063-0.015625 0.058594-0.058594 0.042969-0.097657-0.054688-0.14453-0.11719-0.28516-0.18359-0.42187-0.019531-0.035157-0.0625-0.046876-0.097656-0.03125-0.039063 0.019531-0.050782 0.0625-0.035156 0.097656 0.066406 0.13281 0.12891 0.26953 0.18359 0.41016z" fill="#eaaca3"/>
<path d="m13.91 17.75c-0.054687 0.13281-0.11719 0.27344-0.17969 0.41016-0.019531 0.035156-0.003907 0.078125 0.03125 0.09375 0.011719 0.007813 0.023437 0.007813 0.03125 0.007813 0.027343 0 0.054687-0.015625 0.066406-0.039063 0.066406-0.14062 0.12891-0.28125 0.1875-0.42188 0.011719-0.035156-0.003906-0.078125-0.042969-0.09375-0.035156-0.011719-0.078125 0.003907-0.09375 0.042969z" fill="#eaaca3"/>
<path d="m13.691 13.449c0.015625 0.023437 0.039063 0.035156 0.0625 0.035156 0.011719 0 0.023438-0.003906 0.035156-0.011719 0.035157-0.019531 0.046876-0.0625 0.027344-0.097656-0.082031-0.13281-0.16797-0.26172-0.25781-0.38281-0.023438-0.03125-0.074219-0.039063-0.10156-0.011719-0.035156 0.023437-0.039062 0.070312-0.015625 0.10156 0.085938 0.11328 0.17188 0.23828 0.25 0.36719z" fill="#eaaca3"/>
<path d="m14.32 15.344c0.007813 0.125 0.015626 0.25781 0.015626 0.38672v0.058593c0 0.039063 0.03125 0.070313 0.070312 0.074219 0.039062 0 0.074219-0.03125 0.074219-0.070312v-0.058594c0-0.13672-0.007813-0.26953-0.019531-0.40234-0.003907-0.039062-0.039063-0.066406-0.078126-0.066406-0.039062 0-0.066406 0.039063-0.0625 0.078125z" fill="#eaaca3"/>
<path d="m13.656 18.465c-0.035156-0.023438-0.082031-0.007813-0.097656 0.027344-0.074219 0.12891-0.14844 0.26172-0.22656 0.39062-0.023437 0.03125-0.011719 0.078126 0.023438 0.097657 0.011719 0.007812 0.023437 0.011719 0.035156 0.011719 0.023437 0 0.050781-0.011719 0.0625-0.035157 0.082031-0.13281 0.16016-0.26562 0.23047-0.39453 0.019531-0.035156 0.003906-0.078125-0.027344-0.097656z" fill="#eaaca3"/>
<path d="m9.7578 13.637h0.003907c0.039062 0 0.070312-0.03125 0.074219-0.070313 0.007812-0.13672 0.035156-0.28125 0.085937-0.42188 0.011719-0.039062-0.007813-0.082031-0.046875-0.09375s-0.078125 0.007813-0.089844 0.046875c-0.054687 0.15234-0.085937 0.30859-0.097656 0.46094 0 0.039062 0.027344 0.074218 0.070312 0.078125z" fill="#eaaca3"/>
<path d="m12.172 12.109c0.13281 0.046875 0.26953 0.10938 0.39844 0.18359 0.011719 0.007812 0.023438 0.007812 0.035157 0.007812 0.027343 0 0.050781-0.011719 0.066406-0.035156 0.019531-0.035156 0.003906-0.082031-0.027344-0.10156-0.14062-0.078124-0.28516-0.14453-0.42578-0.19141-0.039062-0.011718-0.082031 0.007813-0.09375 0.042969-0.015625 0.042969 0.007812 0.082031 0.046875 0.09375z" fill="#eaaca3"/>
<path d="m13.305 12.699c-0.10938-0.11719-0.22266-0.21875-0.33984-0.3125-0.03125-0.027344-0.078125-0.019531-0.10156 0.011719-0.027343 0.03125-0.019531 0.078124 0.011719 0.10156 0.11328 0.089844 0.22266 0.19141 0.32422 0.30078 0.015625 0.015625 0.035156 0.023438 0.054687 0.023438 0.015625 0 0.035156-0.007813 0.046875-0.019531 0.03125-0.03125 0.03125-0.078126 0.003907-0.10547z" fill="#eaaca3"/>
<path d="m14.395 16.094c-0.042969-0.003906-0.078125 0.027344-0.082031 0.066406-0.015625 0.14453-0.035156 0.29297-0.0625 0.44141-0.003906 0.042969 0.019531 0.078126 0.058594 0.085938 0.003906 0 0.011718 0.003906 0.015625 0.003906 0.03125 0 0.0625-0.023437 0.070312-0.0625 0.027344-0.15234 0.050781-0.30469 0.0625-0.45312 0.007813-0.042969-0.023437-0.074219-0.0625-0.082031z" fill="#eaaca3"/>
<path d="m14.258 16.914c-0.035156-0.007812-0.078124 0.015626-0.085937 0.054688-0.039063 0.14062-0.082031 0.28516-0.12891 0.42969-0.015625 0.035156 0.007812 0.078124 0.042969 0.089843 0.007812 0.003907 0.015624 0.003907 0.023437 0.003907 0.03125 0 0.058594-0.015626 0.070313-0.046876 0.050781-0.14844 0.09375-0.29687 0.13281-0.44141 0.011719-0.039062-0.015625-0.078125-0.054688-0.089844z" fill="#eaaca3"/>
<path d="m9.793 14.176c0.011719 0.023438 0.039062 0.035157 0.0625 0.035157 0.011719 0 0.023437 0 0.03125-0.007813 0.035156-0.015625 0.050781-0.058594 0.035156-0.09375-0.027344-0.058594-0.050781-0.125-0.066406-0.19141-0.007813-0.039063-0.046875-0.0625-0.085938-0.054688-0.015625 0.003907-0.03125 0.015625-0.039062 0.027344-0.015625 0-0.03125 0.007813-0.042969 0.015625-0.03125 0.027344-0.035156 0.074219-0.011719 0.10156 0.046875 0.050782 0.089844 0.10938 0.11719 0.16797z" fill="#eaaca3"/>
<path d="m8.2305 13.535h0.011719c0.13281-0.023437 0.28125-0.027344 0.42969-0.011718 0.039063 0.003906 0.074219-0.027344 0.078125-0.066407 0.003906-0.039062-0.023438-0.074219-0.066406-0.078125-0.16016-0.015625-0.32031-0.011718-0.46875 0.011719-0.039063 0.003906-0.066406 0.042969-0.058594 0.082031 0.007812 0.039063 0.039062 0.0625 0.074219 0.0625z" fill="#eaaca3"/>
<path d="m9.0234 13.598c0.14062 0.042969 0.27344 0.10547 0.39062 0.17969 0.011719 0.007812 0.023438 0.011718 0.039063 0.011718 0.023437 0 0.046875-0.011718 0.0625-0.03125 0.019531-0.035156 0.011719-0.078124-0.023437-0.10156-0.125-0.082031-0.26953-0.14844-0.42578-0.19531-0.039062-0.015626-0.078125 0.007812-0.089844 0.046874-0.011718 0.035157 0.007813 0.078126 0.046876 0.089844z" fill="#eaaca3"/>
<path d="m8.4336 18.824c0.011718 0.011719 0.027344 0.015625 0.042968 0.015625 0.019532 0 0.042969-0.011719 0.058594-0.03125 0.023438-0.03125 0.015625-0.078125-0.015625-0.10156-0.12109-0.085937-0.23828-0.17969-0.34766-0.27344-0.03125-0.027344-0.078125-0.023438-0.10156 0.007812-0.027343 0.027344-0.023437 0.074219 0.007813 0.10156 0.10938 0.097656 0.23047 0.19141 0.35547 0.28125z" fill="#eaaca3"/>
<path d="m9.4531 19.328c-0.015625 0.039063 0 0.082031 0.035156 0.097656 0.13672 0.0625 0.27734 0.11719 0.42188 0.17188 0.007813 0.003906 0.015625 0.003906 0.027344 0.003906 0.027344 0 0.054688-0.019531 0.066406-0.046874 0.015625-0.039063-0.003906-0.078126-0.042968-0.09375-0.14063-0.050782-0.27734-0.10547-0.41406-0.16797-0.035156-0.015625-0.078125 0-0.09375 0.035156z" fill="#eaaca3"/>
<path d="m6.7344 15.305h0.011719c0.035156 0 0.066406-0.027344 0.070312-0.0625 0.019532-0.14844 0.050782-0.29297 0.09375-0.42578 0.011719-0.039062-0.007812-0.082031-0.046875-0.09375-0.039062-0.011718-0.082031 0.011719-0.089843 0.046875-0.046876 0.14844-0.078126 0.29688-0.097657 0.45312-0.007812 0.042969 0.023438 0.078125 0.058594 0.082032z" fill="#eaaca3"/>
<path d="m10.312 19.578c-0.039062-0.011719-0.082031 0.011719-0.089844 0.046875-0.015625 0.039062 0.007813 0.082031 0.046875 0.09375 0.14062 0.042969 0.28906 0.082031 0.4375 0.12109 0.003907 0.003906 0.011719 0.003906 0.019531 0.003906 0.03125 0 0.058594-0.023438 0.070313-0.054688 0.007813-0.039062-0.015625-0.078124-0.054687-0.089843-0.14453-0.035157-0.28906-0.074219-0.42969-0.12109z" fill="#eaaca3"/>
<path d="m11.836 19.961c-0.003907 0.039062 0.023437 0.074218 0.066406 0.078124 0.15234 0.015626 0.30078 0.023438 0.45312 0.027344 0.042969 0 0.070312-0.03125 0.074219-0.070312 0-0.039063-0.03125-0.074219-0.070313-0.074219-0.14844-0.003906-0.29688-0.011719-0.44531-0.027344-0.039062 0-0.074218 0.027344-0.078124 0.066407z" fill="#eaaca3"/>
<path d="m6.9492 14.512c0.007812 0.003906 0.019531 0.007812 0.03125 0.007812 0.027343 0 0.050781-0.015625 0.066406-0.042969 0.0625-0.13281 0.14453-0.25391 0.23047-0.36328 0.027344-0.03125 0.023437-0.078125-0.007813-0.10156-0.03125-0.027344-0.078125-0.019531-0.10156 0.011719-0.097657 0.11719-0.17969 0.25-0.25 0.39062-0.019531 0.035157-0.007813 0.078126 0.03125 0.097657z" fill="#eaaca3"/>
<path d="m8.7266 18.938c-0.023437 0.03125-0.011718 0.074219 0.023438 0.097656 0.125 0.078125 0.26172 0.15234 0.39844 0.22266 0.007812 0.007813 0.019531 0.007813 0.03125 0.007813 0.023437 0 0.050781-0.011719 0.066406-0.039063 0.015625-0.035156 0-0.078124-0.03125-0.097656-0.13672-0.070312-0.26562-0.14453-0.38672-0.21875-0.035156-0.019531-0.082031-0.007812-0.10156 0.027344z" fill="#eaaca3"/>
<path d="m7.8477 18.305c0.019532 0 0.039063-0.007813 0.050782-0.019532 0.03125-0.027344 0.03125-0.074218 0.003906-0.10547-0.10547-0.10547-0.20312-0.21484-0.29297-0.32813-0.027344-0.03125-0.070313-0.039062-0.10156-0.015624-0.03125 0.027343-0.035156 0.070312-0.011718 0.10156 0.089844 0.11719 0.19531 0.23438 0.30078 0.34375 0.015625 0.015625 0.035156 0.023438 0.050781 0.023438z" fill="#eaaca3"/>
<path d="m18.945 17.148c-0.097656 0.10937-0.20312 0.21875-0.30859 0.32422-0.027344 0.027344-0.027344 0.074219 0 0.10156 0.015625 0.015625 0.03125 0.023437 0.050781 0.023437s0.035156-0.007812 0.050781-0.023437c0.10547-0.10547 0.21484-0.21484 0.31641-0.32812 0.023437-0.027344 0.023437-0.074219-0.007813-0.10156-0.027344-0.027343-0.074219-0.027343-0.10156 0.003907z" fill="#eaaca3"/>
<path d="m15.57 19.391c-0.14062 0.050781-0.28125 0.10156-0.42187 0.14453-0.039063 0.011719-0.0625 0.050782-0.046876 0.089844 0.007813 0.03125 0.035157 0.050781 0.066407 0.050781 0.007812 0 0.015625 0 0.023437-0.003906 0.14062-0.046875 0.28906-0.09375 0.42969-0.14453 0.039062-0.015625 0.054687-0.054688 0.042968-0.09375-0.011718-0.035156-0.054687-0.054688-0.09375-0.042969z" fill="#eaaca3"/>
<path d="m18.367 17.727c-0.10938 0.097657-0.22656 0.19531-0.33984 0.28906-0.03125 0.023437-0.035156 0.070313-0.011719 0.10156 0.015625 0.015624 0.035156 0.027343 0.054687 0.027343 0.019532 0 0.035157-0.007812 0.046876-0.019531 0.11719-0.09375 0.23437-0.19141 0.34375-0.29297 0.03125-0.027343 0.035156-0.074219 0.007812-0.10156-0.027344-0.027344-0.074219-0.03125-0.10156-0.003907z" fill="#eaaca3"/>
<path d="m16.324 19.074c-0.13281 0.0625-0.26953 0.125-0.40625 0.18359-0.039063 0.011719-0.054688 0.054688-0.042969 0.09375 0.011719 0.027344 0.039062 0.042969 0.070312 0.042969 0.007813 0 0.015626 0 0.027344-0.003906 0.13672-0.058594 0.27734-0.12109 0.41406-0.18359 0.035156-0.019531 0.050781-0.0625 0.03125-0.097656-0.011719-0.035156-0.054688-0.050781-0.09375-0.035156z" fill="#eaaca3"/>
<path d="m17.051 18.691c-0.12891 0.074219-0.26172 0.14844-0.39062 0.21875-0.035156 0.015625-0.046875 0.058594-0.03125 0.097656 0.011719 0.023438 0.039063 0.035157 0.0625 0.035157 0.011719 0 0.023438 0 0.035156-0.007813 0.13281-0.070312 0.26563-0.14453 0.39844-0.22266 0.03125-0.019531 0.042969-0.0625 0.023438-0.097656-0.019532-0.03125-0.066407-0.042969-0.097657-0.023438z" fill="#eaaca3"/>
<path d="m17.73 18.242c-0.11719 0.085937-0.24219 0.17187-0.36719 0.25-0.03125 0.023437-0.042969 0.070312-0.019531 0.10156 0.011719 0.023438 0.035156 0.03125 0.058594 0.03125 0.015625 0 0.027344-0.003906 0.042968-0.011719 0.125-0.082031 0.25-0.17188 0.37109-0.25781 0.03125-0.023438 0.039063-0.070313 0.015625-0.10156-0.023437-0.03125-0.066406-0.035156-0.10156-0.011718z" fill="#eaaca3"/>
<path d="m20.742 14.328c-0.035157-0.019531-0.078126 0-0.09375 0.035156-0.066407 0.13672-0.13281 0.27344-0.19141 0.40625-0.019531 0.035157-0.003906 0.078125 0.03125 0.097657 0.011719 0.003906 0.019531 0.003906 0.03125 0.003906 0.027344 0 0.054688-0.015625 0.066407-0.039063 0.0625-0.13281 0.125-0.27344 0.19141-0.40625 0.019531-0.035156 0-0.078125-0.035156-0.097656z" fill="#eaaca3"/>
<path d="m20.391 15.074c-0.035156-0.015625-0.078125 0-0.09375 0.035156-0.074219 0.15625-0.13672 0.28516-0.19922 0.40234-0.019531 0.035156-0.007812 0.078125 0.03125 0.097656 0.007813 0.003906 0.019532 0.007813 0.03125 0.007813 0.027344 0 0.050782-0.015626 0.066406-0.039063 0.058594-0.12109 0.125-0.25 0.19922-0.40625 0.015625-0.035156 0.003907-0.082031-0.035156-0.097656z" fill="#eaaca3"/>
<path d="m20.016 15.809c-0.03125-0.019532-0.078125-0.007813-0.097656 0.027344-0.027344 0.042968-0.050781 0.085937-0.074219 0.12891-0.050781 0.082031-0.10547 0.16797-0.16406 0.25-0.019532 0.035156-0.011719 0.078125 0.019531 0.10156 0.015625 0.007813 0.027343 0.011719 0.042969 0.011719 0.023437 0 0.046874-0.011719 0.058593-0.03125 0.054688-0.085937 0.11328-0.17188 0.16406-0.25781 0.023437-0.039062 0.050781-0.085937 0.078125-0.12891 0.019531-0.035156 0.007812-0.078125-0.027344-0.10156z" fill="#eaaca3"/>
<path d="m19.57 16.504c-0.035156-0.023437-0.078124-0.015625-0.10156 0.015625-0.089844 0.11719-0.18359 0.23438-0.27734 0.34766-0.027344 0.03125-0.023437 0.078124 0.007813 0.10156 0.011719 0.011719 0.03125 0.019531 0.046875 0.019531 0.019531 0 0.042968-0.011719 0.054687-0.027343 0.097657-0.11719 0.19531-0.23828 0.28125-0.35547 0.023438-0.035157 0.019531-0.078125-0.011719-0.10156z" fill="#eaaca3"/>
<path d="m21.137 13.602c-0.035157-0.019531-0.082031-0.007812-0.10156 0.027344-0.070312 0.12109-0.14453 0.25-0.21875 0.39844-0.019531 0.035156-0.007812 0.078125 0.03125 0.097656 0.007813 0.003906 0.019532 0.003906 0.03125 0.003906 0.023438 0 0.050782-0.011718 0.066406-0.039062 0.074219-0.14453 0.14453-0.26953 0.21484-0.39062 0.019532-0.03125 0.011719-0.078125-0.023437-0.097657z" fill="#eaaca3"/>
<path d="m6.9648 16.926c0.007812 0 0.015625 0 0.023437-0.003906 0.039063-0.015625 0.058594-0.054687 0.042969-0.09375-0.050781-0.13281-0.09375-0.27734-0.12891-0.42188-0.011719-0.035156-0.050782-0.0625-0.089844-0.050781-0.035156 0.007812-0.0625 0.046875-0.050781 0.085937 0.035156 0.14844 0.082031 0.29688 0.13281 0.4375 0.011719 0.03125 0.039063 0.046875 0.070313 0.046875z" fill="#eaaca3"/>
<path d="m7.1758 17.164c-0.015625-0.035156-0.058593-0.050781-0.097656-0.03125-0.035156 0.019532-0.050781 0.0625-0.03125 0.097657 0.066406 0.13672 0.14453 0.26953 0.22656 0.39844 0.015624 0.023438 0.039062 0.03125 0.0625 0.03125 0.011718 0 0.027343-0.003906 0.039062-0.007812 0.035156-0.023438 0.042969-0.070313 0.023438-0.10156-0.082032-0.125-0.15625-0.25391-0.22266-0.38672z" fill="#eaaca3"/>
<path d="m14.789 19.637c-0.14453 0.039062-0.28906 0.070312-0.43359 0.10156-0.039063 0.011719-0.0625 0.046875-0.058594 0.085938 0.007813 0.035156 0.039063 0.058593 0.074219 0.058593 0.003906 0 0.007812 0 0.011718-0.003906 0.14844-0.03125 0.29688-0.066406 0.44141-0.10547 0.039062-0.007813 0.0625-0.050782 0.050781-0.085938-0.007812-0.039062-0.046875-0.0625-0.085938-0.050781z" fill="#eaaca3"/>
<path d="m6.7695 16.129c0.039063-0.003906 0.066407-0.042968 0.0625-0.082031-0.007812-0.058594-0.015625-0.11719-0.023437-0.17578-0.007813-0.085938-0.011719-0.17188-0.011719-0.26172 0-0.039063-0.035156-0.074219-0.074219-0.074219-0.039062 0-0.070312 0.035156-0.070312 0.074219 0 0.09375 0.003906 0.18359 0.011718 0.27344 0.007813 0.0625 0.015626 0.125 0.023438 0.18359 0.007812 0.035156 0.039062 0.0625 0.074219 0.0625h0.007812z" fill="#eaaca3"/>
<path d="m7.5312 13.859c0.11328-0.089844 0.23438-0.16406 0.36719-0.22266 0.035156-0.015625 0.054687-0.058594 0.039062-0.097657-0.019531-0.035156-0.058594-0.050781-0.097656-0.035156-0.14453 0.058594-0.27734 0.14062-0.39844 0.24219-0.03125 0.023437-0.039062 0.070312-0.011718 0.10156 0.015624 0.015625 0.035156 0.027344 0.054687 0.027344 0.015625 0 0.035156-0.003906 0.046875-0.015625z" fill="#eaaca3"/>
<path d="m11.535 19.996c0.035156 0 0.066406-0.027344 0.074219-0.0625 0.003906-0.039063-0.023437-0.074219-0.0625-0.082032-0.14844-0.019531-0.29688-0.042968-0.44141-0.074218-0.039063-0.003906-0.078125 0.019531-0.085938 0.058594-0.003906 0.039062 0.019531 0.078124 0.058594 0.085937 0.14844 0.027344 0.29688 0.050781 0.44922 0.074219h0.007812z" fill="#eaaca3"/>
<path d="m13.988 19.809c-0.14453 0.027344-0.29297 0.046875-0.44141 0.0625-0.039063 0.003906-0.066406 0.039062-0.0625 0.078125 0.003906 0.039062 0.035156 0.066406 0.074219 0.066406h0.007812c0.14844-0.019531 0.30078-0.039063 0.44922-0.066406 0.039063-0.003907 0.0625-0.042969 0.058594-0.082031-0.007813-0.039063-0.046875-0.066407-0.085938-0.058594z" fill="#eaaca3"/>
<path d="m13.176 19.906c-0.13672 0.007812-0.27734 0.015625-0.41406 0.015625 0.007812-0.023437 0-0.054687-0.023438-0.074219-0.03125-0.023437-0.078125-0.019531-0.10156 0.011719-0.085938 0.10938-0.17578 0.21484-0.26562 0.31641-0.007813 0.011719-0.015625 0.019531-0.023438 0.03125-0.027344 0.03125-0.023437 0.074219 0.003906 0.10156 0.015626 0.011718 0.03125 0.015625 0.050782 0.015625 0.019531 0 0.039062-0.007813 0.050781-0.023438 0.011719-0.011719 0.019531-0.019531 0.027344-0.03125 0.066406-0.074219 0.13281-0.15234 0.19531-0.23047 0.011719 0.015626 0.035157 0.027344 0.054688 0.027344h0.003906c0.14844 0 0.30078-0.007812 0.45312-0.019531 0.039062-0.003906 0.070312-0.039063 0.066406-0.078125-0.003906-0.035156-0.039062-0.066406-0.078125-0.0625z" fill="#eaaca3"/>
<path d="m21.48 13.117c-0.03125-0.027344-0.078125-0.019532-0.10156 0.011718-0.046875 0.054688-0.089844 0.11328-0.13281 0.17578-0.023438 0.035156-0.015625 0.078124 0.019531 0.10156 0.011719 0.011719 0.027344 0.011719 0.039063 0.011719 0.023437 0 0.046874-0.007813 0.0625-0.027344 0.039062-0.0625 0.082031-0.12109 0.125-0.17188 0.023437-0.03125 0.019531-0.078125-0.011719-0.10156z" fill="#eaaca3"/>
<g clip-path="url(#a)">
<path d="m1.6719 25.316c0 0.097656-0.035156 0.17969-0.10547 0.24609-0.066406 0.070312-0.15234 0.10547-0.25 0.10547s-0.17969-0.035157-0.24609-0.10547c-0.070312-0.066406-0.10547-0.14844-0.10547-0.24609s0.035156-0.18359 0.10547-0.25c0.066407-0.070312 0.14844-0.10547 0.24609-0.10547s0.18359 0.035156 0.25 0.10547c0.070313 0.066406 0.10547 0.15234 0.10547 0.25z" fill="#eaaca3"/>
</g>
<g clip-path="url(#b)">
<path d="m1.3164 24.5c-0.44922 0-0.8125 0.36719-0.8125 0.81641 0 0.44531 0.36328 0.8125 0.8125 0.8125 0.44922 0 0.81641-0.36719 0.81641-0.8125 0-0.44922-0.36719-0.81641-0.81641-0.81641zm0 1.4102c-0.32812 0-0.59375-0.26953-0.59375-0.59766s0.26562-0.59766 0.59375-0.59766c0.33203 0 0.59766 0.26953 0.59766 0.59766s-0.26953 0.59766-0.59766 0.59766z" fill="#eaaca3"/>
</g>
</svg>
