<svg xmlns="http://www.w3.org/2000/svg" xmlns:xlink="http://www.w3.org/1999/xlink" width="500" zoomAndPan="magnify" viewBox="0 0 375 374.999991" height="500" preserveAspectRatio="xMidYMid meet" version="1.0"><defs><g/></defs><g fill="#7e6449" fill-opacity="1"><g transform="translate(127.739791, 192.708322)"><g><path d="M 10.484375 -10.5 L 10.484375 0 L 9.5625 0 L 2.8125 -8.515625 L 2.8125 0 L 1.703125 0 L 1.703125 -10.5 L 2.625 -10.5 L 9.390625 -1.984375 L 9.390625 -10.5 Z M 10.484375 -10.5 "/></g></g></g><g fill="#7e6449" fill-opacity="1"><g transform="translate(139.935701, 192.708322)"><g><path d="M 6.296875 0.09375 C 5.253906 0.09375 4.3125 -0.140625 3.46875 -0.609375 C 2.625 -1.078125 1.960938 -1.710938 1.484375 -2.515625 C 1.015625 -3.328125 0.78125 -4.238281 0.78125 -5.25 C 0.78125 -6.257812 1.015625 -7.164062 1.484375 -7.96875 C 1.960938 -8.78125 2.625 -9.421875 3.46875 -9.890625 C 4.3125 -10.359375 5.253906 -10.59375 6.296875 -10.59375 C 7.335938 -10.59375 8.273438 -10.359375 9.109375 -9.890625 C 9.941406 -9.429688 10.597656 -8.796875 11.078125 -7.984375 C 11.566406 -7.171875 11.8125 -6.257812 11.8125 -5.25 C 11.8125 -4.238281 11.566406 -3.328125 11.078125 -2.515625 C 10.597656 -1.703125 9.941406 -1.0625 9.109375 -0.59375 C 8.273438 -0.132812 7.335938 0.09375 6.296875 0.09375 Z M 6.296875 -0.90625 C 7.128906 -0.90625 7.878906 -1.09375 8.546875 -1.46875 C 9.222656 -1.84375 9.75 -2.359375 10.125 -3.015625 C 10.5 -3.679688 10.6875 -4.425781 10.6875 -5.25 C 10.6875 -6.070312 10.5 -6.8125 10.125 -7.46875 C 9.75 -8.132812 9.222656 -8.65625 8.546875 -9.03125 C 7.878906 -9.40625 7.128906 -9.59375 6.296875 -9.59375 C 5.472656 -9.59375 4.722656 -9.40625 4.046875 -9.03125 C 3.367188 -8.65625 2.835938 -8.132812 2.453125 -7.46875 C 2.066406 -6.8125 1.875 -6.070312 1.875 -5.25 C 1.875 -4.425781 2.066406 -3.679688 2.453125 -3.015625 C 2.835938 -2.359375 3.367188 -1.84375 4.046875 -1.46875 C 4.722656 -1.09375 5.472656 -0.90625 6.296875 -0.90625 Z M 6.296875 -0.90625 "/></g></g></g><g fill="#7e6449" fill-opacity="1"><g transform="translate(152.521644, 192.708322)"><g><path d="M 4.609375 0.09375 C 3.828125 0.09375 3.078125 -0.03125 2.359375 -0.28125 C 1.648438 -0.53125 1.097656 -0.863281 0.703125 -1.28125 L 1.140625 -2.125 C 1.515625 -1.75 2.015625 -1.441406 2.640625 -1.203125 C 3.273438 -0.972656 3.929688 -0.859375 4.609375 -0.859375 C 5.546875 -0.859375 6.25 -1.03125 6.71875 -1.375 C 7.1875 -1.71875 7.421875 -2.164062 7.421875 -2.71875 C 7.421875 -3.132812 7.289062 -3.46875 7.03125 -3.71875 C 6.78125 -3.96875 6.46875 -4.160156 6.09375 -4.296875 C 5.726562 -4.429688 5.21875 -4.578125 4.5625 -4.734375 C 3.769531 -4.941406 3.140625 -5.132812 2.671875 -5.3125 C 2.203125 -5.5 1.796875 -5.78125 1.453125 -6.15625 C 1.117188 -6.539062 0.953125 -7.054688 0.953125 -7.703125 C 0.953125 -8.234375 1.09375 -8.71875 1.375 -9.15625 C 1.65625 -9.59375 2.085938 -9.941406 2.671875 -10.203125 C 3.253906 -10.460938 3.972656 -10.59375 4.828125 -10.59375 C 5.429688 -10.59375 6.019531 -10.507812 6.59375 -10.34375 C 7.164062 -10.175781 7.660156 -9.945312 8.078125 -9.65625 L 7.703125 -8.78125 C 7.265625 -9.0625 6.796875 -9.273438 6.296875 -9.421875 C 5.796875 -9.566406 5.304688 -9.640625 4.828125 -9.640625 C 3.910156 -9.640625 3.21875 -9.460938 2.75 -9.109375 C 2.289062 -8.753906 2.0625 -8.296875 2.0625 -7.734375 C 2.0625 -7.316406 2.1875 -6.976562 2.4375 -6.71875 C 2.6875 -6.46875 3.003906 -6.273438 3.390625 -6.140625 C 3.773438 -6.003906 4.296875 -5.859375 4.953125 -5.703125 C 5.722656 -5.515625 6.34375 -5.328125 6.8125 -5.140625 C 7.289062 -4.953125 7.691406 -4.671875 8.015625 -4.296875 C 8.347656 -3.921875 8.515625 -3.414062 8.515625 -2.78125 C 8.515625 -2.25 8.375 -1.765625 8.09375 -1.328125 C 7.8125 -0.890625 7.375 -0.539062 6.78125 -0.28125 C 6.1875 -0.03125 5.460938 0.09375 4.609375 0.09375 Z M 4.609375 0.09375 "/></g></g></g><g fill="#7e6449" fill-opacity="1"><g transform="translate(161.747337, 192.708322)"><g/></g></g><g fill="#7e6449" fill-opacity="1"><g transform="translate(165.677633, 192.708322)"><g><path d="M 6.265625 0.09375 C 5.222656 0.09375 4.285156 -0.132812 3.453125 -0.59375 C 2.617188 -1.0625 1.960938 -1.703125 1.484375 -2.515625 C 1.015625 -3.328125 0.78125 -4.238281 0.78125 -5.25 C 0.78125 -6.257812 1.015625 -7.171875 1.484375 -7.984375 C 1.960938 -8.796875 2.617188 -9.429688 3.453125 -9.890625 C 4.296875 -10.359375 5.238281 -10.59375 6.28125 -10.59375 C 7.0625 -10.59375 7.78125 -10.460938 8.4375 -10.203125 C 9.101562 -9.941406 9.664062 -9.5625 10.125 -9.0625 L 9.421875 -8.359375 C 8.597656 -9.179688 7.5625 -9.59375 6.3125 -9.59375 C 5.476562 -9.59375 4.722656 -9.398438 4.046875 -9.015625 C 3.367188 -8.640625 2.835938 -8.125 2.453125 -7.46875 C 2.066406 -6.8125 1.875 -6.070312 1.875 -5.25 C 1.875 -4.425781 2.066406 -3.6875 2.453125 -3.03125 C 2.835938 -2.375 3.367188 -1.851562 4.046875 -1.46875 C 4.722656 -1.09375 5.476562 -0.90625 6.3125 -0.90625 C 7.570312 -0.90625 8.609375 -1.320312 9.421875 -2.15625 L 10.125 -1.453125 C 9.664062 -0.953125 9.101562 -0.566406 8.4375 -0.296875 C 7.769531 -0.0351562 7.046875 0.09375 6.265625 0.09375 Z M 6.265625 0.09375 "/></g></g></g><g fill="#7e6449" fill-opacity="1"><g transform="translate(176.463437, 192.708322)"><g><path d="M 8.296875 -2.8125 L 2.4375 -2.8125 L 1.1875 0 L 0.03125 0 L 4.828125 -10.5 L 5.921875 -10.5 L 10.71875 0 L 9.5625 0 Z M 7.890625 -3.703125 L 5.375 -9.34375 L 2.84375 -3.703125 Z M 7.890625 -3.703125 "/></g></g></g><g fill="#7e6449" fill-opacity="1"><g transform="translate(187.21924, 192.708322)"><g><path d="M 4.609375 0.09375 C 3.828125 0.09375 3.078125 -0.03125 2.359375 -0.28125 C 1.648438 -0.53125 1.097656 -0.863281 0.703125 -1.28125 L 1.140625 -2.125 C 1.515625 -1.75 2.015625 -1.441406 2.640625 -1.203125 C 3.273438 -0.972656 3.929688 -0.859375 4.609375 -0.859375 C 5.546875 -0.859375 6.25 -1.03125 6.71875 -1.375 C 7.1875 -1.71875 7.421875 -2.164062 7.421875 -2.71875 C 7.421875 -3.132812 7.289062 -3.46875 7.03125 -3.71875 C 6.78125 -3.96875 6.46875 -4.160156 6.09375 -4.296875 C 5.726562 -4.429688 5.21875 -4.578125 4.5625 -4.734375 C 3.769531 -4.941406 3.140625 -5.132812 2.671875 -5.3125 C 2.203125 -5.5 1.796875 -5.78125 1.453125 -6.15625 C 1.117188 -6.539062 0.953125 -7.054688 0.953125 -7.703125 C 0.953125 -8.234375 1.09375 -8.71875 1.375 -9.15625 C 1.65625 -9.59375 2.085938 -9.941406 2.671875 -10.203125 C 3.253906 -10.460938 3.972656 -10.59375 4.828125 -10.59375 C 5.429688 -10.59375 6.019531 -10.507812 6.59375 -10.34375 C 7.164062 -10.175781 7.660156 -9.945312 8.078125 -9.65625 L 7.703125 -8.78125 C 7.265625 -9.0625 6.796875 -9.273438 6.296875 -9.421875 C 5.796875 -9.566406 5.304688 -9.640625 4.828125 -9.640625 C 3.910156 -9.640625 3.21875 -9.460938 2.75 -9.109375 C 2.289062 -8.753906 2.0625 -8.296875 2.0625 -7.734375 C 2.0625 -7.316406 2.1875 -6.976562 2.4375 -6.71875 C 2.6875 -6.46875 3.003906 -6.273438 3.390625 -6.140625 C 3.773438 -6.003906 4.296875 -5.859375 4.953125 -5.703125 C 5.722656 -5.515625 6.34375 -5.328125 6.8125 -5.140625 C 7.289062 -4.953125 7.691406 -4.671875 8.015625 -4.296875 C 8.347656 -3.921875 8.515625 -3.414062 8.515625 -2.78125 C 8.515625 -2.25 8.375 -1.765625 8.09375 -1.328125 C 7.8125 -0.890625 7.375 -0.539062 6.78125 -0.28125 C 6.1875 -0.03125 5.460938 0.09375 4.609375 0.09375 Z M 4.609375 0.09375 "/></g></g></g><g fill="#7e6449" fill-opacity="1"><g transform="translate(196.444932, 192.708322)"><g><path d="M 8.296875 -2.8125 L 2.4375 -2.8125 L 1.1875 0 L 0.03125 0 L 4.828125 -10.5 L 5.921875 -10.5 L 10.71875 0 L 9.5625 0 Z M 7.890625 -3.703125 L 5.375 -9.34375 L 2.84375 -3.703125 Z M 7.890625 -3.703125 "/></g></g></g><g fill="#7e6449" fill-opacity="1"><g transform="translate(207.200734, 192.708322)"><g><path d="M 12.609375 -10.5 L 12.609375 0 L 11.546875 0 L 11.546875 -8.40625 L 7.421875 -1.328125 L 6.90625 -1.328125 L 2.78125 -8.359375 L 2.78125 0 L 1.703125 0 L 1.703125 -10.5 L 2.625 -10.5 L 7.1875 -2.71875 L 11.703125 -10.5 Z M 12.609375 -10.5 "/></g></g></g><g fill="#7e6449" fill-opacity="1"><g transform="translate(221.526808, 192.708322)"><g><path d="M 6.296875 0.09375 C 5.253906 0.09375 4.3125 -0.140625 3.46875 -0.609375 C 2.625 -1.078125 1.960938 -1.710938 1.484375 -2.515625 C 1.015625 -3.328125 0.78125 -4.238281 0.78125 -5.25 C 0.78125 -6.257812 1.015625 -7.164062 1.484375 -7.96875 C 1.960938 -8.78125 2.625 -9.421875 3.46875 -9.890625 C 4.3125 -10.359375 5.253906 -10.59375 6.296875 -10.59375 C 7.335938 -10.59375 8.273438 -10.359375 9.109375 -9.890625 C 9.941406 -9.429688 10.597656 -8.796875 11.078125 -7.984375 C 11.566406 -7.171875 11.8125 -6.257812 11.8125 -5.25 C 11.8125 -4.238281 11.566406 -3.328125 11.078125 -2.515625 C 10.597656 -1.703125 9.941406 -1.0625 9.109375 -0.59375 C 8.273438 -0.132812 7.335938 0.09375 6.296875 0.09375 Z M 6.296875 -0.90625 C 7.128906 -0.90625 7.878906 -1.09375 8.546875 -1.46875 C 9.222656 -1.84375 9.75 -2.359375 10.125 -3.015625 C 10.5 -3.679688 10.6875 -4.425781 10.6875 -5.25 C 10.6875 -6.070312 10.5 -6.8125 10.125 -7.46875 C 9.75 -8.132812 9.222656 -8.65625 8.546875 -9.03125 C 7.878906 -9.40625 7.128906 -9.59375 6.296875 -9.59375 C 5.472656 -9.59375 4.722656 -9.40625 4.046875 -9.03125 C 3.367188 -8.65625 2.835938 -8.132812 2.453125 -7.46875 C 2.066406 -6.8125 1.875 -6.070312 1.875 -5.25 C 1.875 -4.425781 2.066406 -3.679688 2.453125 -3.015625 C 2.835938 -2.359375 3.367188 -1.84375 4.046875 -1.46875 C 4.722656 -1.09375 5.472656 -0.90625 6.296875 -0.90625 Z M 6.296875 -0.90625 "/></g></g></g><g fill="#7e6449" fill-opacity="1"><g transform="translate(234.112752, 192.708322)"><g><path d="M 4.609375 0.09375 C 3.828125 0.09375 3.078125 -0.03125 2.359375 -0.28125 C 1.648438 -0.53125 1.097656 -0.863281 0.703125 -1.28125 L 1.140625 -2.125 C 1.515625 -1.75 2.015625 -1.441406 2.640625 -1.203125 C 3.273438 -0.972656 3.929688 -0.859375 4.609375 -0.859375 C 5.546875 -0.859375 6.25 -1.03125 6.71875 -1.375 C 7.1875 -1.71875 7.421875 -2.164062 7.421875 -2.71875 C 7.421875 -3.132812 7.289062 -3.46875 7.03125 -3.71875 C 6.78125 -3.96875 6.46875 -4.160156 6.09375 -4.296875 C 5.726562 -4.429688 5.21875 -4.578125 4.5625 -4.734375 C 3.769531 -4.941406 3.140625 -5.132812 2.671875 -5.3125 C 2.203125 -5.5 1.796875 -5.78125 1.453125 -6.15625 C 1.117188 -6.539062 0.953125 -7.054688 0.953125 -7.703125 C 0.953125 -8.234375 1.09375 -8.71875 1.375 -9.15625 C 1.65625 -9.59375 2.085938 -9.941406 2.671875 -10.203125 C 3.253906 -10.460938 3.972656 -10.59375 4.828125 -10.59375 C 5.429688 -10.59375 6.019531 -10.507812 6.59375 -10.34375 C 7.164062 -10.175781 7.660156 -9.945312 8.078125 -9.65625 L 7.703125 -8.78125 C 7.265625 -9.0625 6.796875 -9.273438 6.296875 -9.421875 C 5.796875 -9.566406 5.304688 -9.640625 4.828125 -9.640625 C 3.910156 -9.640625 3.21875 -9.460938 2.75 -9.109375 C 2.289062 -8.753906 2.0625 -8.296875 2.0625 -7.734375 C 2.0625 -7.316406 2.1875 -6.976562 2.4375 -6.71875 C 2.6875 -6.46875 3.003906 -6.273438 3.390625 -6.140625 C 3.773438 -6.003906 4.296875 -5.859375 4.953125 -5.703125 C 5.722656 -5.515625 6.34375 -5.328125 6.8125 -5.140625 C 7.289062 -4.953125 7.691406 -4.671875 8.015625 -4.296875 C 8.347656 -3.921875 8.515625 -3.414062 8.515625 -2.78125 C 8.515625 -2.25 8.375 -1.765625 8.09375 -1.328125 C 7.8125 -0.890625 7.375 -0.539062 6.78125 -0.28125 C 6.1875 -0.03125 5.460938 0.09375 4.609375 0.09375 Z M 4.609375 0.09375 "/></g></g></g><g fill="#7e6449" fill-opacity="1"><g transform="translate(243.333585, 192.708322)"><g/></g></g></svg>