<?xml version="1.0" encoding="UTF-8"?>
<svg width="500" height="300" version="1.0" viewBox="0 0 375 225" xmlns="http://www.w3.org/2000/svg" zoomAndPan="magnify">
<defs/>
<rect x="-37.5" y="-22.5" width="450" height="270" fill="#fff"/>
<rect x="-37.5" y="-22.5" width="450" height="270" fill="#fff"/>
<rect x="-37.5" y="-22.5" width="450" height="270" fill="#fff"/>
<g fill="#bf6a66">
<g transform="translate(127.42 44.376)">
<path d="m9.0625 0.28125c-2.3047 0-4.0938-0.63281-5.375-1.9062-1.2812-1.2812-1.9219-3.0977-1.9219-5.4531v-9.0156h3.7344v8.875c0 2.8867 1.1914 4.3281 3.5781 4.3281 1.1641 0 2.0547-0.34766 2.6719-1.0469 0.61328-0.69531 0.92188-1.7891 0.92188-3.2812v-8.875h3.6875v9.0156c0 2.3555-0.64062 4.1719-1.9219 5.4531-1.2812 1.2734-3.0742 1.9062-5.375 1.9062z"/>
</g>
</g>
<g fill="#bf6a66">
<g transform="translate(145.54 44.376)">
<path d="m8.9688-12.562c1.1445 0 2.1914 0.26562 3.1406 0.79688 0.94531 0.53125 1.6875 1.2773 2.2188 2.2344 0.53906 0.96094 0.8125 2.0742 0.8125 3.3438 0 1.2734-0.27344 2.3867-0.8125 3.3438-0.53125 0.96094-1.2734 1.7031-2.2188 2.2344-0.94922 0.53125-1.9961 0.79688-3.1406 0.79688-1.6992 0-2.9961-0.53516-3.8906-1.6094v1.4219h-3.4219v-17.062h3.5938v6c0.89453-1 2.1328-1.5 3.7188-1.5zm-0.625 9.7969c0.92578 0 1.6797-0.30469 2.2656-0.92188 0.59375-0.625 0.89062-1.457 0.89062-2.5 0-1.0391-0.29688-1.8672-0.89062-2.4844-0.58594-0.625-1.3398-0.9375-2.2656-0.9375-0.91797 0-1.6719 0.3125-2.2656 0.9375-0.58594 0.61719-0.875 1.4453-0.875 2.4844 0 1.043 0.28906 1.875 0.875 2.5 0.59375 0.61719 1.3477 0.92188 2.2656 0.92188z"/>
</g>
</g>
<g fill="#bf6a66">
<g transform="translate(161.41 44.376)">
<path d="m1.6562-12.375h3.5938v12.375h-3.5938zm1.7812-1.7188c-0.65625 0-1.1953-0.19141-1.6094-0.57812-0.40625-0.38281-0.60938-0.85938-0.60938-1.4219 0-0.57031 0.20312-1.0469 0.60938-1.4219 0.41406-0.38281 0.95312-0.57812 1.6094-0.57812 0.66406 0 1.2031 0.18359 1.6094 0.54688 0.41406 0.36719 0.625 0.82422 0.625 1.375 0 0.60547-0.21094 1.1055-0.625 1.5-0.40625 0.38672-0.94531 0.57812-1.6094 0.57812z"/>
</g>
</g>
<g fill="#bf6a66">
<g transform="translate(168.33 44.376)">
<path d="m7.6406 0.1875c-1.3242 0-2.5117-0.26953-3.5625-0.8125-1.0547-0.55078-1.875-1.3047-2.4688-2.2656-0.58594-0.96875-0.875-2.0664-0.875-3.2969 0-1.2266 0.28906-2.3203 0.875-3.2812 0.59375-0.96875 1.4141-1.7227 2.4688-2.2656 1.0508-0.55078 2.2383-0.82812 3.5625-0.82812 1.3008 0 2.4375 0.27734 3.4062 0.82812 0.97656 0.54297 1.6875 1.3203 2.125 2.3281l-2.7812 1.5c-0.63672-1.1328-1.5625-1.7031-2.7812-1.7031-0.9375 0-1.7148 0.30859-2.3281 0.92188-0.60547 0.60547-0.90625 1.4375-0.90625 2.5s0.30078 1.9023 0.90625 2.5156c0.61328 0.60547 1.3906 0.90625 2.3281 0.90625 1.2266 0 2.1562-0.56641 2.7812-1.7031l2.7812 1.5312c-0.4375 0.98047-1.1484 1.7461-2.125 2.2969-0.96875 0.55469-2.1055 0.82812-3.4062 0.82812z"/>
</g>
</g>
<g fill="#bf6a66">
<g transform="translate(181.92 44.376)">
<path d="m6.6406-12.562c1.9141 0 3.3906 0.46094 4.4219 1.375 1.0312 0.90625 1.5469 2.2812 1.5469 4.125v7.0625h-3.3594v-1.5469c-0.67969 1.1562-1.9375 1.7344-3.7812 1.7344-0.94922 0-1.7734-0.16406-2.4688-0.48438-0.69922-0.32031-1.2344-0.76562-1.6094-1.3281-0.36719-0.57031-0.54688-1.2188-0.54688-1.9375 0-1.1562 0.42969-2.0625 1.2969-2.7188 0.875-0.65625 2.2109-0.98438 4.0156-0.98438h2.8594c0-0.78125-0.24219-1.3789-0.71875-1.7969-0.46875-0.42578-1.1836-0.64062-2.1406-0.64062-0.65625 0-1.3047 0.10547-1.9375 0.3125-0.63672 0.21094-1.1797 0.48438-1.625 0.82812l-1.2812-2.5c0.67578-0.47656 1.4844-0.84766 2.4219-1.1094 0.94531-0.25781 1.9141-0.39062 2.9062-0.39062zm-0.26562 10.328c0.61328 0 1.1562-0.14062 1.625-0.42188 0.47656-0.28125 0.81641-0.69531 1.0156-1.25v-1.2656h-2.4531c-1.4805 0-2.2188 0.48438-2.2188 1.4531 0 0.46094 0.17578 0.82422 0.53125 1.0938 0.36328 0.26172 0.86328 0.39062 1.5 0.39062z"/>
</g>
</g>
<g fill="#bf6a66">
<g transform="translate(196.11 44.376)">
<path d="m7.6406 0.1875c-1.3242 0-2.5117-0.26953-3.5625-0.8125-1.0547-0.55078-1.875-1.3047-2.4688-2.2656-0.58594-0.96875-0.875-2.0664-0.875-3.2969 0-1.2266 0.28906-2.3203 0.875-3.2812 0.59375-0.96875 1.4141-1.7227 2.4688-2.2656 1.0508-0.55078 2.2383-0.82812 3.5625-0.82812 1.3008 0 2.4375 0.27734 3.4062 0.82812 0.97656 0.54297 1.6875 1.3203 2.125 2.3281l-2.7812 1.5c-0.63672-1.1328-1.5625-1.7031-2.7812-1.7031-0.9375 0-1.7148 0.30859-2.3281 0.92188-0.60547 0.60547-0.90625 1.4375-0.90625 2.5s0.30078 1.9023 0.90625 2.5156c0.61328 0.60547 1.3906 0.90625 2.3281 0.90625 1.2266 0 2.1562-0.56641 2.7812-1.7031l2.7812 1.5312c-0.4375 0.98047-1.1484 1.7461-2.125 2.2969-0.96875 0.55469-2.1055 0.82812-3.4062 0.82812z"/>
</g>
</g>
<g fill="#bf6a66">
<g transform="translate(209.7 44.376)">
<path d="m1.6562-12.375h3.5938v12.375h-3.5938zm1.7812-1.7188c-0.65625 0-1.1953-0.19141-1.6094-0.57812-0.40625-0.38281-0.60938-0.85938-0.60938-1.4219 0-0.57031 0.20312-1.0469 0.60938-1.4219 0.41406-0.38281 0.95312-0.57812 1.6094-0.57812 0.66406 0 1.2031 0.18359 1.6094 0.54688 0.41406 0.36719 0.625 0.82422 0.625 1.375 0 0.60547-0.21094 1.1055-0.625 1.5-0.40625 0.38672-0.94531 0.57812-1.6094 0.57812z"/>
</g>
</g>
<g fill="#bf6a66">
<g transform="translate(216.62 44.376)">
<path d="m7.5469 0.1875c-1.3047 0-2.4766-0.26953-3.5156-0.8125-1.0312-0.55078-1.8398-1.3047-2.4219-2.2656-0.58594-0.96875-0.875-2.0664-0.875-3.2969 0-1.2266 0.28906-2.3203 0.875-3.2812 0.58203-0.96875 1.3906-1.7227 2.4219-2.2656 1.0391-0.55078 2.2109-0.82812 3.5156-0.82812 1.3008 0 2.4609 0.27734 3.4844 0.82812 1.0312 0.54297 1.8359 1.2969 2.4219 2.2656 0.58203 0.96094 0.875 2.0547 0.875 3.2812 0 1.2305-0.29297 2.3281-0.875 3.2969-0.58594 0.96094-1.3906 1.7148-2.4219 2.2656-1.0234 0.54297-2.1836 0.8125-3.4844 0.8125zm0-2.9531c0.91406 0 1.6641-0.30469 2.25-0.92188 0.59375-0.625 0.89062-1.457 0.89062-2.5 0-1.0391-0.29688-1.8672-0.89062-2.4844-0.58594-0.625-1.3359-0.9375-2.25-0.9375-0.92969 0-1.6875 0.3125-2.2812 0.9375-0.59375 0.61719-0.89062 1.4453-0.89062 2.4844 0 1.043 0.29688 1.875 0.89062 2.5 0.59375 0.61719 1.3516 0.92188 2.2812 0.92188zm0.95312-14.5h3.8594l-4.1562 3.2969h-2.8125z"/>
</g>
</g>
<g fill="#bf6a66">
<g transform="translate(231.68 44.376)">
<path d="m9.1719-12.562c1.5391 0 2.7812 0.46484 3.7188 1.3906 0.94531 0.91797 1.4219 2.2812 1.4219 4.0938v7.0781h-3.5938v-6.5312c0-0.97656-0.21484-1.707-0.64062-2.1875-0.42969-0.48828-1.0469-0.73438-1.8594-0.73438-0.90625 0-1.6328 0.28125-2.1719 0.84375-0.53125 0.55469-0.79688 1.3828-0.79688 2.4844v6.125h-3.5938v-12.375h3.4219v1.4531c0.47656-0.51953 1.0664-0.92188 1.7656-1.2031 0.70703-0.28906 1.4844-0.4375 2.3281-0.4375z"/>
</g>
</g>
<g>
<g transform="translate(187.5 68.376)"/>
</g>
<g fill="#7e6449">
<g transform="translate(187.5 75.734)"/>
</g>
<g fill="#7e6449">
<g transform="translate(138.69 92.201)">
<path d="m0.9375-10.5h1.2656l-0.10938 4.0469h-1.0625zm2.7188 0h1.2656l-0.10938 4.0469h-1.0625z"/>
</g>
</g>
<g fill="#7e6449">
<g transform="translate(144.56 92.201)">
<path d="m5-4.6719-1.9219 1.9531v2.7188h-1.5v-10.5h1.5v5.8594l5.7031-5.8594h1.7031l-4.4844 4.7188 4.7656 5.7812h-1.75z"/>
</g>
</g>
<g fill="#7e6449">
<g transform="translate(155.34 92.201)">
<path d="m5.0156 0.125c-0.83594 0-1.5742-0.21094-2.2188-0.64062-0.64844-0.42578-1.1562-1.0391-1.5312-1.8438-0.36719-0.8125-0.54688-1.7734-0.54688-2.8906 0-1.1133 0.17969-2.0703 0.54688-2.875 0.375-0.8125 0.88281-1.4297 1.5312-1.8594 0.64453-0.42578 1.3828-0.64062 2.2188-0.64062 0.8125 0 1.5391 0.21484 2.1875 0.64062 0.64453 0.42969 1.1484 1.0469 1.5156 1.8594 0.375 0.80469 0.5625 1.7617 0.5625 2.875 0 1.1172-0.1875 2.0781-0.5625 2.8906-0.36719 0.80469-0.87109 1.418-1.5156 1.8438-0.64844 0.42969-1.375 0.64062-2.1875 0.64062zm0-1.3438c0.83203 0 1.5-0.34375 2-1.0312 0.50781-0.6875 0.76562-1.6875 0.76562-3s-0.25781-2.3125-0.76562-3c-0.5-0.6875-1.168-1.0312-2-1.0312-0.85547 0-1.5391 0.34375-2.0469 1.0312-0.5 0.6875-0.75 1.6875-0.75 3s0.25 2.3125 0.75 3c0.50781 0.6875 1.1914 1.0312 2.0469 1.0312z"/>
</g>
</g>
<g fill="#7e6449">
<g transform="translate(165.34 92.201)"/>
</g>
<g fill="#7e6449">
<g transform="translate(169.38 92.201)">
<path d="m9.1875-1.3125v1.3125h-7.6094v-10.5h7.4062v1.3125h-5.9062v3.2188h5.2656v1.2812h-5.2656v3.375z"/>
</g>
</g>
<g fill="#7e6449">
<g transform="translate(179.42 92.201)">
<path d="m8.4062-7.9531-3.4844 7.9531h-1.4688l-3.4844-7.9531h1.5l2.7344 6.375 2.7812-6.375z"/>
</g>
</g>
<g fill="#7e6449">
<g transform="translate(187.81 92.201)">
<path d="m8.5469-3.9375c0 0.11719-0.011719 0.26172-0.03125 0.4375h-6.4531c0.09375 0.71094 0.39844 1.2773 0.92188 1.7031 0.53125 0.41797 1.1875 0.625 1.9688 0.625 0.94531 0 1.7109-0.31641 2.2969-0.95312l0.79688 0.92188c-0.36719 0.42969-0.82031 0.75-1.3594 0.96875-0.53125 0.21875-1.125 0.32812-1.7812 0.32812-0.84375 0-1.5938-0.17188-2.25-0.51562-0.64844-0.34375-1.1484-0.82812-1.5-1.4531-0.35547-0.625-0.53125-1.3203-0.53125-2.0938 0-0.76953 0.17188-1.4609 0.51562-2.0781 0.35156-0.625 0.83203-1.1094 1.4375-1.4531 0.60156-0.35156 1.2852-0.53125 2.0469-0.53125 0.75781 0 1.4375 0.17969 2.0312 0.53125 0.59375 0.34375 1.0547 0.82812 1.3906 1.4531 0.33203 0.61719 0.5 1.3203 0.5 2.1094zm-3.9219-2.875c-0.69922 0-1.2812 0.21484-1.75 0.64062-0.46094 0.41797-0.73047 0.96484-0.8125 1.6406h5.1094c-0.085937-0.66406-0.35938-1.2109-0.82812-1.6406-0.46094-0.42578-1.0312-0.64062-1.7188-0.64062z"/>
</g>
</g>
<g fill="#7e6449">
<g transform="translate(196.99 92.201)">
<path d="m5.6094-8.0312c1.0078 0 1.8125 0.29688 2.4062 0.89062 0.59375 0.58594 0.89062 1.4375 0.89062 2.5625v4.5781h-1.4375v-4.4062c0-0.76953-0.1875-1.3477-0.5625-1.7344-0.36719-0.39453-0.89062-0.59375-1.5781-0.59375-0.78125 0-1.3984 0.23047-1.8438 0.6875-0.44922 0.44922-0.67188 1.1016-0.67188 1.9531v4.0938h-1.4531v-7.9531h1.3906v1.2031c0.28906-0.40625 0.67969-0.71875 1.1719-0.9375 0.5-0.22656 1.0625-0.34375 1.6875-0.34375z"/>
</g>
</g>
<g fill="#7e6449">
<g transform="translate(207.2 92.201)">
<path d="m5.8281-0.46875c-0.21094 0.1875-0.46875 0.32812-0.78125 0.42188-0.30469 0.09375-0.62109 0.14062-0.95312 0.14062-0.80469 0-1.4219-0.21094-1.8594-0.64062-0.4375-0.4375-0.65625-1.0547-0.65625-1.8594v-4.3594h-1.3594v-1.1875h1.3594v-1.7344h1.4375v1.7344h2.2812v1.1875h-2.2812v4.3125c0 0.42969 0.10156 0.75781 0.3125 0.98438 0.21875 0.23047 0.53125 0.34375 0.9375 0.34375 0.4375 0 0.8125-0.125 1.125-0.375z"/>
</g>
</g>
<g fill="#7e6449">
<g transform="translate(213.41 92.201)">
<path d="m4.7656 0.09375c-0.79297 0-1.5078-0.17188-2.1406-0.51562-0.625-0.35156-1.1172-0.83594-1.4688-1.4531-0.35547-0.625-0.53125-1.3203-0.53125-2.0938 0-0.78125 0.17578-1.4766 0.53125-2.0938 0.35156-0.61328 0.84375-1.0938 1.4688-1.4375 0.63281-0.35156 1.3477-0.53125 2.1406-0.53125 0.78906 0 1.5 0.17969 2.125 0.53125 0.625 0.34375 1.1133 0.82422 1.4688 1.4375 0.35156 0.61719 0.53125 1.3125 0.53125 2.0938 0 0.77344-0.17969 1.4688-0.53125 2.0938-0.35547 0.61719-0.84375 1.1016-1.4688 1.4531-0.625 0.34375-1.3359 0.51562-2.125 0.51562zm0-1.2656c0.50781 0 0.96875-0.11328 1.375-0.34375 0.40625-0.23828 0.72266-0.57031 0.95312-1 0.22656-0.42578 0.34375-0.91016 0.34375-1.4531 0-0.55078-0.11719-1.0391-0.34375-1.4688-0.23047-0.42578-0.54688-0.75391-0.95312-0.98438-0.40625-0.22656-0.86719-0.34375-1.375-0.34375-0.51172 0-0.96875 0.11719-1.375 0.34375-0.39844 0.23047-0.71484 0.55859-0.95312 0.98438-0.24219 0.42969-0.35938 0.91797-0.35938 1.4688 0 0.54297 0.11719 1.0273 0.35938 1.4531 0.23828 0.42969 0.55469 0.76172 0.95312 1 0.40625 0.23047 0.86328 0.34375 1.375 0.34375z"/>
</g>
</g>
<g fill="#7e6449">
<g transform="translate(222.93 92.201)">
<path d="m3.6406 0.09375c-0.64844 0-1.2734-0.089844-1.875-0.26562-0.59375-0.17578-1.0625-0.39844-1.4062-0.67188l0.59375-1.1406c0.35156 0.25 0.78125 0.45312 1.2812 0.60938 0.5 0.14844 1.0039 0.21875 1.5156 0.21875 1.2578 0 1.8906-0.35938 1.8906-1.0781 0-0.23828-0.089844-0.42578-0.26562-0.5625-0.16797-0.14453-0.38281-0.25-0.64062-0.3125-0.25-0.0625-0.60938-0.13281-1.0781-0.21875-0.63672-0.10156-1.1562-0.21875-1.5625-0.34375-0.40625-0.13281-0.75781-0.35156-1.0469-0.65625-0.29297-0.3125-0.4375-0.75-0.4375-1.3125 0-0.71875 0.30078-1.2969 0.90625-1.7344 0.60156-0.4375 1.4102-0.65625 2.4219-0.65625 0.51953 0 1.0469 0.070312 1.5781 0.20312 0.53125 0.125 0.96875 0.29688 1.3125 0.51562l-0.625 1.1406c-0.64844-0.41406-1.4062-0.625-2.2812-0.625-0.61719 0-1.0859 0.10547-1.4062 0.3125-0.3125 0.19922-0.46875 0.46094-0.46875 0.78125 0 0.26172 0.085937 0.46875 0.26562 0.625 0.17578 0.14844 0.39453 0.25781 0.65625 0.32812 0.26953 0.0625 0.64453 0.14062 1.125 0.23438 0.64453 0.11719 1.1602 0.23438 1.5469 0.35938 0.39453 0.125 0.73438 0.33984 1.0156 0.64062 0.28125 0.29297 0.42188 0.71094 0.42188 1.25 0 0.71875-0.30859 1.293-0.92188 1.7188-0.61719 0.42969-1.4531 0.64062-2.5156 0.64062z"/>
</g>
</g>
<g fill="#7e6449">
<g transform="translate(230.45 92.201)">
<path d="m0.9375-10.5h1.2656l-0.10938 4.0469h-1.0625zm2.7188 0h1.2656l-0.10938 4.0469h-1.0625z"/>
</g>
</g>
<g fill="#7e6449">
<g transform="translate(22.81 113.22)">
<path d="m6.3125 0.09375c-1.0547 0-2-0.22656-2.8438-0.6875-0.83594-0.46875-1.4922-1.1133-1.9688-1.9375-0.48047-0.82031-0.71875-1.7383-0.71875-2.75 0-1.0195 0.23828-1.9375 0.71875-2.75 0.47656-0.82031 1.1406-1.4609 1.9844-1.9219 0.84375-0.46875 1.7891-0.70312 2.8438-0.70312 0.78125 0 1.5039 0.13281 2.1719 0.39062 0.66406 0.26172 1.2266 0.64844 1.6875 1.1562l-0.70312 0.70312c-0.83594-0.83203-1.875-1.25-3.125-1.25-0.83594 0-1.5938 0.19531-2.2812 0.57812-0.6875 0.375-1.2266 0.89844-1.6094 1.5625-0.38672 0.66797-0.57812 1.4141-0.57812 2.2344 0 0.82422 0.19141 1.5703 0.57812 2.2344 0.38281 0.66797 0.92188 1.1953 1.6094 1.5781 0.6875 0.375 1.4453 0.5625 2.2812 0.5625 1.2578 0 2.3008-0.42188 3.125-1.2656l0.70312 0.70312c-0.46094 0.51172-1.0273 0.90234-1.7031 1.1719-0.66797 0.26172-1.3906 0.39062-2.1719 0.39062z"/>
</g>
</g>
<g fill="#7e6449">
<g transform="translate(33.666 113.22)">
<path d="m4.2656-8c1.0391 0 1.8359 0.26172 2.3906 0.78125 0.55078 0.52344 0.82812 1.2891 0.82812 2.2969v4.9219h-1.0312v-1.2344c-0.24219 0.40625-0.59375 0.73047-1.0625 0.96875-0.46875 0.23047-1.0234 0.34375-1.6562 0.34375-0.88672 0-1.5938-0.20703-2.125-0.625-0.52344-0.42578-0.78125-0.98828-0.78125-1.6875 0-0.67578 0.24219-1.2188 0.73438-1.625 0.48828-0.41406 1.2656-0.625 2.3281-0.625h2.5312v-0.48438c0-0.6875-0.19531-1.207-0.57812-1.5625-0.38672-0.35156-0.94531-0.53125-1.6719-0.53125-0.51172 0-1 0.085938-1.4688 0.25-0.46094 0.16797-0.85156 0.39844-1.1719 0.6875l-0.48438-0.79688c0.39453-0.34375 0.875-0.60938 1.4375-0.79688s1.1562-0.28125 1.7812-0.28125zm-0.375 7.2344c0.60156 0 1.1172-0.13281 1.5469-0.40625 0.4375-0.28125 0.76562-0.6875 0.98438-1.2188v-1.2969h-2.5c-1.3555 0-2.0312 0.47656-2.0312 1.4219 0 0.46875 0.17188 0.83984 0.51562 1.1094 0.35156 0.26172 0.84766 0.39062 1.4844 0.39062z"/>
</g>
</g>
<g fill="#7e6449">
<g transform="translate(42.574 113.22)">
<path d="m11.391-8c1 0 1.7812 0.28906 2.3438 0.85938 0.57031 0.57422 0.85938 1.418 0.85938 2.5312v4.6094h-1.0625v-4.5c0-0.82031-0.20312-1.4453-0.60938-1.875-0.39844-0.4375-0.95312-0.65625-1.6719-0.65625-0.83594 0-1.4844 0.25781-1.9531 0.76562-0.46875 0.5-0.70312 1.1992-0.70312 2.0938v4.1719h-1.0781v-4.5c0-0.82031-0.19922-1.4453-0.59375-1.875-0.39844-0.4375-0.96484-0.65625-1.7031-0.65625-0.8125 0-1.4609 0.25781-1.9375 0.76562-0.48047 0.5-0.71875 1.1992-0.71875 2.0938v4.1719h-1.0625v-7.9375h1.0156v1.4531c0.28125-0.48828 0.67188-0.86328 1.1719-1.125 0.50781-0.25781 1.0938-0.39062 1.75-0.39062 0.66406 0 1.2383 0.14062 1.7188 0.42188 0.48828 0.28125 0.85156 0.69922 1.0938 1.25 0.28906-0.51953 0.71094-0.92578 1.2656-1.2188 0.55078-0.30078 1.1758-0.45312 1.875-0.45312z"/>
</g>
</g>
<g fill="#7e6449">
<g transform="translate(58.594 113.22)">
<path d="m1.5-7.9375h1.0625v7.9375h-1.0625zm0.53125-1.7344c-0.21875 0-0.40625-0.070313-0.5625-0.21875-0.14844-0.15625-0.21875-0.33594-0.21875-0.54688 0-0.20703 0.070312-0.38281 0.21875-0.53125 0.15625-0.15625 0.34375-0.23438 0.5625-0.23438s0.39844 0.074219 0.54688 0.21875c0.15625 0.14844 0.23438 0.32422 0.23438 0.53125 0 0.21875-0.078125 0.40625-0.23438 0.5625-0.14844 0.14844-0.32812 0.21875-0.54688 0.21875z"/>
</g>
</g>
<g fill="#7e6449">
<g transform="translate(62.655 113.22)">
<path d="m5.5469-8c0.98828 0 1.7734 0.29297 2.3594 0.875 0.59375 0.57422 0.89062 1.4141 0.89062 2.5156v4.6094h-1.0625v-4.5c0-0.82031-0.21094-1.4453-0.625-1.875-0.41797-0.4375-1.0078-0.65625-1.7656-0.65625-0.85547 0-1.5312 0.25781-2.0312 0.76562-0.5 0.5-0.75 1.1992-0.75 2.0938v4.1719h-1.0625v-7.9375h1.0156v1.4688c0.28906-0.48828 0.69531-0.86328 1.2188-1.125 0.51953-0.26953 1.125-0.40625 1.8125-0.40625z"/>
</g>
</g>
<g fill="#7e6449">
<g transform="translate(72.877 113.22)">
<path d="m4.7344 0.078125c-0.76172 0-1.4492-0.17188-2.0625-0.51562-0.61719-0.35156-1.1016-0.83594-1.4531-1.4531-0.35547-0.61328-0.53125-1.3047-0.53125-2.0781 0-0.76953 0.17578-1.4609 0.53125-2.0781 0.35156-0.61328 0.83594-1.0938 1.4531-1.4375 0.61328-0.34375 1.3008-0.51562 2.0625-0.51562 0.76953 0 1.4609 0.17188 2.0781 0.51562 0.61328 0.34375 1.0938 0.82422 1.4375 1.4375 0.34375 0.61719 0.51562 1.3086 0.51562 2.0781 0 0.77344-0.17188 1.4648-0.51562 2.0781-0.34375 0.61719-0.82422 1.1016-1.4375 1.4531-0.61719 0.34375-1.3086 0.51562-2.0781 0.51562zm0-0.95312c0.5625 0 1.0664-0.125 1.5156-0.375 0.44531-0.25781 0.79688-0.625 1.0469-1.0938 0.25781-0.47656 0.39062-1.0195 0.39062-1.625 0-0.60156-0.13281-1.1406-0.39062-1.6094-0.25-0.47656-0.60156-0.84375-1.0469-1.0938-0.44922-0.25781-0.95312-0.39062-1.5156-0.39062s-1.0703 0.13281-1.5156 0.39062c-0.44922 0.25-0.80469 0.61719-1.0625 1.0938-0.25 0.46875-0.375 1.0078-0.375 1.6094 0 0.60547 0.125 1.1484 0.375 1.625 0.25781 0.46875 0.61328 0.83594 1.0625 1.0938 0.44531 0.25 0.95312 0.375 1.5156 0.375z"/>
</g>
</g>
<g fill="#7e6449">
<g transform="translate(82.344 113.22)"/>
</g>
<g fill="#7e6449">
<g transform="translate(86.3 113.22)">
<path d="m4.2656-8c1.0391 0 1.8359 0.26172 2.3906 0.78125 0.55078 0.52344 0.82812 1.2891 0.82812 2.2969v4.9219h-1.0312v-1.2344c-0.24219 0.40625-0.59375 0.73047-1.0625 0.96875-0.46875 0.23047-1.0234 0.34375-1.6562 0.34375-0.88672 0-1.5938-0.20703-2.125-0.625-0.52344-0.42578-0.78125-0.98828-0.78125-1.6875 0-0.67578 0.24219-1.2188 0.73438-1.625 0.48828-0.41406 1.2656-0.625 2.3281-0.625h2.5312v-0.48438c0-0.6875-0.19531-1.207-0.57812-1.5625-0.38672-0.35156-0.94531-0.53125-1.6719-0.53125-0.51172 0-1 0.085938-1.4688 0.25-0.46094 0.16797-0.85156 0.39844-1.1719 0.6875l-0.48438-0.79688c0.39453-0.34375 0.875-0.60938 1.4375-0.79688s1.1562-0.28125 1.7812-0.28125zm-0.375 7.2344c0.60156 0 1.1172-0.13281 1.5469-0.40625 0.4375-0.28125 0.76562-0.6875 0.98438-1.2188v-1.2969h-2.5c-1.3555 0-2.0312 0.47656-2.0312 1.4219 0 0.46875 0.17188 0.83984 0.51562 1.1094 0.35156 0.26172 0.84766 0.39062 1.4844 0.39062z"/>
</g>
</g>
<g fill="#7e6449">
<g transform="translate(95.208 113.22)">
<path d="m1.5-11.203h1.0625v11.203h-1.0625z"/>
</g>
</g>
<g fill="#7e6449">
<g transform="translate(99.27 113.22)"/>
</g>
<g fill="#7e6449">
<g transform="translate(103.23 113.22)">
<path d="m8.1719-7.9375-3.5312 7.9375h-1.1094l-3.5156-7.9375h1.1094l2.9844 6.7656 3-6.7656z"/>
</g>
</g>
<g fill="#7e6449">
<g transform="translate(111.41 113.22)">
<path d="m4.7344 0.078125c-0.76172 0-1.4492-0.17188-2.0625-0.51562-0.61719-0.35156-1.1016-0.83594-1.4531-1.4531-0.35547-0.61328-0.53125-1.3047-0.53125-2.0781 0-0.76953 0.17578-1.4609 0.53125-2.0781 0.35156-0.61328 0.83594-1.0938 1.4531-1.4375 0.61328-0.34375 1.3008-0.51562 2.0625-0.51562 0.76953 0 1.4609 0.17188 2.0781 0.51562 0.61328 0.34375 1.0938 0.82422 1.4375 1.4375 0.34375 0.61719 0.51562 1.3086 0.51562 2.0781 0 0.77344-0.17188 1.4648-0.51562 2.0781-0.34375 0.61719-0.82422 1.1016-1.4375 1.4531-0.61719 0.34375-1.3086 0.51562-2.0781 0.51562zm0-0.95312c0.5625 0 1.0664-0.125 1.5156-0.375 0.44531-0.25781 0.79688-0.625 1.0469-1.0938 0.25781-0.47656 0.39062-1.0195 0.39062-1.625 0-0.60156-0.13281-1.1406-0.39062-1.6094-0.25-0.47656-0.60156-0.84375-1.0469-1.0938-0.44922-0.25781-0.95312-0.39062-1.5156-0.39062s-1.0703 0.13281-1.5156 0.39062c-0.44922 0.25-0.80469 0.61719-1.0625 1.0938-0.25 0.46875-0.375 1.0078-0.375 1.6094 0 0.60547 0.125 1.1484 0.375 1.625 0.25781 0.46875 0.61328 0.83594 1.0625 1.0938 0.44531 0.25 0.95312 0.375 1.5156 0.375z"/>
</g>
</g>
<g fill="#7e6449">
<g transform="translate(120.88 113.22)">
<path d="m1.5-11.203h1.0625v11.203h-1.0625z"/>
</g>
</g>
<g fill="#7e6449">
<g transform="translate(124.94 113.22)">
<path d="m4.7812 0.078125c-0.78125 0-1.4844-0.17188-2.1094-0.51562-0.61719-0.34375-1.1016-0.82031-1.4531-1.4375-0.35547-0.625-0.53125-1.3203-0.53125-2.0938 0-0.76953 0.17578-1.4609 0.53125-2.0781 0.35156-0.61328 0.83594-1.0938 1.4531-1.4375 0.625-0.34375 1.3281-0.51562 2.1094-0.51562 0.6875 0 1.2969 0.13672 1.8281 0.40625 0.53906 0.26172 0.96875 0.64844 1.2812 1.1562l-0.79688 0.54688c-0.26172-0.38281-0.59375-0.67578-1-0.875-0.39844-0.19531-0.83594-0.29688-1.3125-0.29688-0.57422 0-1.0898 0.13281-1.5469 0.39062-0.46094 0.25-0.82031 0.61719-1.0781 1.0938-0.25 0.46875-0.375 1.0078-0.375 1.6094 0 0.61719 0.125 1.1562 0.375 1.625 0.25781 0.46875 0.61719 0.83594 1.0781 1.0938 0.45703 0.25 0.97266 0.375 1.5469 0.375 0.47656 0 0.91406-0.09375 1.3125-0.28125 0.40625-0.19531 0.73828-0.48828 1-0.875l0.79688 0.53125c-0.3125 0.52344-0.74219 0.91797-1.2812 1.1875-0.54297 0.26172-1.1523 0.39062-1.8281 0.39062z"/>
</g>
</g>
<g fill="#7e6449">
<g transform="translate(133.44 113.22)">
<path d="m4.2656-8c1.0391 0 1.8359 0.26172 2.3906 0.78125 0.55078 0.52344 0.82812 1.2891 0.82812 2.2969v4.9219h-1.0312v-1.2344c-0.24219 0.40625-0.59375 0.73047-1.0625 0.96875-0.46875 0.23047-1.0234 0.34375-1.6562 0.34375-0.88672 0-1.5938-0.20703-2.125-0.625-0.52344-0.42578-0.78125-0.98828-0.78125-1.6875 0-0.67578 0.24219-1.2188 0.73438-1.625 0.48828-0.41406 1.2656-0.625 2.3281-0.625h2.5312v-0.48438c0-0.6875-0.19531-1.207-0.57812-1.5625-0.38672-0.35156-0.94531-0.53125-1.6719-0.53125-0.51172 0-1 0.085938-1.4688 0.25-0.46094 0.16797-0.85156 0.39844-1.1719 0.6875l-0.48438-0.79688c0.39453-0.34375 0.875-0.60938 1.4375-0.79688s1.1562-0.28125 1.7812-0.28125zm-0.375 7.2344c0.60156 0 1.1172-0.13281 1.5469-0.40625 0.4375-0.28125 0.76562-0.6875 0.98438-1.2188v-1.2969h-2.5c-1.3555 0-2.0312 0.47656-2.0312 1.4219 0 0.46875 0.17188 0.83984 0.51562 1.1094 0.35156 0.26172 0.84766 0.39062 1.4844 0.39062zm1.5-10.281h1.4375l-2.4531 1.875h-1.0625z"/>
</g>
</g>
<g fill="#7e6449">
<g transform="translate(142.35 113.22)">
<path d="m5.5469-8c0.98828 0 1.7734 0.29297 2.3594 0.875 0.59375 0.57422 0.89062 1.4141 0.89062 2.5156v4.6094h-1.0625v-4.5c0-0.82031-0.21094-1.4453-0.625-1.875-0.41797-0.4375-1.0078-0.65625-1.7656-0.65625-0.85547 0-1.5312 0.25781-2.0312 0.76562-0.5 0.5-0.75 1.1992-0.75 2.0938v4.1719h-1.0625v-7.9375h1.0156v1.4688c0.28906-0.48828 0.69531-0.86328 1.2188-1.125 0.51953-0.26953 1.125-0.40625 1.8125-0.40625z"/>
</g>
</g>
<g fill="#7e6449">
<g transform="translate(152.57 113.22)"/>
</g>
<g fill="#7e6449">
<g transform="translate(156.52 113.22)">
<path d="m7.8125-6.875-0.39062 3.1719h2.1406v0.82812h-2.2344l-0.35938 2.875h-0.8125l0.34375-2.875h-3.0938l-0.35938 2.875h-0.8125l0.34375-2.875h-2.1406v-0.82812h2.25l0.39062-3.1719h-2.1562v-0.82812h2.2656l0.34375-2.8594h0.82812l-0.35938 2.8594h3.1094l0.34375-2.8594h0.8125l-0.34375 2.8594h2.125v0.82812zm-0.8125 0h-3.0938l-0.40625 3.1719h3.1094z"/>
</g>
</g>
<g fill="#7e6449">
<g transform="translate(167.03 113.22)">
<path d="m3.7188-10.562v10.562h-1.0938v-9.5938h-2.4844v-0.96875z"/>
</g>
</g>
<g fill="#7e6449">
<g transform="translate(172.48 113.22)">
<path d="m3.7188-10.562v10.562h-1.0938v-9.5938h-2.4844v-0.96875z"/>
</g>
</g>
<g fill="#7e6449">
<g transform="translate(177.93 113.22)">
<path d="m6.8438-5.5469c0.65625 0.23047 1.1602 0.57031 1.5156 1.0156 0.36328 0.4375 0.54688 0.96875 0.54688 1.5938 0 0.61719-0.16797 1.1523-0.5 1.6094-0.33594 0.44922-0.8125 0.79688-1.4375 1.0469-0.61719 0.25-1.3398 0.375-2.1719 0.375-1.2734 0-2.2734-0.26953-3-0.8125-0.71875-0.55078-1.0781-1.2891-1.0781-2.2188 0-0.63281 0.17188-1.1719 0.51562-1.6094 0.35156-0.4375 0.86328-0.76953 1.5312-1-0.54297-0.20703-0.95312-0.50781-1.2344-0.90625-0.28125-0.39453-0.42188-0.86328-0.42188-1.4062 0-0.85156 0.33203-1.5312 1-2.0312 0.66406-0.50781 1.5625-0.76562 2.6875-0.76562 0.75 0 1.3984 0.11719 1.9531 0.34375 0.5625 0.21875 1 0.54297 1.3125 0.96875 0.3125 0.42969 0.46875 0.92188 0.46875 1.4844 0 0.54297-0.14844 1.0117-0.4375 1.4062-0.29297 0.39844-0.71094 0.69922-1.25 0.90625zm-4.6562-2.2812c0 0.58594 0.22656 1.0469 0.6875 1.3906 0.46875 0.33594 1.1094 0.5 1.9219 0.5s1.4531-0.16406 1.9219-0.5c0.46875-0.34375 0.70312-0.80078 0.70312-1.375 0-0.59375-0.24219-1.0625-0.71875-1.4062-0.46875-0.34375-1.1055-0.51562-1.9062-0.51562-0.80469 0-1.4375 0.17188-1.9062 0.51562s-0.70312 0.80859-0.70312 1.3906zm2.6094 7c0.9375 0 1.6641-0.19141 2.1875-0.57812 0.53125-0.38281 0.79688-0.89844 0.79688-1.5469 0-0.65625-0.26562-1.1719-0.79688-1.5469-0.52344-0.38281-1.25-0.57812-2.1875-0.57812-0.92969 0-1.6562 0.19531-2.1875 0.57812-0.52344 0.375-0.78125 0.89062-0.78125 1.5469s0.25781 1.1797 0.78125 1.5625c0.51953 0.375 1.25 0.5625 2.1875 0.5625z"/>
</g>
</g>
<g fill="#7e6449">
<g transform="translate(187.57 113.22)">
<path d="m3.7188-10.562v10.562h-1.0938v-9.5938h-2.4844v-0.96875z"/>
</g>
</g>
<g fill="#7e6449">
<g transform="translate(193.02 113.22)">
<path d="m3.5625-6.2344c1.5312 0 2.6445 0.27734 3.3438 0.82812 0.69531 0.54297 1.0469 1.3086 1.0469 2.2969 0 0.61719-0.14844 1.168-0.4375 1.6562-0.28125 0.48047-0.71094 0.85938-1.2812 1.1406-0.57422 0.27344-1.2773 0.40625-2.1094 0.40625-0.76172 0-1.4805-0.125-2.1562-0.375-0.67969-0.25-1.2266-0.57812-1.6406-0.98438l0.53125-0.85938c0.35156 0.36719 0.81641 0.66406 1.3906 0.89062 0.57031 0.21875 1.1914 0.32812 1.8594 0.32812 0.875 0 1.5508-0.19141 2.0312-0.57812 0.47656-0.39453 0.71875-0.92188 0.71875-1.5781 0-0.72656-0.27344-1.2734-0.8125-1.6406-0.54297-0.375-1.4492-0.5625-2.7188-0.5625h-2.25l0.53125-5.2969h5.7812v0.96875h-4.8281l-0.35938 3.3594z"/>
</g>
</g>
<g fill="#7e6449">
<g transform="translate(201.56 113.22)">
<path d="m1.6094-1.5625c0.23828 0 0.42969 0.078125 0.57812 0.23438 0.15625 0.14844 0.23438 0.33984 0.23438 0.57812 0 0.11719-0.023437 0.24609-0.0625 0.39062-0.03125 0.13672-0.085937 0.29688-0.15625 0.48438l-0.64062 2.0781h-0.71875l0.51562-2.1875c-0.16797-0.050781-0.30469-0.14453-0.40625-0.28125-0.09375-0.13281-0.14062-0.29688-0.14062-0.48438 0-0.23828 0.070312-0.42969 0.21875-0.57812 0.15625-0.15625 0.34766-0.23438 0.57812-0.23438z"/>
</g>
</g>
<g fill="#7e6449">
<g transform="translate(204.76 113.22)"/>
</g>
<g fill="#7e6449">
<g transform="translate(208.72 113.22)">
<path d="m4.6406 0.09375c-0.79297 0-1.5469-0.125-2.2656-0.375-0.71875-0.25781-1.2773-0.59375-1.6719-1l0.4375-0.85938c0.38281 0.38672 0.89453 0.69922 1.5312 0.9375 0.63281 0.23047 1.2891 0.34375 1.9688 0.34375 0.9375 0 1.6406-0.17188 2.1094-0.51562 0.47656-0.35156 0.71875-0.80469 0.71875-1.3594 0-0.41406-0.13281-0.75-0.39062-1-0.25-0.25781-0.5625-0.45703-0.9375-0.59375-0.375-0.13281-0.89062-0.28125-1.5469-0.4375-0.80469-0.20703-1.4375-0.39844-1.9062-0.57812-0.46875-0.1875-0.875-0.47266-1.2188-0.85938-0.33594-0.38281-0.5-0.90625-0.5-1.5625 0-0.53125 0.14062-1.0156 0.42188-1.4531s0.71094-0.78516 1.2969-1.0469c0.58203-0.25781 1.3047-0.39062 2.1719-0.39062 0.60156 0 1.1914 0.085938 1.7656 0.25 0.58203 0.16797 1.0859 0.39844 1.5156 0.6875l-0.375 0.89062c-0.44922-0.28906-0.92969-0.50781-1.4375-0.65625-0.5-0.14453-0.99219-0.21875-1.4688-0.21875-0.92969 0-1.625 0.17969-2.0938 0.53125-0.46875 0.35547-0.70312 0.82031-0.70312 1.3906 0 0.41797 0.12891 0.75781 0.39062 1.0156 0.25781 0.25 0.58203 0.44531 0.96875 0.57812 0.38281 0.13672 0.90625 0.28906 1.5625 0.45312 0.76953 0.1875 1.3945 0.375 1.875 0.5625 0.47656 0.1875 0.88281 0.46875 1.2188 0.84375 0.33203 0.375 0.5 0.88672 0.5 1.5312 0 0.53125-0.14844 1.0234-0.4375 1.4688-0.28125 0.4375-0.71875 0.78906-1.3125 1.0469-0.59375 0.25-1.3242 0.375-2.1875 0.375z"/>
</g>
</g>
<g fill="#7e6449">
<g transform="translate(218.01 113.22)">
<path d="m4.2656-8c1.0391 0 1.8359 0.26172 2.3906 0.78125 0.55078 0.52344 0.82812 1.2891 0.82812 2.2969v4.9219h-1.0312v-1.2344c-0.24219 0.40625-0.59375 0.73047-1.0625 0.96875-0.46875 0.23047-1.0234 0.34375-1.6562 0.34375-0.88672 0-1.5938-0.20703-2.125-0.625-0.52344-0.42578-0.78125-0.98828-0.78125-1.6875 0-0.67578 0.24219-1.2188 0.73438-1.625 0.48828-0.41406 1.2656-0.625 2.3281-0.625h2.5312v-0.48438c0-0.6875-0.19531-1.207-0.57812-1.5625-0.38672-0.35156-0.94531-0.53125-1.6719-0.53125-0.51172 0-1 0.085938-1.4688 0.25-0.46094 0.16797-0.85156 0.39844-1.1719 0.6875l-0.48438-0.79688c0.39453-0.34375 0.875-0.60938 1.4375-0.79688s1.1562-0.28125 1.7812-0.28125zm-0.375 7.2344c0.60156 0 1.1172-0.13281 1.5469-0.40625 0.4375-0.28125 0.76562-0.6875 0.98438-1.2188v-1.2969h-2.5c-1.3555 0-2.0312 0.47656-2.0312 1.4219 0 0.46875 0.17188 0.83984 0.51562 1.1094 0.35156 0.26172 0.84766 0.39062 1.4844 0.39062z"/>
</g>
</g>
<g fill="#7e6449">
<g transform="translate(226.91 113.22)">
<path d="m5.5469-8c0.98828 0 1.7734 0.29297 2.3594 0.875 0.59375 0.57422 0.89062 1.4141 0.89062 2.5156v4.6094h-1.0625v-4.5c0-0.82031-0.21094-1.4453-0.625-1.875-0.41797-0.4375-1.0078-0.65625-1.7656-0.65625-0.85547 0-1.5312 0.25781-2.0312 0.76562-0.5 0.5-0.75 1.1992-0.75 2.0938v4.1719h-1.0625v-7.9375h1.0156v1.4688c0.28906-0.48828 0.69531-0.86328 1.2188-1.125 0.51953-0.26953 1.125-0.40625 1.8125-0.40625z"/>
</g>
</g>
<g fill="#7e6449">
<g transform="translate(237.14 113.22)"/>
</g>
<g fill="#7e6449">
<g transform="translate(241.09 113.22)">
<path d="m2.8594 0.09375c-0.60547 0-1.168-0.12891-1.6875-0.39062-0.51172-0.25781-0.92969-0.63281-1.25-1.125l0.67188-0.75c0.58203 0.86719 1.3438 1.2969 2.2812 1.2969 1.3008 0 1.9531-0.77344 1.9531-2.3281v-6.3906h-3.8594v-0.96875h4.9688v7.3125c0 1.1172-0.26172 1.9531-0.78125 2.5156-0.52344 0.55469-1.2891 0.82812-2.2969 0.82812z"/>
</g>
</g>
<g fill="#7e6449">
<g transform="translate(248.66 113.22)">
<path d="m4.7344 0.078125c-0.76172 0-1.4492-0.17188-2.0625-0.51562-0.61719-0.35156-1.1016-0.83594-1.4531-1.4531-0.35547-0.61328-0.53125-1.3047-0.53125-2.0781 0-0.76953 0.17578-1.4609 0.53125-2.0781 0.35156-0.61328 0.83594-1.0938 1.4531-1.4375 0.61328-0.34375 1.3008-0.51562 2.0625-0.51562 0.76953 0 1.4609 0.17188 2.0781 0.51562 0.61328 0.34375 1.0938 0.82422 1.4375 1.4375 0.34375 0.61719 0.51562 1.3086 0.51562 2.0781 0 0.77344-0.17188 1.4648-0.51562 2.0781-0.34375 0.61719-0.82422 1.1016-1.4375 1.4531-0.61719 0.34375-1.3086 0.51562-2.0781 0.51562zm0-0.95312c0.5625 0 1.0664-0.125 1.5156-0.375 0.44531-0.25781 0.79688-0.625 1.0469-1.0938 0.25781-0.47656 0.39062-1.0195 0.39062-1.625 0-0.60156-0.13281-1.1406-0.39062-1.6094-0.25-0.47656-0.60156-0.84375-1.0469-1.0938-0.44922-0.25781-0.95312-0.39062-1.5156-0.39062s-1.0703 0.13281-1.5156 0.39062c-0.44922 0.25-0.80469 0.61719-1.0625 1.0938-0.25 0.46875-0.375 1.0078-0.375 1.6094 0 0.60547 0.125 1.1484 0.375 1.625 0.25781 0.46875 0.61328 0.83594 1.0625 1.0938 0.44531 0.25 0.95312 0.375 1.5156 0.375z"/>
</g>
</g>
<g fill="#7e6449">
<g transform="translate(258.12 113.22)">
<path d="m3.625 0.078125c-0.64844 0-1.2656-0.09375-1.8594-0.28125-0.58594-0.1875-1.043-0.42188-1.375-0.70312l0.48438-0.84375c0.33203 0.26172 0.75 0.47656 1.25 0.64062 0.50781 0.16797 1.0352 0.25 1.5781 0.25 0.71875 0 1.25-0.11328 1.5938-0.34375 0.35156-0.22656 0.53125-0.54688 0.53125-0.95312 0-0.28906-0.10156-0.51953-0.29688-0.6875-0.1875-0.16406-0.42969-0.28906-0.71875-0.375-0.29297-0.082031-0.67969-0.16406-1.1562-0.25-0.64844-0.125-1.168-0.25-1.5625-0.375-0.38672-0.125-0.71875-0.33594-1-0.64062-0.28125-0.30078-0.42188-0.71875-0.42188-1.25 0-0.66406 0.27344-1.207 0.82812-1.625 0.5625-0.42578 1.332-0.64062 2.3125-0.64062 0.51953 0 1.0352 0.070312 1.5469 0.20312 0.50781 0.13672 0.92969 0.3125 1.2656 0.53125l-0.46875 0.85938c-0.65625-0.44531-1.4375-0.67188-2.3438-0.67188-0.67969 0-1.1953 0.12109-1.5469 0.35938-0.34375 0.24219-0.51562 0.55859-0.51562 0.95312 0 0.30469 0.097656 0.54688 0.29688 0.73438 0.19531 0.17969 0.44141 0.30859 0.73438 0.39062 0.28906 0.085937 0.69141 0.17188 1.2031 0.26562 0.63281 0.11719 1.1406 0.23438 1.5156 0.35938 0.38281 0.125 0.71094 0.33594 0.98438 0.625 0.26953 0.29297 0.40625 0.69531 0.40625 1.2031 0 0.69922-0.29297 1.25-0.875 1.6562-0.57422 0.40625-1.3711 0.60938-2.3906 0.60938z"/>
</g>
</g>
<g fill="#7e6449">
<g transform="translate(265.51 113.22)">
<path d="m8.4062-3.6406h-6.6406c0.0625 0.82422 0.37891 1.4922 0.95312 2 0.57031 0.51172 1.2969 0.76562 2.1719 0.76562 0.48828 0 0.94141-0.085938 1.3594-0.26562 0.41406-0.17578 0.77344-0.4375 1.0781-0.78125l0.59375 0.70312c-0.35547 0.41797-0.79688 0.74219-1.3281 0.96875-0.52344 0.21875-1.1016 0.32812-1.7344 0.32812-0.8125 0-1.5391-0.17188-2.1719-0.51562-0.625-0.35156-1.1172-0.83594-1.4688-1.4531-0.35547-0.61328-0.53125-1.3047-0.53125-2.0781 0-0.76953 0.16406-1.4609 0.5-2.0781 0.34375-0.61328 0.80469-1.0938 1.3906-1.4375 0.59375-0.34375 1.2578-0.51562 2-0.51562 0.72656 0 1.3828 0.17188 1.9688 0.51562 0.58203 0.34375 1.0391 0.82422 1.375 1.4375 0.33203 0.60547 0.5 1.2969 0.5 2.0781zm-3.8281-3.4375c-0.77344 0-1.418 0.24609-1.9375 0.73438-0.51172 0.49219-0.80469 1.125-0.875 1.9062h5.625c-0.0625-0.78125-0.35547-1.4141-0.875-1.9062-0.52344-0.48828-1.168-0.73438-1.9375-0.73438zm1.0938-3.9688h1.4375l-2.4531 1.875h-1.0625z"/>
</g>
</g>
<g fill="#7e6449">
<g transform="translate(274.63 113.22)"/>
</g>
<g fill="#7e6449">
<g transform="translate(278.58 113.22)">
<path d="m8.7344-11.203v11.203h-1.0156v-1.5625c-0.32422 0.53125-0.75 0.9375-1.2812 1.2188s-1.125 0.42188-1.7812 0.42188c-0.75 0-1.4297-0.17188-2.0312-0.51562-0.60547-0.34375-1.0781-0.82031-1.4219-1.4375-0.34375-0.61328-0.51562-1.3125-0.51562-2.0938s0.17188-1.4766 0.51562-2.0938c0.34375-0.61328 0.81641-1.0859 1.4219-1.4219 0.60156-0.34375 1.2812-0.51562 2.0312-0.51562 0.63281 0 1.2109 0.13672 1.7344 0.40625 0.51953 0.26172 0.94531 0.64844 1.2812 1.1562v-4.7656zm-4 10.328c0.55078 0 1.0508-0.125 1.5-0.375 0.44531-0.25781 0.80078-0.625 1.0625-1.0938 0.25781-0.47656 0.39062-1.0195 0.39062-1.625 0-0.60156-0.13281-1.1406-0.39062-1.6094-0.26172-0.47656-0.61719-0.84375-1.0625-1.0938-0.44922-0.25781-0.94922-0.39062-1.5-0.39062-0.5625 0-1.0703 0.13281-1.5156 0.39062-0.44922 0.25-0.80469 0.61719-1.0625 1.0938-0.25 0.46875-0.375 1.0078-0.375 1.6094 0 0.60547 0.125 1.1484 0.375 1.625 0.25781 0.46875 0.61328 0.83594 1.0625 1.0938 0.44531 0.25 0.95312 0.375 1.5156 0.375z"/>
</g>
</g>
<g fill="#7e6449">
<g transform="translate(288.82 113.22)">
<path d="m8.4062-3.6406h-6.6406c0.0625 0.82422 0.37891 1.4922 0.95312 2 0.57031 0.51172 1.2969 0.76562 2.1719 0.76562 0.48828 0 0.94141-0.085938 1.3594-0.26562 0.41406-0.17578 0.77344-0.4375 1.0781-0.78125l0.59375 0.70312c-0.35547 0.41797-0.79688 0.74219-1.3281 0.96875-0.52344 0.21875-1.1016 0.32812-1.7344 0.32812-0.8125 0-1.5391-0.17188-2.1719-0.51562-0.625-0.35156-1.1172-0.83594-1.4688-1.4531-0.35547-0.61328-0.53125-1.3047-0.53125-2.0781 0-0.76953 0.16406-1.4609 0.5-2.0781 0.34375-0.61328 0.80469-1.0938 1.3906-1.4375 0.59375-0.34375 1.2578-0.51562 2-0.51562 0.72656 0 1.3828 0.17188 1.9688 0.51562 0.58203 0.34375 1.0391 0.82422 1.375 1.4375 0.33203 0.60547 0.5 1.2969 0.5 2.0781zm-3.8281-3.4375c-0.77344 0-1.418 0.24609-1.9375 0.73438-0.51172 0.49219-0.80469 1.125-0.875 1.9062h5.625c-0.0625-0.78125-0.35547-1.4141-0.875-1.9062-0.52344-0.48828-1.168-0.73438-1.9375-0.73438z"/>
</g>
</g>
<g fill="#7e6449">
<g transform="translate(297.94 113.22)"/>
</g>
<g fill="#7e6449">
<g transform="translate(301.9 113.22)">
<path d="m12.688-10.562v10.562h-1.0625v-8.4531l-4.1562 7.1094h-0.53125l-4.1406-7.0625v8.4062h-1.0781v-10.562h0.92188l4.5938 7.8281 4.5312-7.8281z"/>
</g>
</g>
<g fill="#7e6449">
<g transform="translate(316.31 113.22)">
<path d="m4.2656-8c1.0391 0 1.8359 0.26172 2.3906 0.78125 0.55078 0.52344 0.82812 1.2891 0.82812 2.2969v4.9219h-1.0312v-1.2344c-0.24219 0.40625-0.59375 0.73047-1.0625 0.96875-0.46875 0.23047-1.0234 0.34375-1.6562 0.34375-0.88672 0-1.5938-0.20703-2.125-0.625-0.52344-0.42578-0.78125-0.98828-0.78125-1.6875 0-0.67578 0.24219-1.2188 0.73438-1.625 0.48828-0.41406 1.2656-0.625 2.3281-0.625h2.5312v-0.48438c0-0.6875-0.19531-1.207-0.57812-1.5625-0.38672-0.35156-0.94531-0.53125-1.6719-0.53125-0.51172 0-1 0.085938-1.4688 0.25-0.46094 0.16797-0.85156 0.39844-1.1719 0.6875l-0.48438-0.79688c0.39453-0.34375 0.875-0.60938 1.4375-0.79688s1.1562-0.28125 1.7812-0.28125zm-0.375 7.2344c0.60156 0 1.1172-0.13281 1.5469-0.40625 0.4375-0.28125 0.76562-0.6875 0.98438-1.2188v-1.2969h-2.5c-1.3555 0-2.0312 0.47656-2.0312 1.4219 0 0.46875 0.17188 0.83984 0.51562 1.1094 0.35156 0.26172 0.84766 0.39062 1.4844 0.39062z"/>
</g>
</g>
<g fill="#7e6449">
<g transform="translate(325.22 113.22)">
<path d="m1.5-7.9375h1.0625v7.9375h-1.0625zm0.53125-1.7344c-0.21875 0-0.40625-0.070313-0.5625-0.21875-0.14844-0.15625-0.21875-0.33594-0.21875-0.54688 0-0.20703 0.070312-0.38281 0.21875-0.53125 0.15625-0.15625 0.34375-0.23438 0.5625-0.23438s0.39844 0.074219 0.54688 0.21875c0.15625 0.14844 0.23438 0.32422 0.23438 0.53125 0 0.21875-0.078125 0.40625-0.23438 0.5625-0.14844 0.14844-0.32812 0.21875-0.54688 0.21875z"/>
</g>
</g>
<g fill="#7e6449">
<g transform="translate(329.28 113.22)">
<path d="m5.5781-8c0.75 0 1.4258 0.17188 2.0312 0.51562 0.60156 0.33594 1.0781 0.80859 1.4219 1.4219 0.34375 0.61719 0.51562 1.3125 0.51562 2.0938 0 0.79297-0.17188 1.4961-0.51562 2.1094-0.34375 0.61719-0.82031 1.0938-1.4219 1.4375-0.59375 0.33594-1.2734 0.5-2.0312 0.5-0.63672 0-1.2148-0.12891-1.7344-0.39062-0.52344-0.26953-0.94922-0.66406-1.2812-1.1875v4.4219h-1.0625v-10.859h1.0156v1.5625c0.32031-0.51953 0.75-0.92188 1.2812-1.2031s1.125-0.42188 1.7812-0.42188zm-0.0625 7.125c0.55078 0 1.0508-0.125 1.5-0.375 0.45703-0.25781 0.8125-0.625 1.0625-1.0938 0.25781-0.47656 0.39062-1.0195 0.39062-1.625 0-0.60156-0.13281-1.1406-0.39062-1.6094-0.25-0.46875-0.60547-0.83203-1.0625-1.0938-0.44922-0.25781-0.94922-0.39062-1.5-0.39062-0.57422 0-1.0859 0.13281-1.5312 0.39062-0.4375 0.26172-0.78906 0.625-1.0469 1.0938-0.26172 0.46875-0.39062 1.0078-0.39062 1.6094 0 0.60547 0.12891 1.1484 0.39062 1.625 0.25781 0.46875 0.60938 0.83594 1.0469 1.0938 0.44531 0.25 0.95703 0.375 1.5312 0.375z"/>
</g>
</g>
<g fill="#7e6449">
<g transform="translate(339.52 113.22)">
<path d="m4.7344 0.078125c-0.76172 0-1.4492-0.17188-2.0625-0.51562-0.61719-0.35156-1.1016-0.83594-1.4531-1.4531-0.35547-0.61328-0.53125-1.3047-0.53125-2.0781 0-0.76953 0.17578-1.4609 0.53125-2.0781 0.35156-0.61328 0.83594-1.0938 1.4531-1.4375 0.61328-0.34375 1.3008-0.51562 2.0625-0.51562 0.76953 0 1.4609 0.17188 2.0781 0.51562 0.61328 0.34375 1.0938 0.82422 1.4375 1.4375 0.34375 0.61719 0.51562 1.3086 0.51562 2.0781 0 0.77344-0.17188 1.4648-0.51562 2.0781-0.34375 0.61719-0.82422 1.1016-1.4375 1.4531-0.61719 0.34375-1.3086 0.51562-2.0781 0.51562zm0-0.95312c0.5625 0 1.0664-0.125 1.5156-0.375 0.44531-0.25781 0.79688-0.625 1.0469-1.0938 0.25781-0.47656 0.39062-1.0195 0.39062-1.625 0-0.60156-0.13281-1.1406-0.39062-1.6094-0.25-0.47656-0.60156-0.84375-1.0469-1.0938-0.44922-0.25781-0.95312-0.39062-1.5156-0.39062s-1.0703 0.13281-1.5156 0.39062c-0.44922 0.25-0.80469 0.61719-1.0625 1.0938-0.25 0.46875-0.375 1.0078-0.375 1.6094 0 0.60547 0.125 1.1484 0.375 1.625 0.25781 0.46875 0.61328 0.83594 1.0625 1.0938 0.44531 0.25 0.95312 0.375 1.5156 0.375z"/>
</g>
</g>
<g fill="#7e6449">
<g transform="translate(348.99 113.22)">
<path d="m1.6094-1.5625c0.23828 0 0.42969 0.078125 0.57812 0.23438 0.15625 0.14844 0.23438 0.33984 0.23438 0.57812 0 0.11719-0.023437 0.24609-0.0625 0.39062-0.03125 0.13672-0.085937 0.29688-0.15625 0.48438l-0.64062 2.0781h-0.71875l0.51562-2.1875c-0.16797-0.050781-0.30469-0.14453-0.40625-0.28125-0.09375-0.13281-0.14062-0.29688-0.14062-0.48438 0-0.23828 0.070312-0.42969 0.21875-0.57812 0.15625-0.15625 0.34766-0.23438 0.57812-0.23438z"/>
</g>
</g>
<g fill="#7e6449">
<g transform="translate(152.23 134.25)">
<path d="m4.6406 0.09375c-0.79297 0-1.5469-0.125-2.2656-0.375-0.71875-0.25781-1.2773-0.59375-1.6719-1l0.4375-0.85938c0.38281 0.38672 0.89453 0.69922 1.5312 0.9375 0.63281 0.23047 1.2891 0.34375 1.9688 0.34375 0.9375 0 1.6406-0.17188 2.1094-0.51562 0.47656-0.35156 0.71875-0.80469 0.71875-1.3594 0-0.41406-0.13281-0.75-0.39062-1-0.25-0.25781-0.5625-0.45703-0.9375-0.59375-0.375-0.13281-0.89062-0.28125-1.5469-0.4375-0.80469-0.20703-1.4375-0.39844-1.9062-0.57812-0.46875-0.1875-0.875-0.47266-1.2188-0.85938-0.33594-0.38281-0.5-0.90625-0.5-1.5625 0-0.53125 0.14062-1.0156 0.42188-1.4531s0.71094-0.78516 1.2969-1.0469c0.58203-0.25781 1.3047-0.39062 2.1719-0.39062 0.60156 0 1.1914 0.085938 1.7656 0.25 0.58203 0.16797 1.0859 0.39844 1.5156 0.6875l-0.375 0.89062c-0.44922-0.28906-0.92969-0.50781-1.4375-0.65625-0.5-0.14453-0.99219-0.21875-1.4688-0.21875-0.92969 0-1.625 0.17969-2.0938 0.53125-0.46875 0.35547-0.70312 0.82031-0.70312 1.3906 0 0.41797 0.12891 0.75781 0.39062 1.0156 0.25781 0.25 0.58203 0.44531 0.96875 0.57812 0.38281 0.13672 0.90625 0.28906 1.5625 0.45312 0.76953 0.1875 1.3945 0.375 1.875 0.5625 0.47656 0.1875 0.88281 0.46875 1.2188 0.84375 0.33203 0.375 0.5 0.88672 0.5 1.5312 0 0.53125-0.14844 1.0234-0.4375 1.4688-0.28125 0.4375-0.71875 0.78906-1.3125 1.0469-0.59375 0.25-1.3242 0.375-2.1875 0.375z"/>
</g>
</g>
<g fill="#7e6449">
<g transform="translate(161.52 134.25)">
<path d="m4.2656-8c1.0391 0 1.8359 0.26172 2.3906 0.78125 0.55078 0.52344 0.82812 1.2891 0.82812 2.2969v4.9219h-1.0312v-1.2344c-0.24219 0.40625-0.59375 0.73047-1.0625 0.96875-0.46875 0.23047-1.0234 0.34375-1.6562 0.34375-0.88672 0-1.5938-0.20703-2.125-0.625-0.52344-0.42578-0.78125-0.98828-0.78125-1.6875 0-0.67578 0.24219-1.2188 0.73438-1.625 0.48828-0.41406 1.2656-0.625 2.3281-0.625h2.5312v-0.48438c0-0.6875-0.19531-1.207-0.57812-1.5625-0.38672-0.35156-0.94531-0.53125-1.6719-0.53125-0.51172 0-1 0.085938-1.4688 0.25-0.46094 0.16797-0.85156 0.39844-1.1719 0.6875l-0.48438-0.79688c0.39453-0.34375 0.875-0.60938 1.4375-0.79688s1.1562-0.28125 1.7812-0.28125zm-0.375 7.2344c0.60156 0 1.1172-0.13281 1.5469-0.40625 0.4375-0.28125 0.76562-0.6875 0.98438-1.2188v-1.2969h-2.5c-1.3555 0-2.0312 0.47656-2.0312 1.4219 0 0.46875 0.17188 0.83984 0.51562 1.1094 0.35156 0.26172 0.84766 0.39062 1.4844 0.39062z"/>
</g>
</g>
<g fill="#7e6449">
<g transform="translate(170.42 134.25)">
<path d="m5.5469-8c0.98828 0 1.7734 0.29297 2.3594 0.875 0.59375 0.57422 0.89062 1.4141 0.89062 2.5156v4.6094h-1.0625v-4.5c0-0.82031-0.21094-1.4453-0.625-1.875-0.41797-0.4375-1.0078-0.65625-1.7656-0.65625-0.85547 0-1.5312 0.25781-2.0312 0.76562-0.5 0.5-0.75 1.1992-0.75 2.0938v4.1719h-1.0625v-7.9375h1.0156v1.4688c0.28906-0.48828 0.69531-0.86328 1.2188-1.125 0.51953-0.26953 1.125-0.40625 1.8125-0.40625z"/>
</g>
</g>
<g fill="#7e6449">
<g transform="translate(180.65 134.25)">
<path d="m5.6719-0.48438c-0.19922 0.17969-0.44922 0.32031-0.75 0.42188-0.29297 0.09375-0.60156 0.14062-0.92188 0.14062-0.74219 0-1.3125-0.19531-1.7188-0.59375-0.40625-0.40625-0.60938-0.97656-0.60938-1.7188v-4.7969h-1.4219v-0.90625h1.4219v-1.7344h1.0781v1.7344h2.4062v0.90625h-2.4062v4.7344c0 0.48047 0.11328 0.84375 0.34375 1.0938 0.23828 0.24219 0.58203 0.35938 1.0312 0.35938 0.21875 0 0.42969-0.035156 0.64062-0.10938 0.20703-0.070313 0.38281-0.17188 0.53125-0.29688z"/>
</g>
</g>
<g fill="#7e6449">
<g transform="translate(186.78 134.25)">
<path d="m1.5-7.9375h1.0625v7.9375h-1.0625zm0.53125-1.7344c-0.21875 0-0.40625-0.070313-0.5625-0.21875-0.14844-0.15625-0.21875-0.33594-0.21875-0.54688 0-0.20703 0.070312-0.38281 0.21875-0.53125 0.15625-0.15625 0.34375-0.23438 0.5625-0.23438s0.39844 0.074219 0.54688 0.21875c0.15625 0.14844 0.23438 0.32422 0.23438 0.53125 0 0.21875-0.078125 0.40625-0.23438 0.5625-0.14844 0.14844-0.32812 0.21875-0.54688 0.21875z"/>
</g>
</g>
<g fill="#7e6449">
<g transform="translate(190.84 134.25)">
<path d="m4.2656-8c1.0391 0 1.8359 0.26172 2.3906 0.78125 0.55078 0.52344 0.82812 1.2891 0.82812 2.2969v4.9219h-1.0312v-1.2344c-0.24219 0.40625-0.59375 0.73047-1.0625 0.96875-0.46875 0.23047-1.0234 0.34375-1.6562 0.34375-0.88672 0-1.5938-0.20703-2.125-0.625-0.52344-0.42578-0.78125-0.98828-0.78125-1.6875 0-0.67578 0.24219-1.2188 0.73438-1.625 0.48828-0.41406 1.2656-0.625 2.3281-0.625h2.5312v-0.48438c0-0.6875-0.19531-1.207-0.57812-1.5625-0.38672-0.35156-0.94531-0.53125-1.6719-0.53125-0.51172 0-1 0.085938-1.4688 0.25-0.46094 0.16797-0.85156 0.39844-1.1719 0.6875l-0.48438-0.79688c0.39453-0.34375 0.875-0.60938 1.4375-0.79688s1.1562-0.28125 1.7812-0.28125zm-0.375 7.2344c0.60156 0 1.1172-0.13281 1.5469-0.40625 0.4375-0.28125 0.76562-0.6875 0.98438-1.2188v-1.2969h-2.5c-1.3555 0-2.0312 0.47656-2.0312 1.4219 0 0.46875 0.17188 0.83984 0.51562 1.1094 0.35156 0.26172 0.84766 0.39062 1.4844 0.39062z"/>
</g>
</g>
<g fill="#7e6449">
<g transform="translate(199.75 134.25)">
<path d="m8.8438-7.9375v6.9688c0 1.3516-0.32812 2.3516-0.98438 3-0.65625 0.64453-1.6523 0.96875-2.9844 0.96875-0.73047 0-1.4297-0.10938-2.0938-0.32812-0.65625-0.21094-1.1953-0.50781-1.6094-0.89062l0.54688-0.8125c0.38281 0.34375 0.84766 0.60938 1.3906 0.79688 0.55078 0.1875 1.1289 0.28125 1.7344 0.28125 1.0078 0 1.75-0.23438 2.2188-0.70312 0.46875-0.46094 0.70312-1.1836 0.70312-2.1719v-1.0156c-0.32422 0.5-0.75781 0.88672-1.2969 1.1562-0.54297 0.26172-1.1406 0.39062-1.7969 0.39062-0.74219 0-1.418-0.16016-2.0312-0.48438-0.60547-0.33203-1.0859-0.78906-1.4375-1.375-0.34375-0.59375-0.51562-1.2656-0.51562-2.0156 0-0.73828 0.17188-1.3984 0.51562-1.9844 0.35156-0.58203 0.83203-1.0352 1.4375-1.3594 0.60156-0.32031 1.2812-0.48438 2.0312-0.48438 0.67578 0 1.2852 0.13672 1.8281 0.40625 0.55078 0.27344 0.98828 0.66406 1.3125 1.1719v-1.5156zm-4.0625 6.6875c0.57031 0 1.0859-0.125 1.5469-0.375 0.46875-0.25 0.82812-0.59375 1.0781-1.0312 0.25781-0.44531 0.39062-0.95312 0.39062-1.5156s-0.13281-1.0625-0.39062-1.5c-0.25-0.4375-0.60547-0.77344-1.0625-1.0156-0.46094-0.25-0.98047-0.375-1.5625-0.375-0.57422 0-1.0898 0.12109-1.5469 0.35938-0.46094 0.24219-0.82031 0.58594-1.0781 1.0312-0.25 0.4375-0.375 0.9375-0.375 1.5s0.125 1.0703 0.375 1.5156c0.25781 0.4375 0.61719 0.78125 1.0781 1.0312 0.45703 0.25 0.97266 0.375 1.5469 0.375z"/>
</g>
</g>
<g fill="#7e6449">
<g transform="translate(210.1 134.25)">
<path d="m4.7344 0.078125c-0.76172 0-1.4492-0.17188-2.0625-0.51562-0.61719-0.35156-1.1016-0.83594-1.4531-1.4531-0.35547-0.61328-0.53125-1.3047-0.53125-2.0781 0-0.76953 0.17578-1.4609 0.53125-2.0781 0.35156-0.61328 0.83594-1.0938 1.4531-1.4375 0.61328-0.34375 1.3008-0.51562 2.0625-0.51562 0.76953 0 1.4609 0.17188 2.0781 0.51562 0.61328 0.34375 1.0938 0.82422 1.4375 1.4375 0.34375 0.61719 0.51562 1.3086 0.51562 2.0781 0 0.77344-0.17188 1.4648-0.51562 2.0781-0.34375 0.61719-0.82422 1.1016-1.4375 1.4531-0.61719 0.34375-1.3086 0.51562-2.0781 0.51562zm0-0.95312c0.5625 0 1.0664-0.125 1.5156-0.375 0.44531-0.25781 0.79688-0.625 1.0469-1.0938 0.25781-0.47656 0.39062-1.0195 0.39062-1.625 0-0.60156-0.13281-1.1406-0.39062-1.6094-0.25-0.47656-0.60156-0.84375-1.0469-1.0938-0.44922-0.25781-0.95312-0.39062-1.5156-0.39062s-1.0703 0.13281-1.5156 0.39062c-0.44922 0.25-0.80469 0.61719-1.0625 1.0938-0.25 0.46875-0.375 1.0078-0.375 1.6094 0 0.60547 0.125 1.1484 0.375 1.625 0.25781 0.46875 0.61328 0.83594 1.0625 1.0938 0.44531 0.25 0.95312 0.375 1.5156 0.375z"/>
</g>
</g>
<g fill="#7e6449">
<g transform="translate(219.57 134.25)">
<path d="m1.5938 0.078125c-0.21875 0-0.40625-0.078125-0.5625-0.23438-0.15625-0.16406-0.23438-0.36328-0.23438-0.59375 0-0.23828 0.078125-0.42969 0.23438-0.57812 0.15625-0.15625 0.34375-0.23438 0.5625-0.23438 0.22656 0 0.42188 0.078125 0.57812 0.23438 0.16406 0.14844 0.25 0.33984 0.25 0.57812 0 0.23047-0.085937 0.42969-0.25 0.59375-0.15625 0.15625-0.35156 0.23438-0.57812 0.23438z"/>
</g>
</g>
<g fill="#7e6449">
<g transform="translate(187.5 145.98)"/>
</g>
<g fill="#7e6449">
<g transform="translate(187.5 154.57)"/>
</g>
<g fill="#7e6449">
<g transform="translate(187.5 163.15)"/>
</g>
<g fill="#7e6449">
<g transform="translate(187.5 176.29)"/>
</g>
<g fill="#7e6449">
<g transform="translate(187.5 186.63)"/>
</g>
<g fill="#7e6449">
<g transform="translate(187.5 195.21)"/>
</g>
</svg>
