<?xml version="1.0" encoding="UTF-8"?>
<svg width="40" height="40" version="1.0" viewBox="0 0 30 30" xmlns="http://www.w3.org/2000/svg" zoomAndPan="magnify">
<defs>
<clipPath id="a">
<path d="m4.4609 0h18.871v29h-18.871z"/>
</clipPath>
</defs>
<g clip-path="url(#a)">
<path d="m13.898 27.137 7.832-14.832c0.14844-0.43359 0.25781-0.87891 0.33594-1.332 0.078125-0.45703 0.11719-0.92969 0.11719-1.4141 0-2.3164-0.92578-4.4141-2.4258-5.9297-1.5039-1.5156-3.5703-2.4531-5.8594-2.4531-2.2891 0-4.3594 0.9375-5.8633 2.4531-1.5 1.5156-2.4258 3.6133-2.4258 5.9297 0 0.48438 0.039063 0.95703 0.11719 1.4141 0.078126 0.45312 0.1875 0.89844 0.33594 1.332zm0-22.793c1.4492 0 2.7617 0.59766 3.707 1.5586 0.95312 0.96094 1.543 2.2852 1.543 3.7539 0 0.30078-0.023438 0.59766-0.078126 0.89062-0.050781 0.29688-0.12109 0.58594-0.21875 0.86719-0.36328 1.0508-1.043 1.9492-1.9258 2.5781-0.85547 0.60937-1.9023 0.96875-3.0273 0.96875-1.1289 0-2.1758-0.35938-3.0312-0.96875-0.87891-0.62891-1.5547-1.5273-1.918-2.5781l-0.007813 0.007813c-0.097656-0.28516-0.16797-0.57031-0.21875-0.875-0.050781-0.29297-0.078125-0.58984-0.078125-0.89062 0-1.4688 0.58984-2.793 1.543-3.7539 0.94531-0.96094 2.2578-1.5586 3.7109-1.5586zm2.9023 2.375c-0.74609-0.75-1.7695-1.2148-2.9023-1.2148-1.1367 0-2.1602 0.46484-2.9062 1.2148-0.73828 0.75391-1.1992 1.7891-1.1992 2.9375 0 0.24219 0.019531 0.48047 0.058593 0.70312 0.039063 0.22656 0.097657 0.45703 0.16797 0.67578 0.28516 0.81641 0.81641 1.5195 1.5039 2.0117 0.66797 0.48047 1.4844 0.76172 2.375 0.76172 0.88672 0 1.7031-0.28125 2.3711-0.76172 0.6875-0.49219 1.2188-1.1953 1.5039-2.0117 0.074218-0.21875 0.13281-0.44141 0.16797-0.67578 0.039063-0.22266 0.058594-0.46094 0.058594-0.70312 0-1.1484-0.45703-2.1836-1.1992-2.9375zm5.9609 6.0781-8.3594 15.828c-0.050782 0.10547-0.12891 0.19141-0.23828 0.24219-0.27344 0.15234-0.625 0.046874-0.77344-0.23438l-8.3398-15.797c-0.019531-0.039063-0.039062-0.070313-0.050781-0.11719-0.17578-0.5-0.3125-1.0234-0.40234-1.5547-0.085937-0.53125-0.13672-1.0625-0.13672-1.6055 0-2.6367 1.0586-5.0195 2.7695-6.75 1.707-1.7266 4.0586-2.793 6.668-2.793 2.6055 0 4.9609 1.0664 6.6641 2.793 1.7109 1.7305 2.7695 4.1133 2.7695 6.75 0 0.54297-0.050781 1.0742-0.13672 1.6055-0.089843 0.53125-0.22656 1.0547-0.40234 1.5547-0.003907 0.027344-0.019531 0.050781-0.03125 0.078125z" fill="#f2aaa8"/>
</g>
</svg>
