<?xml version="1.0" encoding="UTF-8"?>
<svg width="500" height="300" version="1.0" viewBox="0 0 375 225" xmlns="http://www.w3.org/2000/svg" zoomAndPan="magnify">
<defs/>
<g fill="#bf6a66">
<g transform="translate(127.42 44.376)">
<path d="m9.0625 0.28125c-2.3047 0-4.0938-0.63281-5.375-1.9062-1.2812-1.2812-1.9219-3.0977-1.9219-5.4531v-9.0156h3.7344v8.875c0 2.8867 1.1914 4.3281 3.5781 4.3281 1.1641 0 2.0547-0.34766 2.6719-1.0469 0.61328-0.69531 0.92188-1.7891 0.92188-3.2812v-8.875h3.6875v9.0156c0 2.3555-0.64062 4.1719-1.9219 5.4531-1.2812 1.2734-3.0742 1.9062-5.375 1.9062z"/>
</g>
</g>
<g fill="#bf6a66">
<g transform="translate(145.54 44.376)">
<path d="m8.9688-12.562c1.1445 0 2.1914 0.26562 3.1406 0.79688 0.94531 0.53125 1.6875 1.2773 2.2188 2.2344 0.53906 0.96094 0.8125 2.0742 0.8125 3.3438 0 1.2734-0.27344 2.3867-0.8125 3.3438-0.53125 0.96094-1.2734 1.7031-2.2188 2.2344-0.94922 0.53125-1.9961 0.79688-3.1406 0.79688-1.6992 0-2.9961-0.53516-3.8906-1.6094v1.4219h-3.4219v-17.062h3.5938v6c0.89453-1 2.1328-1.5 3.7188-1.5zm-0.625 9.7969c0.92578 0 1.6797-0.30469 2.2656-0.92188 0.59375-0.625 0.89062-1.457 0.89062-2.5 0-1.0391-0.29688-1.8672-0.89062-2.4844-0.58594-0.625-1.3398-0.9375-2.2656-0.9375-0.91797 0-1.6719 0.3125-2.2656 0.9375-0.58594 0.61719-0.875 1.4453-0.875 2.4844 0 1.043 0.28906 1.875 0.875 2.5 0.59375 0.61719 1.3477 0.92188 2.2656 0.92188z"/>
</g>
</g>
<g fill="#bf6a66">
<g transform="translate(161.41 44.376)">
<path d="m1.6562-12.375h3.5938v12.375h-3.5938zm1.7812-1.7188c-0.65625 0-1.1953-0.19141-1.6094-0.57812-0.40625-0.38281-0.60938-0.85938-0.60938-1.4219 0-0.57031 0.20312-1.0469 0.60938-1.4219 0.41406-0.38281 0.95312-0.57812 1.6094-0.57812 0.66406 0 1.2031 0.18359 1.6094 0.54688 0.41406 0.36719 0.625 0.82422 0.625 1.375 0 0.60547-0.21094 1.1055-0.625 1.5-0.40625 0.38672-0.94531 0.57812-1.6094 0.57812z"/>
</g>
</g>
<g fill="#bf6a66">
<g transform="translate(168.33 44.376)">
<path d="m7.6406 0.1875c-1.3242 0-2.5117-0.26953-3.5625-0.8125-1.0547-0.55078-1.875-1.3047-2.4688-2.2656-0.58594-0.96875-0.875-2.0664-0.875-3.2969 0-1.2266 0.28906-2.3203 0.875-3.2812 0.59375-0.96875 1.4141-1.7227 2.4688-2.2656 1.0508-0.55078 2.2383-0.82812 3.5625-0.82812 1.3008 0 2.4375 0.27734 3.4062 0.82812 0.97656 0.54297 1.6875 1.3203 2.125 2.3281l-2.7812 1.5c-0.63672-1.1328-1.5625-1.7031-2.7812-1.7031-0.9375 0-1.7148 0.30859-2.3281 0.92188-0.60547 0.60547-0.90625 1.4375-0.90625 2.5s0.30078 1.9023 0.90625 2.5156c0.61328 0.60547 1.3906 0.90625 2.3281 0.90625 1.2266 0 2.1562-0.56641 2.7812-1.7031l2.7812 1.5312c-0.4375 0.98047-1.1484 1.7461-2.125 2.2969-0.96875 0.55469-2.1055 0.82812-3.4062 0.82812z"/>
</g>
</g>
<g fill="#bf6a66">
<g transform="translate(181.92 44.376)">
<path d="m6.6406-12.562c1.9141 0 3.3906 0.46094 4.4219 1.375 1.0312 0.90625 1.5469 2.2812 1.5469 4.125v7.0625h-3.3594v-1.5469c-0.67969 1.1562-1.9375 1.7344-3.7812 1.7344-0.94922 0-1.7734-0.16406-2.4688-0.48438-0.69922-0.32031-1.2344-0.76562-1.6094-1.3281-0.36719-0.57031-0.54688-1.2188-0.54688-1.9375 0-1.1562 0.42969-2.0625 1.2969-2.7188 0.875-0.65625 2.2109-0.98438 4.0156-0.98438h2.8594c0-0.78125-0.24219-1.3789-0.71875-1.7969-0.46875-0.42578-1.1836-0.64062-2.1406-0.64062-0.65625 0-1.3047 0.10547-1.9375 0.3125-0.63672 0.21094-1.1797 0.48438-1.625 0.82812l-1.2812-2.5c0.67578-0.47656 1.4844-0.84766 2.4219-1.1094 0.94531-0.25781 1.9141-0.39062 2.9062-0.39062zm-0.26562 10.328c0.61328 0 1.1562-0.14062 1.625-0.42188 0.47656-0.28125 0.81641-0.69531 1.0156-1.25v-1.2656h-2.4531c-1.4805 0-2.2188 0.48438-2.2188 1.4531 0 0.46094 0.17578 0.82422 0.53125 1.0938 0.36328 0.26172 0.86328 0.39062 1.5 0.39062z"/>
</g>
</g>
<g fill="#bf6a66">
<g transform="translate(196.11 44.376)">
<path d="m7.6406 0.1875c-1.3242 0-2.5117-0.26953-3.5625-0.8125-1.0547-0.55078-1.875-1.3047-2.4688-2.2656-0.58594-0.96875-0.875-2.0664-0.875-3.2969 0-1.2266 0.28906-2.3203 0.875-3.2812 0.59375-0.96875 1.4141-1.7227 2.4688-2.2656 1.0508-0.55078 2.2383-0.82812 3.5625-0.82812 1.3008 0 2.4375 0.27734 3.4062 0.82812 0.97656 0.54297 1.6875 1.3203 2.125 2.3281l-2.7812 1.5c-0.63672-1.1328-1.5625-1.7031-2.7812-1.7031-0.9375 0-1.7148 0.30859-2.3281 0.92188-0.60547 0.60547-0.90625 1.4375-0.90625 2.5s0.30078 1.9023 0.90625 2.5156c0.61328 0.60547 1.3906 0.90625 2.3281 0.90625 1.2266 0 2.1562-0.56641 2.7812-1.7031l2.7812 1.5312c-0.4375 0.98047-1.1484 1.7461-2.125 2.2969-0.96875 0.55469-2.1055 0.82812-3.4062 0.82812z"/>
</g>
</g>
<g fill="#bf6a66">
<g transform="translate(209.7 44.376)">
<path d="m1.6562-12.375h3.5938v12.375h-3.5938zm1.7812-1.7188c-0.65625 0-1.1953-0.19141-1.6094-0.57812-0.40625-0.38281-0.60938-0.85938-0.60938-1.4219 0-0.57031 0.20312-1.0469 0.60938-1.4219 0.41406-0.38281 0.95312-0.57812 1.6094-0.57812 0.66406 0 1.2031 0.18359 1.6094 0.54688 0.41406 0.36719 0.625 0.82422 0.625 1.375 0 0.60547-0.21094 1.1055-0.625 1.5-0.40625 0.38672-0.94531 0.57812-1.6094 0.57812z"/>
</g>
</g>
<g fill="#bf6a66">
<g transform="translate(216.62 44.376)">
<path d="m7.5469 0.1875c-1.3047 0-2.4766-0.26953-3.5156-0.8125-1.0312-0.55078-1.8398-1.3047-2.4219-2.2656-0.58594-0.96875-0.875-2.0664-0.875-3.2969 0-1.2266 0.28906-2.3203 0.875-3.2812 0.58203-0.96875 1.3906-1.7227 2.4219-2.2656 1.0391-0.55078 2.2109-0.82812 3.5156-0.82812 1.3008 0 2.4609 0.27734 3.4844 0.82812 1.0312 0.54297 1.8359 1.2969 2.4219 2.2656 0.58203 0.96094 0.875 2.0547 0.875 3.2812 0 1.2305-0.29297 2.3281-0.875 3.2969-0.58594 0.96094-1.3906 1.7148-2.4219 2.2656-1.0234 0.54297-2.1836 0.8125-3.4844 0.8125zm0-2.9531c0.91406 0 1.6641-0.30469 2.25-0.92188 0.59375-0.625 0.89062-1.457 0.89062-2.5 0-1.0391-0.29688-1.8672-0.89062-2.4844-0.58594-0.625-1.3359-0.9375-2.25-0.9375-0.92969 0-1.6875 0.3125-2.2812 0.9375-0.59375 0.61719-0.89062 1.4453-0.89062 2.4844 0 1.043 0.29688 1.875 0.89062 2.5 0.59375 0.61719 1.3516 0.92188 2.2812 0.92188zm0.95312-14.5h3.8594l-4.1562 3.2969h-2.8125z"/>
</g>
</g>
<g fill="#bf6a66">
<g transform="translate(231.68 44.376)">
<path d="m9.1719-12.562c1.5391 0 2.7812 0.46484 3.7188 1.3906 0.94531 0.91797 1.4219 2.2812 1.4219 4.0938v7.0781h-3.5938v-6.5312c0-0.97656-0.21484-1.707-0.64062-2.1875-0.42969-0.48828-1.0469-0.73438-1.8594-0.73438-0.90625 0-1.6328 0.28125-2.1719 0.84375-0.53125 0.55469-0.79688 1.3828-0.79688 2.4844v6.125h-3.5938v-12.375h3.4219v1.4531c0.47656-0.51953 1.0664-0.92188 1.7656-1.2031 0.70703-0.28906 1.4844-0.4375 2.3281-0.4375z"/>
</g>
</g>
<g>
<g transform="translate(187.5 68.376)"/>
</g>
<g fill="#7e6449">
<g transform="translate(187.5 75.734)"/>
</g>
<g fill="#7e6449">
<g transform="translate(138.69 92.201)">
<path d="m0.9375-10.5h1.2656l-0.10938 4.0469h-1.0625zm2.7188 0h1.2656l-0.10938 4.0469h-1.0625z"/>
</g>
</g>
<g fill="#7e6449">
<g transform="translate(144.56 92.201)">
<path d="m5-4.6719-1.9219 1.9531v2.7188h-1.5v-10.5h1.5v5.8594l5.7031-5.8594h1.7031l-4.4844 4.7188 4.7656 5.7812h-1.75z"/>
</g>
</g>
<g fill="#7e6449">
<g transform="translate(155.34 92.201)">
<path d="m5.0156 0.125c-0.83594 0-1.5742-0.21094-2.2188-0.64062-0.64844-0.42578-1.1562-1.0391-1.5312-1.8438-0.36719-0.8125-0.54688-1.7734-0.54688-2.8906 0-1.1133 0.17969-2.0703 0.54688-2.875 0.375-0.8125 0.88281-1.4297 1.5312-1.8594 0.64453-0.42578 1.3828-0.64062 2.2188-0.64062 0.8125 0 1.5391 0.21484 2.1875 0.64062 0.64453 0.42969 1.1484 1.0469 1.5156 1.8594 0.375 0.80469 0.5625 1.7617 0.5625 2.875 0 1.1172-0.1875 2.0781-0.5625 2.8906-0.36719 0.80469-0.87109 1.418-1.5156 1.8438-0.64844 0.42969-1.375 0.64062-2.1875 0.64062zm0-1.3438c0.83203 0 1.5-0.34375 2-1.0312 0.50781-0.6875 0.76562-1.6875 0.76562-3s-0.25781-2.3125-0.76562-3c-0.5-0.6875-1.168-1.0312-2-1.0312-0.85547 0-1.5391 0.34375-2.0469 1.0312-0.5 0.6875-0.75 1.6875-0.75 3s0.25 2.3125 0.75 3c0.50781 0.6875 1.1914 1.0312 2.0469 1.0312z"/>
</g>
</g>
<g fill="#7e6449">
<g transform="translate(165.34 92.201)"/>
</g>
<g fill="#7e6449">
<g transform="translate(169.38 92.201)">
<path d="m9.1875-1.3125v1.3125h-7.6094v-10.5h7.4062v1.3125h-5.9062v3.2188h5.2656v1.2812h-5.2656v3.375z"/>
</g>
</g>
<g fill="#7e6449">
<g transform="translate(179.42 92.201)">
<path d="m8.4062-7.9531-3.4844 7.9531h-1.4688l-3.4844-7.9531h1.5l2.7344 6.375 2.7812-6.375z"/>
</g>
</g>
<g fill="#7e6449">
<g transform="translate(187.81 92.201)">
<path d="m8.5469-3.9375c0 0.11719-0.011719 0.26172-0.03125 0.4375h-6.4531c0.09375 0.71094 0.39844 1.2773 0.92188 1.7031 0.53125 0.41797 1.1875 0.625 1.9688 0.625 0.94531 0 1.7109-0.31641 2.2969-0.95312l0.79688 0.92188c-0.36719 0.42969-0.82031 0.75-1.3594 0.96875-0.53125 0.21875-1.125 0.32812-1.7812 0.32812-0.84375 0-1.5938-0.17188-2.25-0.51562-0.64844-0.34375-1.1484-0.82812-1.5-1.4531-0.35547-0.625-0.53125-1.3203-0.53125-2.0938 0-0.76953 0.17188-1.4609 0.51562-2.0781 0.35156-0.625 0.83203-1.1094 1.4375-1.4531 0.60156-0.35156 1.2852-0.53125 2.0469-0.53125 0.75781 0 1.4375 0.17969 2.0312 0.53125 0.59375 0.34375 1.0547 0.82812 1.3906 1.4531 0.33203 0.61719 0.5 1.3203 0.5 2.1094zm-3.9219-2.875c-0.69922 0-1.2812 0.21484-1.75 0.64062-0.46094 0.41797-0.73047 0.96484-0.8125 1.6406h5.1094c-0.085937-0.66406-0.35938-1.2109-0.82812-1.6406-0.46094-0.42578-1.0312-0.64062-1.7188-0.64062z"/>
</g>
</g>
<g fill="#7e6449">
<g transform="translate(196.99 92.201)">
<path d="m5.6094-8.0312c1.0078 0 1.8125 0.29688 2.4062 0.89062 0.59375 0.58594 0.89062 1.4375 0.89062 2.5625v4.5781h-1.4375v-4.4062c0-0.76953-0.1875-1.3477-0.5625-1.7344-0.36719-0.39453-0.89062-0.59375-1.5781-0.59375-0.78125 0-1.3984 0.23047-1.8438 0.6875-0.44922 0.44922-0.67188 1.1016-0.67188 1.9531v4.0938h-1.4531v-7.9531h1.3906v1.2031c0.28906-0.40625 0.67969-0.71875 1.1719-0.9375 0.5-0.22656 1.0625-0.34375 1.6875-0.34375z"/>
</g>
</g>
<g fill="#7e6449">
<g transform="translate(207.2 92.201)">
<path d="m5.8281-0.46875c-0.21094 0.1875-0.46875 0.32812-0.78125 0.42188-0.30469 0.09375-0.62109 0.14062-0.95312 0.14062-0.80469 0-1.4219-0.21094-1.8594-0.64062-0.4375-0.4375-0.65625-1.0547-0.65625-1.8594v-4.3594h-1.3594v-1.1875h1.3594v-1.7344h1.4375v1.7344h2.2812v1.1875h-2.2812v4.3125c0 0.42969 0.10156 0.75781 0.3125 0.98438 0.21875 0.23047 0.53125 0.34375 0.9375 0.34375 0.4375 0 0.8125-0.125 1.125-0.375z"/>
</g>
</g>
<g fill="#7e6449">
<g transform="translate(213.41 92.201)">
<path d="m4.7656 0.09375c-0.79297 0-1.5078-0.17188-2.1406-0.51562-0.625-0.35156-1.1172-0.83594-1.4688-1.4531-0.35547-0.625-0.53125-1.3203-0.53125-2.0938 0-0.78125 0.17578-1.4766 0.53125-2.0938 0.35156-0.61328 0.84375-1.0938 1.4688-1.4375 0.63281-0.35156 1.3477-0.53125 2.1406-0.53125 0.78906 0 1.5 0.17969 2.125 0.53125 0.625 0.34375 1.1133 0.82422 1.4688 1.4375 0.35156 0.61719 0.53125 1.3125 0.53125 2.0938 0 0.77344-0.17969 1.4688-0.53125 2.0938-0.35547 0.61719-0.84375 1.1016-1.4688 1.4531-0.625 0.34375-1.3359 0.51562-2.125 0.51562zm0-1.2656c0.50781 0 0.96875-0.11328 1.375-0.34375 0.40625-0.23828 0.72266-0.57031 0.95312-1 0.22656-0.42578 0.34375-0.91016 0.34375-1.4531 0-0.55078-0.11719-1.0391-0.34375-1.4688-0.23047-0.42578-0.54688-0.75391-0.95312-0.98438-0.40625-0.22656-0.86719-0.34375-1.375-0.34375-0.51172 0-0.96875 0.11719-1.375 0.34375-0.39844 0.23047-0.71484 0.55859-0.95312 0.98438-0.24219 0.42969-0.35938 0.91797-0.35938 1.4688 0 0.54297 0.11719 1.0273 0.35938 1.4531 0.23828 0.42969 0.55469 0.76172 0.95312 1 0.40625 0.23047 0.86328 0.34375 1.375 0.34375z"/>
</g>
</g>
<g fill="#7e6449">
<g transform="translate(222.93 92.201)">
<path d="m3.6406 0.09375c-0.64844 0-1.2734-0.089844-1.875-0.26562-0.59375-0.17578-1.0625-0.39844-1.4062-0.67188l0.59375-1.1406c0.35156 0.25 0.78125 0.45312 1.2812 0.60938 0.5 0.14844 1.0039 0.21875 1.5156 0.21875 1.2578 0 1.8906-0.35938 1.8906-1.0781 0-0.23828-0.089844-0.42578-0.26562-0.5625-0.16797-0.14453-0.38281-0.25-0.64062-0.3125-0.25-0.0625-0.60938-0.13281-1.0781-0.21875-0.63672-0.10156-1.1562-0.21875-1.5625-0.34375-0.40625-0.13281-0.75781-0.35156-1.0469-0.65625-0.29297-0.3125-0.4375-0.75-0.4375-1.3125 0-0.71875 0.30078-1.2969 0.90625-1.7344 0.60156-0.4375 1.4102-0.65625 2.4219-0.65625 0.51953 0 1.0469 0.070312 1.5781 0.20312 0.53125 0.125 0.96875 0.29688 1.3125 0.51562l-0.625 1.1406c-0.64844-0.41406-1.4062-0.625-2.2812-0.625-0.61719 0-1.0859 0.10547-1.4062 0.3125-0.3125 0.19922-0.46875 0.46094-0.46875 0.78125 0 0.26172 0.085937 0.46875 0.26562 0.625 0.17578 0.14844 0.39453 0.25781 0.65625 0.32812 0.26953 0.0625 0.64453 0.14062 1.125 0.23438 0.64453 0.11719 1.1602 0.23438 1.5469 0.35938 0.39453 0.125 0.73438 0.33984 1.0156 0.64062 0.28125 0.29297 0.42188 0.71094 0.42188 1.25 0 0.71875-0.30859 1.293-0.92188 1.7188-0.61719 0.42969-1.4531 0.64062-2.5156 0.64062z"/>
</g>
</g>
<g fill="#7e6449">
<g transform="translate(230.45 92.201)">
<path d="m0.9375-10.5h1.2656l-0.10938 4.0469h-1.0625zm2.7188 0h1.2656l-0.10938 4.0469h-1.0625z"/>
</g>
</g>
<g fill="#7e6449">
<g transform="translate(25.999 113.05)">
<path d="m6.2656 0.078125c-1.0312 0-1.9609-0.22656-2.7812-0.6875-0.82422-0.46875-1.4766-1.1016-1.9531-1.9062-0.46875-0.8125-0.70312-1.7227-0.70312-2.7344 0-1.0078 0.23438-1.9141 0.70312-2.7188 0.47656-0.8125 1.1289-1.4453 1.9531-1.9062 0.82031-0.46875 1.75-0.70312 2.7812-0.70312 0.75781 0 1.457 0.125 2.0938 0.375 0.64453 0.24219 1.1914 0.60156 1.6406 1.0781l-0.46875 0.5c-0.84375-0.83203-1.9219-1.25-3.2344-1.25-0.875 0-1.6797 0.20312-2.4062 0.60938-0.71875 0.39844-1.2812 0.94922-1.6875 1.6562-0.40625 0.69922-0.60938 1.4844-0.60938 2.3594s0.20312 1.668 0.60938 2.375c0.40625 0.69922 0.96875 1.25 1.6875 1.6562 0.72656 0.39844 1.5312 0.59375 2.4062 0.59375 1.3008 0 2.3789-0.42188 3.2344-1.2656l0.46875 0.5c-0.44922 0.48047-0.99609 0.84375-1.6406 1.0938-0.64844 0.25-1.3438 0.375-2.0938 0.375z"/>
</g>
</g>
<g fill="#7e6449">
<g transform="translate(36.737 113.05)">
<path d="m4.2344-7.8906c0.96875 0 1.7109 0.25 2.2344 0.75 0.51953 0.49219 0.78125 1.2148 0.78125 2.1719v4.9688h-0.71875v-1.3906c-0.25 0.46094-0.62109 0.82031-1.1094 1.0781-0.48047 0.25-1.0547 0.375-1.7188 0.375-0.86719 0-1.5547-0.20312-2.0625-0.60938-0.5-0.41406-0.75-0.95703-0.75-1.625 0-0.65625 0.22656-1.1797 0.6875-1.5781 0.46875-0.40625 1.2109-0.60938 2.2344-0.60938h2.6875v-0.64062c0-0.72656-0.19922-1.2812-0.59375-1.6562-0.39844-0.38281-0.97656-0.57812-1.7344-0.57812-0.52344 0-1.0234 0.09375-1.5 0.28125-0.46875 0.17969-0.87109 0.41797-1.2031 0.71875l-0.375-0.54688c0.39453-0.35156 0.86328-0.625 1.4062-0.8125 0.55078-0.19531 1.1289-0.29688 1.7344-0.29688zm-0.42188 7.3281c0.64453 0 1.1953-0.14453 1.6562-0.4375 0.45703-0.30078 0.80078-0.73828 1.0312-1.3125v-1.4688h-2.6719c-0.77344 0-1.3281 0.14062-1.6719 0.42188s-0.51562 0.66797-0.51562 1.1562c0 0.51172 0.1875 0.91406 0.5625 1.2031 0.38281 0.29297 0.92188 0.4375 1.6094 0.4375z"/>
</g>
</g>
<g fill="#7e6449">
<g transform="translate(45.48 113.05)">
<path d="m11.344-7.8906c0.96875 0 1.7266 0.28906 2.2812 0.85938 0.55078 0.5625 0.82812 1.3828 0.82812 2.4531v4.5781h-0.75v-4.5156c0-0.875-0.21484-1.5391-0.64062-2-0.42969-0.46875-1.0273-0.70312-1.7969-0.70312-0.88672 0-1.5859 0.27734-2.0938 0.82812-0.51172 0.55469-0.76562 1.293-0.76562 2.2188v4.1719h-0.75v-4.5156c0-0.875-0.21875-1.5391-0.65625-2-0.42969-0.46875-1.0273-0.70312-1.7969-0.70312-0.875 0-1.5742 0.27734-2.0938 0.82812-0.51172 0.55469-0.76562 1.293-0.76562 2.2188v4.1719h-0.75v-7.8281h0.71875v1.6719c0.25781-0.53906 0.64453-0.96094 1.1562-1.2656 0.51953-0.3125 1.1328-0.46875 1.8438-0.46875 0.70703 0 1.3047 0.16406 1.7969 0.48438 0.5 0.3125 0.85156 0.78125 1.0625 1.4062 0.25781-0.58203 0.66406-1.0391 1.2188-1.375 0.5625-0.34375 1.2109-0.51562 1.9531-0.51562z"/>
</g>
</g>
<g fill="#7e6449">
<g transform="translate(61.438 113.05)">
<path d="m1.5938-7.8281h0.75v7.8281h-0.75zm0.375-1.9062c-0.16797 0-0.3125-0.054687-0.4375-0.17188-0.11719-0.11328-0.17188-0.25391-0.17188-0.42188 0-0.17578 0.054687-0.32031 0.17188-0.4375 0.125-0.125 0.26953-0.1875 0.4375-0.1875 0.16406 0 0.30469 0.058594 0.42188 0.17188 0.125 0.11719 0.1875 0.26172 0.1875 0.4375 0 0.16797-0.0625 0.3125-0.1875 0.4375-0.11719 0.11719-0.25781 0.17188-0.42188 0.17188z"/>
</g>
</g>
<g fill="#7e6449">
<g transform="translate(65.352 113.05)">
<path d="m5.4219-7.8906c0.97656 0 1.75 0.28906 2.3125 0.85938 0.57031 0.5625 0.85938 1.3828 0.85938 2.4531v4.5781h-0.75v-4.5156c0-0.875-0.22656-1.5391-0.67188-2-0.4375-0.46875-1.0586-0.70312-1.8594-0.70312-0.91797 0-1.6406 0.27734-2.1719 0.82812-0.53125 0.55469-0.79688 1.293-0.79688 2.2188v4.1719h-0.75v-7.8281h0.71875v1.6875c0.26953-0.53906 0.67188-0.96875 1.2031-1.2812s1.1641-0.46875 1.9062-0.46875z"/>
</g>
</g>
<g fill="#7e6449">
<g transform="translate(75.445 113.05)">
<path d="m4.6562 0.0625c-0.74219 0-1.4141-0.16406-2.0156-0.5-0.59375-0.34375-1.0625-0.81641-1.4062-1.4219-0.33594-0.61328-0.5-1.3008-0.5-2.0625 0-0.75781 0.16406-1.4414 0.5-2.0469 0.34375-0.60156 0.8125-1.0703 1.4062-1.4062 0.60156-0.34375 1.2734-0.51562 2.0156-0.51562 0.73828 0 1.4062 0.17188 2 0.51562 0.59375 0.33594 1.0547 0.80469 1.3906 1.4062 0.34375 0.60547 0.51562 1.2891 0.51562 2.0469 0 0.76172-0.17188 1.4492-0.51562 2.0625-0.33594 0.60547-0.79688 1.0781-1.3906 1.4219-0.59375 0.33594-1.2617 0.5-2 0.5zm0-0.67188c0.59375 0 1.125-0.14062 1.5938-0.42188 0.47656-0.28125 0.85156-0.67188 1.125-1.1719 0.28125-0.5 0.42188-1.0703 0.42188-1.7188 0-0.63281-0.14062-1.2031-0.42188-1.7031-0.27344-0.5-0.64844-0.89062-1.125-1.1719-0.46875-0.28125-1-0.42188-1.5938-0.42188-0.60547 0-1.1484 0.14062-1.625 0.42188-0.46875 0.28125-0.84375 0.67188-1.125 1.1719-0.27344 0.5-0.40625 1.0703-0.40625 1.7031 0 0.64844 0.13281 1.2188 0.40625 1.7188 0.28125 0.5 0.65625 0.89062 1.125 1.1719 0.47656 0.28125 1.0195 0.42188 1.625 0.42188z"/>
</g>
</g>
<g fill="#7e6449">
<g transform="translate(84.744 113.05)"/>
</g>
<g fill="#7e6449">
<g transform="translate(88.598 113.05)">
<path d="m4.2344-7.8906c0.96875 0 1.7109 0.25 2.2344 0.75 0.51953 0.49219 0.78125 1.2148 0.78125 2.1719v4.9688h-0.71875v-1.3906c-0.25 0.46094-0.62109 0.82031-1.1094 1.0781-0.48047 0.25-1.0547 0.375-1.7188 0.375-0.86719 0-1.5547-0.20312-2.0625-0.60938-0.5-0.41406-0.75-0.95703-0.75-1.625 0-0.65625 0.22656-1.1797 0.6875-1.5781 0.46875-0.40625 1.2109-0.60938 2.2344-0.60938h2.6875v-0.64062c0-0.72656-0.19922-1.2812-0.59375-1.6562-0.39844-0.38281-0.97656-0.57812-1.7344-0.57812-0.52344 0-1.0234 0.09375-1.5 0.28125-0.46875 0.17969-0.87109 0.41797-1.2031 0.71875l-0.375-0.54688c0.39453-0.35156 0.86328-0.625 1.4062-0.8125 0.55078-0.19531 1.1289-0.29688 1.7344-0.29688zm-0.42188 7.3281c0.64453 0 1.1953-0.14453 1.6562-0.4375 0.45703-0.30078 0.80078-0.73828 1.0312-1.3125v-1.4688h-2.6719c-0.77344 0-1.3281 0.14062-1.6719 0.42188s-0.51562 0.66797-0.51562 1.1562c0 0.51172 0.1875 0.91406 0.5625 1.2031 0.38281 0.29297 0.92188 0.4375 1.6094 0.4375z"/>
</g>
</g>
<g fill="#7e6449">
<g transform="translate(97.341 113.05)">
<path d="m1.5938-11.125h0.75v11.125h-0.75z"/>
</g>
</g>
<g fill="#7e6449">
<g transform="translate(101.26 113.05)"/>
</g>
<g fill="#7e6449">
<g transform="translate(105.11 113.05)">
<path d="m7.875-7.8281-3.5469 7.8281h-0.76562l-3.5156-7.8281h0.79688l3.1094 7 3.1562-7z"/>
</g>
</g>
<g fill="#7e6449">
<g transform="translate(113.03 113.05)">
<path d="m4.6562 0.0625c-0.74219 0-1.4141-0.16406-2.0156-0.5-0.59375-0.34375-1.0625-0.81641-1.4062-1.4219-0.33594-0.61328-0.5-1.3008-0.5-2.0625 0-0.75781 0.16406-1.4414 0.5-2.0469 0.34375-0.60156 0.8125-1.0703 1.4062-1.4062 0.60156-0.34375 1.2734-0.51562 2.0156-0.51562 0.73828 0 1.4062 0.17188 2 0.51562 0.59375 0.33594 1.0547 0.80469 1.3906 1.4062 0.34375 0.60547 0.51562 1.2891 0.51562 2.0469 0 0.76172-0.17188 1.4492-0.51562 2.0625-0.33594 0.60547-0.79688 1.0781-1.3906 1.4219-0.59375 0.33594-1.2617 0.5-2 0.5zm0-0.67188c0.59375 0 1.125-0.14062 1.5938-0.42188 0.47656-0.28125 0.85156-0.67188 1.125-1.1719 0.28125-0.5 0.42188-1.0703 0.42188-1.7188 0-0.63281-0.14062-1.2031-0.42188-1.7031-0.27344-0.5-0.64844-0.89062-1.125-1.1719-0.46875-0.28125-1-0.42188-1.5938-0.42188-0.60547 0-1.1484 0.14062-1.625 0.42188-0.46875 0.28125-0.84375 0.67188-1.125 1.1719-0.27344 0.5-0.40625 1.0703-0.40625 1.7031 0 0.64844 0.13281 1.2188 0.40625 1.7188 0.28125 0.5 0.65625 0.89062 1.125 1.1719 0.47656 0.28125 1.0195 0.42188 1.625 0.42188z"/>
</g>
</g>
<g fill="#7e6449">
<g transform="translate(122.33 113.05)">
<path d="m1.5938-11.125h0.75v11.125h-0.75z"/>
</g>
</g>
<g fill="#7e6449">
<g transform="translate(126.24 113.05)">
<path d="m4.6875 0.0625c-0.75 0-1.4297-0.16406-2.0312-0.5-0.60547-0.34375-1.0781-0.81641-1.4219-1.4219-0.33594-0.61328-0.5-1.3008-0.5-2.0625 0-0.75781 0.16406-1.4414 0.5-2.0469 0.34375-0.61328 0.81641-1.0859 1.4219-1.4219 0.60156-0.33203 1.2812-0.5 2.0312-0.5 0.63281 0 1.207 0.125 1.7188 0.375 0.51953 0.24219 0.94141 0.59375 1.2656 1.0625l-0.5625 0.40625c-0.28125-0.38281-0.63281-0.67578-1.0469-0.875-0.41797-0.19531-0.875-0.29688-1.375-0.29688-0.60547 0-1.1523 0.14062-1.6406 0.42188-0.48047 0.27344-0.85938 0.65625-1.1406 1.1562-0.27344 0.5-0.40625 1.0742-0.40625 1.7188 0 0.65625 0.13281 1.2344 0.40625 1.7344 0.28125 0.5 0.66016 0.89062 1.1406 1.1719 0.48828 0.27344 1.0352 0.40625 1.6406 0.40625 0.5 0 0.95703-0.097656 1.375-0.29688 0.41406-0.19531 0.76562-0.48828 1.0469-0.875l0.5625 0.40625c-0.32422 0.46875-0.74609 0.82812-1.2656 1.0781-0.51172 0.24219-1.0859 0.35938-1.7188 0.35938z"/>
</g>
</g>
<g fill="#7e6449">
<g transform="translate(134.57 113.05)">
<path d="m4.2344-7.8906c0.96875 0 1.7109 0.25 2.2344 0.75 0.51953 0.49219 0.78125 1.2148 0.78125 2.1719v4.9688h-0.71875v-1.3906c-0.25 0.46094-0.62109 0.82031-1.1094 1.0781-0.48047 0.25-1.0547 0.375-1.7188 0.375-0.86719 0-1.5547-0.20312-2.0625-0.60938-0.5-0.41406-0.75-0.95703-0.75-1.625 0-0.65625 0.22656-1.1797 0.6875-1.5781 0.46875-0.40625 1.2109-0.60938 2.2344-0.60938h2.6875v-0.64062c0-0.72656-0.19922-1.2812-0.59375-1.6562-0.39844-0.38281-0.97656-0.57812-1.7344-0.57812-0.52344 0-1.0234 0.09375-1.5 0.28125-0.46875 0.17969-0.87109 0.41797-1.2031 0.71875l-0.375-0.54688c0.39453-0.35156 0.86328-0.625 1.4062-0.8125 0.55078-0.19531 1.1289-0.29688 1.7344-0.29688zm-0.42188 7.3281c0.64453 0 1.1953-0.14453 1.6562-0.4375 0.45703-0.30078 0.80078-0.73828 1.0312-1.3125v-1.4688h-2.6719c-0.77344 0-1.3281 0.14062-1.6719 0.42188s-0.51562 0.66797-0.51562 1.1562c0 0.51172 0.1875 0.91406 0.5625 1.2031 0.38281 0.29297 0.92188 0.4375 1.6094 0.4375zm1.625-10.312h1.0781l-2.3594 1.7656h-0.8125z"/>
</g>
</g>
<g fill="#7e6449">
<g transform="translate(143.31 113.05)">
<path d="m5.4219-7.8906c0.97656 0 1.75 0.28906 2.3125 0.85938 0.57031 0.5625 0.85938 1.3828 0.85938 2.4531v4.5781h-0.75v-4.5156c0-0.875-0.22656-1.5391-0.67188-2-0.4375-0.46875-1.0586-0.70312-1.8594-0.70312-0.91797 0-1.6406 0.27734-2.1719 0.82812-0.53125 0.55469-0.79688 1.293-0.79688 2.2188v4.1719h-0.75v-7.8281h0.71875v1.6875c0.26953-0.53906 0.67188-0.96875 1.2031-1.2812s1.1641-0.46875 1.9062-0.46875z"/>
</g>
</g>
<g fill="#7e6449">
<g transform="translate(153.4 113.05)"/>
</g>
<g fill="#7e6449">
<g transform="translate(157.26 113.05)">
<path d="m7.6406-6.9375-0.42188 3.375h2.1719v0.59375h-2.25l-0.35938 2.9688h-0.59375l0.35938-2.9688h-3.2969l-0.375 2.9688h-0.59375l0.35938-2.9688h-2.1562v-0.59375h2.2344l0.42188-3.375h-2.2031v-0.59375h2.2656l0.35938-2.9688h0.625l-0.375 2.9688h3.2969l0.35938-2.9688h0.59375l-0.35938 2.9688h2.1719v0.59375zm-0.60938 0h-3.2969l-0.40625 3.375h3.2812z"/>
</g>
</g>
<g fill="#7e6449">
<g transform="translate(167.6 113.05)">
<path d="m3.4688-10.5v10.5h-0.76562v-9.8125h-2.5625v-0.6875z"/>
</g>
</g>
<g fill="#7e6449">
<g transform="translate(172.9 113.05)">
<path d="m3.4688-10.5v10.5h-0.76562v-9.8125h-2.5625v-0.6875z"/>
</g>
</g>
<g fill="#7e6449">
<g transform="translate(178.19 113.05)">
<path d="m6.4531-5.4844c0.71875 0.1875 1.2734 0.50781 1.6719 0.95312 0.39453 0.44922 0.59375 1 0.59375 1.6562 0 0.91797-0.35938 1.6406-1.0781 2.1719-0.71094 0.52344-1.6836 0.78125-2.9219 0.78125-1.2305 0-2.1992-0.25781-2.9062-0.78125-0.69922-0.53125-1.0469-1.2539-1.0469-2.1719 0-0.66406 0.19141-1.2188 0.57812-1.6562 0.38281-0.44531 0.9375-0.76562 1.6562-0.95312-0.60547-0.20703-1.0703-0.50781-1.3906-0.90625-0.3125-0.39453-0.46875-0.88281-0.46875-1.4688 0-0.84375 0.32031-1.5039 0.96875-1.9844 0.65625-0.48828 1.5234-0.73438 2.6094-0.73438 1.0938 0 1.9688 0.24609 2.625 0.73438 0.66406 0.49219 1 1.1523 1 1.9844 0 0.57422-0.16797 1.0625-0.5 1.4688-0.32422 0.39844-0.78906 0.69922-1.3906 0.90625zm-4.5469-2.3594c0 0.625 0.24219 1.125 0.73438 1.5 0.5 0.36719 1.1914 0.54688 2.0781 0.54688 0.89453 0 1.5938-0.17969 2.0938-0.54688 0.50781-0.36328 0.76562-0.85938 0.76562-1.4844 0-0.64453-0.26172-1.1562-0.78125-1.5312-0.51172-0.375-1.2031-0.5625-2.0781-0.5625-0.86719 0-1.5547 0.1875-2.0625 0.5625-0.5 0.36719-0.75 0.87109-0.75 1.5156zm2.8125 7.2656c1.0078 0 1.8008-0.20312 2.375-0.60938 0.57031-0.41406 0.85938-0.97656 0.85938-1.6875 0-0.70703-0.28906-1.2656-0.85938-1.6719-0.57422-0.40625-1.3672-0.60938-2.375-0.60938-1 0-1.7812 0.20312-2.3438 0.60938s-0.84375 0.96484-0.84375 1.6719c0 0.71094 0.27344 1.2734 0.82812 1.6875 0.5625 0.40625 1.3477 0.60938 2.3594 0.60938z"/>
</g>
</g>
<g fill="#7e6449">
<g transform="translate(187.67 113.05)">
<path d="m3.4688-10.5v10.5h-0.76562v-9.8125h-2.5625v-0.6875z"/>
</g>
</g>
<g fill="#7e6449">
<g transform="translate(192.97 113.05)">
<path d="m3.3906-6.1094c1.5312 0 2.6406 0.27344 3.3281 0.8125 0.6875 0.53125 1.0312 1.2891 1.0312 2.2656 0 0.60547-0.13672 1.1406-0.40625 1.6094-0.27344 0.46094-0.68359 0.82422-1.2344 1.0938-0.55469 0.27344-1.2305 0.40625-2.0312 0.40625-0.76172 0-1.4766-0.12891-2.1406-0.39062-0.66797-0.25781-1.1836-0.59766-1.5469-1.0156l0.39062-0.59375c0.33203 0.38672 0.78906 0.69922 1.375 0.9375 0.58203 0.24219 1.2188 0.35938 1.9062 0.35938 0.9375 0 1.6562-0.21094 2.1562-0.64062 0.50781-0.4375 0.76562-1.0156 0.76562-1.7344 0-0.78906-0.28906-1.3906-0.85938-1.7969-0.57422-0.41406-1.543-0.625-2.9062-0.625h-2.125l0.5625-5.0781h5.5625v0.6875h-4.9219l-0.40625 3.7031z"/>
</g>
</g>
<g fill="#7e6449">
<g transform="translate(201.33 113.05)">
<path d="m1.5-1.2188c0.17578 0 0.32031 0.0625 0.4375 0.1875 0.125 0.125 0.1875 0.27734 0.1875 0.45312 0 0.09375-0.011719 0.19922-0.03125 0.3125-0.023438 0.10547-0.054688 0.23047-0.09375 0.375l-0.59375 2.0312h-0.53125l0.48438-2.1094c-0.14844-0.039062-0.26562-0.11328-0.35938-0.21875-0.085938-0.10156-0.125-0.23438-0.125-0.39062 0-0.1875 0.054688-0.33594 0.17188-0.45312 0.125-0.125 0.27344-0.1875 0.45312-0.1875z"/>
</g>
</g>
<g fill="#7e6449">
<g transform="translate(204.33 113.05)"/>
</g>
<g fill="#7e6449">
<g transform="translate(208.19 113.05)">
<path d="m4.5938 0.078125c-0.77344 0-1.5078-0.12891-2.2031-0.39062-0.69922-0.26953-1.2422-0.61328-1.625-1.0312l0.34375-0.57812c0.375 0.39844 0.875 0.71875 1.5 0.96875 0.625 0.24219 1.2812 0.35938 1.9688 0.35938 1 0 1.7539-0.1875 2.2656-0.5625 0.50781-0.38281 0.76562-0.88281 0.76562-1.5 0-0.46875-0.13672-0.84375-0.40625-1.125-0.27344-0.28125-0.60938-0.49219-1.0156-0.64062-0.39844-0.15625-0.93359-0.3125-1.6094-0.46875-0.77344-0.1875-1.3906-0.36719-1.8594-0.54688-0.46094-0.1875-0.85547-0.46875-1.1875-0.84375-0.32422-0.375-0.48438-0.875-0.48438-1.5 0-0.50781 0.13281-0.97656 0.40625-1.4062 0.26953-0.42578 0.67969-0.76562 1.2344-1.0156 0.5625-0.25 1.2539-0.375 2.0781-0.375 0.58203 0 1.1484 0.089844 1.7031 0.26562 0.5625 0.16797 1.0508 0.39844 1.4688 0.6875l-0.28125 0.60938c-0.42969-0.28906-0.89844-0.50781-1.4062-0.65625-0.5-0.15625-0.99609-0.23438-1.4844-0.23438-0.96875 0-1.7031 0.19922-2.2031 0.59375-0.5 0.38672-0.75 0.89062-0.75 1.5156 0 0.46875 0.13281 0.84375 0.40625 1.125 0.26953 0.28125 0.60156 0.49609 1 0.64062 0.40625 0.14844 0.95312 0.30859 1.6406 0.48438 0.76953 0.1875 1.3828 0.375 1.8438 0.5625 0.45703 0.17969 0.84766 0.44922 1.1719 0.8125 0.33203 0.36719 0.5 0.85547 0.5 1.4688 0 0.51172-0.14062 0.98047-0.42188 1.4062-0.27344 0.41797-0.69531 0.75-1.2656 1-0.57422 0.25-1.2734 0.375-2.0938 0.375z"/>
</g>
</g>
<g fill="#7e6449">
<g transform="translate(217.32 113.05)">
<path d="m4.2344-7.8906c0.96875 0 1.7109 0.25 2.2344 0.75 0.51953 0.49219 0.78125 1.2148 0.78125 2.1719v4.9688h-0.71875v-1.3906c-0.25 0.46094-0.62109 0.82031-1.1094 1.0781-0.48047 0.25-1.0547 0.375-1.7188 0.375-0.86719 0-1.5547-0.20312-2.0625-0.60938-0.5-0.41406-0.75-0.95703-0.75-1.625 0-0.65625 0.22656-1.1797 0.6875-1.5781 0.46875-0.40625 1.2109-0.60938 2.2344-0.60938h2.6875v-0.64062c0-0.72656-0.19922-1.2812-0.59375-1.6562-0.39844-0.38281-0.97656-0.57812-1.7344-0.57812-0.52344 0-1.0234 0.09375-1.5 0.28125-0.46875 0.17969-0.87109 0.41797-1.2031 0.71875l-0.375-0.54688c0.39453-0.35156 0.86328-0.625 1.4062-0.8125 0.55078-0.19531 1.1289-0.29688 1.7344-0.29688zm-0.42188 7.3281c0.64453 0 1.1953-0.14453 1.6562-0.4375 0.45703-0.30078 0.80078-0.73828 1.0312-1.3125v-1.4688h-2.6719c-0.77344 0-1.3281 0.14062-1.6719 0.42188s-0.51562 0.66797-0.51562 1.1562c0 0.51172 0.1875 0.91406 0.5625 1.2031 0.38281 0.29297 0.92188 0.4375 1.6094 0.4375z"/>
</g>
</g>
<g fill="#7e6449">
<g transform="translate(226.06 113.05)">
<path d="m5.4219-7.8906c0.97656 0 1.75 0.28906 2.3125 0.85938 0.57031 0.5625 0.85938 1.3828 0.85938 2.4531v4.5781h-0.75v-4.5156c0-0.875-0.22656-1.5391-0.67188-2-0.4375-0.46875-1.0586-0.70312-1.8594-0.70312-0.91797 0-1.6406 0.27734-2.1719 0.82812-0.53125 0.55469-0.79688 1.293-0.79688 2.2188v4.1719h-0.75v-7.8281h0.71875v1.6875c0.26953-0.53906 0.67188-0.96875 1.2031-1.2812s1.1641-0.46875 1.9062-0.46875z"/>
</g>
</g>
<g fill="#7e6449">
<g transform="translate(236.16 113.05)"/>
</g>
<g fill="#7e6449">
<g transform="translate(240.01 113.05)">
<path d="m2.7812 0.078125c-0.57422 0-1.1094-0.12891-1.6094-0.39062-0.49219-0.26953-0.88672-0.64062-1.1875-1.1094l0.46875-0.51562c0.28906 0.42969 0.62891 0.75781 1.0156 0.98438 0.39453 0.23047 0.83203 0.34375 1.3125 0.34375 0.69531 0 1.2188-0.20312 1.5625-0.60938s0.51562-1.0312 0.51562-1.875v-6.7188h-3.875v-0.6875h4.6406v7.4062c0 1.0547-0.24219 1.8438-0.71875 2.375-0.48047 0.53125-1.1875 0.79688-2.125 0.79688z"/>
</g>
</g>
<g fill="#7e6449">
<g transform="translate(247.38 113.05)">
<path d="m4.6562 0.0625c-0.74219 0-1.4141-0.16406-2.0156-0.5-0.59375-0.34375-1.0625-0.81641-1.4062-1.4219-0.33594-0.61328-0.5-1.3008-0.5-2.0625 0-0.75781 0.16406-1.4414 0.5-2.0469 0.34375-0.60156 0.8125-1.0703 1.4062-1.4062 0.60156-0.34375 1.2734-0.51562 2.0156-0.51562 0.73828 0 1.4062 0.17188 2 0.51562 0.59375 0.33594 1.0547 0.80469 1.3906 1.4062 0.34375 0.60547 0.51562 1.2891 0.51562 2.0469 0 0.76172-0.17188 1.4492-0.51562 2.0625-0.33594 0.60547-0.79688 1.0781-1.3906 1.4219-0.59375 0.33594-1.2617 0.5-2 0.5zm0-0.67188c0.59375 0 1.125-0.14062 1.5938-0.42188 0.47656-0.28125 0.85156-0.67188 1.125-1.1719 0.28125-0.5 0.42188-1.0703 0.42188-1.7188 0-0.63281-0.14062-1.2031-0.42188-1.7031-0.27344-0.5-0.64844-0.89062-1.125-1.1719-0.46875-0.28125-1-0.42188-1.5938-0.42188-0.60547 0-1.1484 0.14062-1.625 0.42188-0.46875 0.28125-0.84375 0.67188-1.125 1.1719-0.27344 0.5-0.40625 1.0703-0.40625 1.7031 0 0.64844 0.13281 1.2188 0.40625 1.7188 0.28125 0.5 0.65625 0.89062 1.125 1.1719 0.47656 0.28125 1.0195 0.42188 1.625 0.42188z"/>
</g>
</g>
<g fill="#7e6449">
<g transform="translate(256.67 113.05)">
<path d="m3.5625 0.0625c-0.625 0-1.2266-0.09375-1.7969-0.28125-0.5625-0.19531-1.0078-0.4375-1.3281-0.71875l0.34375-0.60938c0.32031 0.27344 0.73438 0.5 1.2344 0.6875 0.50781 0.17969 1.0352 0.26562 1.5781 0.26562 0.78906 0 1.375-0.12891 1.75-0.39062 0.375-0.25781 0.5625-0.61719 0.5625-1.0781 0-0.33203-0.10547-0.59375-0.3125-0.78125-0.19922-0.19531-0.44922-0.33594-0.75-0.42188-0.30469-0.09375-0.71875-0.19141-1.25-0.29688-0.61719-0.10156-1.1172-0.21875-1.5-0.34375-0.375-0.13281-0.69922-0.34766-0.96875-0.64062-0.27344-0.28906-0.40625-0.69141-0.40625-1.2031 0-0.61328 0.25391-1.125 0.76562-1.5312 0.51953-0.40625 1.2539-0.60938 2.2031-0.60938 0.5 0 0.99219 0.074219 1.4844 0.21875 0.48828 0.13672 0.89062 0.32031 1.2031 0.54688l-0.34375 0.59375c-0.32422-0.22656-0.69531-0.39844-1.1094-0.51562-0.40625-0.125-0.82422-0.1875-1.25-0.1875-0.73047 0-1.2812 0.13672-1.6562 0.40625-0.36719 0.27344-0.54688 0.625-0.54688 1.0625 0 0.35547 0.10156 0.63281 0.3125 0.82812 0.20703 0.1875 0.46094 0.33594 0.76562 0.4375 0.3125 0.09375 0.74219 0.19531 1.2969 0.29688 0.60156 0.11719 1.0938 0.23438 1.4688 0.35938s0.69141 0.32812 0.95312 0.60938c0.25781 0.28125 0.39062 0.66797 0.39062 1.1562 0 0.64844-0.27344 1.168-0.8125 1.5625-0.53125 0.38672-1.293 0.57812-2.2812 0.57812z"/>
</g>
</g>
<g fill="#7e6449">
<g transform="translate(263.84 113.05)">
<path d="m8.2031-3.7344h-6.7344c0.019531 0.61719 0.17578 1.1641 0.46875 1.6406 0.28906 0.46875 0.67969 0.83594 1.1719 1.0938 0.5 0.26172 1.0547 0.39062 1.6719 0.39062 0.50781 0 0.98438-0.09375 1.4219-0.28125s0.80078-0.45703 1.0938-0.8125l0.42188 0.48438c-0.33594 0.41797-0.76172 0.73438-1.2812 0.95312-0.51172 0.21875-1.0703 0.32812-1.6719 0.32812-0.78125 0-1.4805-0.16406-2.0938-0.5-0.60547-0.34375-1.0781-0.81641-1.4219-1.4219-0.34375-0.60156-0.51562-1.2891-0.51562-2.0625 0-0.75781 0.16016-1.4414 0.48438-2.0469 0.32031-0.60156 0.76953-1.0703 1.3438-1.4062 0.57031-0.34375 1.2109-0.51562 1.9219-0.51562 0.70703 0 1.3438 0.16797 1.9062 0.5 0.57031 0.33594 1.0195 0.80469 1.3438 1.4062 0.32031 0.60547 0.48438 1.2891 0.48438 2.0469zm-3.7188-3.5c-0.55469 0-1.0469 0.125-1.4844 0.375-0.4375 0.24219-0.79297 0.58594-1.0625 1.0312-0.26172 0.44922-0.41406 0.95312-0.45312 1.5156h6c-0.03125-0.5625-0.18359-1.0625-0.45312-1.5-0.27344-0.44531-0.625-0.79688-1.0625-1.0469s-0.93359-0.375-1.4844-0.375zm1.2344-3.6406h1.0781l-2.3594 1.7656h-0.8125z"/>
</g>
</g>
<g fill="#7e6449">
<g transform="translate(272.8 113.05)"/>
</g>
<g fill="#7e6449">
<g transform="translate(276.65 113.05)">
<path d="m8.5469-11.125v11.125h-0.73438v-1.8438c-0.3125 0.60547-0.75 1.0742-1.3125 1.4062-0.55469 0.33594-1.1836 0.5-1.8906 0.5-0.73047 0-1.3906-0.16406-1.9844-0.5-0.59375-0.34375-1.0586-0.81641-1.3906-1.4219-0.33594-0.60156-0.5-1.2891-0.5-2.0625 0-0.75781 0.16406-1.4414 0.5-2.0469 0.33203-0.61328 0.79688-1.0859 1.3906-1.4219 0.59375-0.33203 1.2539-0.5 1.9844-0.5 0.69531 0 1.3203 0.16797 1.875 0.5 0.55078 0.32422 0.98828 0.78125 1.3125 1.375v-5.1094zm-3.8906 10.516c0.59375 0 1.125-0.14062 1.5938-0.42188 0.47656-0.28125 0.85156-0.67188 1.125-1.1719 0.28125-0.5 0.42188-1.0703 0.42188-1.7188 0-0.63281-0.14062-1.2031-0.42188-1.7031-0.27344-0.5-0.64844-0.89062-1.125-1.1719-0.46875-0.28125-1-0.42188-1.5938-0.42188-0.60547 0-1.1484 0.14062-1.625 0.42188-0.46875 0.28125-0.84375 0.67188-1.125 1.1719-0.27344 0.5-0.40625 1.0703-0.40625 1.7031 0 0.64844 0.13281 1.2188 0.40625 1.7188 0.28125 0.5 0.65625 0.89062 1.125 1.1719 0.47656 0.28125 1.0195 0.42188 1.625 0.42188z"/>
</g>
</g>
<g fill="#7e6449">
<g transform="translate(286.77 113.05)">
<path d="m8.2031-3.7344h-6.7344c0.019531 0.61719 0.17578 1.1641 0.46875 1.6406 0.28906 0.46875 0.67969 0.83594 1.1719 1.0938 0.5 0.26172 1.0547 0.39062 1.6719 0.39062 0.50781 0 0.98438-0.09375 1.4219-0.28125s0.80078-0.45703 1.0938-0.8125l0.42188 0.48438c-0.33594 0.41797-0.76172 0.73438-1.2812 0.95312-0.51172 0.21875-1.0703 0.32812-1.6719 0.32812-0.78125 0-1.4805-0.16406-2.0938-0.5-0.60547-0.34375-1.0781-0.81641-1.4219-1.4219-0.34375-0.60156-0.51562-1.2891-0.51562-2.0625 0-0.75781 0.16016-1.4414 0.48438-2.0469 0.32031-0.60156 0.76953-1.0703 1.3438-1.4062 0.57031-0.34375 1.2109-0.51562 1.9219-0.51562 0.70703 0 1.3438 0.16797 1.9062 0.5 0.57031 0.33594 1.0195 0.80469 1.3438 1.4062 0.32031 0.60547 0.48438 1.2891 0.48438 2.0469zm-3.7188-3.5c-0.55469 0-1.0469 0.125-1.4844 0.375-0.4375 0.24219-0.79297 0.58594-1.0625 1.0312-0.26172 0.44922-0.41406 0.95312-0.45312 1.5156h6c-0.03125-0.5625-0.18359-1.0625-0.45312-1.5-0.27344-0.44531-0.625-0.79688-1.0625-1.0469s-0.93359-0.375-1.4844-0.375z"/>
</g>
</g>
<g fill="#7e6449">
<g transform="translate(295.73 113.05)"/>
</g>
<g fill="#7e6449">
<g transform="translate(299.58 113.05)">
<path d="m11.766 0-0.015625-8.9844-4.4062 7.5938h-0.375l-4.3906-7.5625v8.9531h-0.75v-10.5h0.64062l4.7031 8.1094 4.6875-8.1094h0.64062l0.015625 10.5z"/>
</g>
</g>
<g fill="#7e6449">
<g transform="translate(313.92 113.05)">
<path d="m4.2344-7.8906c0.96875 0 1.7109 0.25 2.2344 0.75 0.51953 0.49219 0.78125 1.2148 0.78125 2.1719v4.9688h-0.71875v-1.3906c-0.25 0.46094-0.62109 0.82031-1.1094 1.0781-0.48047 0.25-1.0547 0.375-1.7188 0.375-0.86719 0-1.5547-0.20312-2.0625-0.60938-0.5-0.41406-0.75-0.95703-0.75-1.625 0-0.65625 0.22656-1.1797 0.6875-1.5781 0.46875-0.40625 1.2109-0.60938 2.2344-0.60938h2.6875v-0.64062c0-0.72656-0.19922-1.2812-0.59375-1.6562-0.39844-0.38281-0.97656-0.57812-1.7344-0.57812-0.52344 0-1.0234 0.09375-1.5 0.28125-0.46875 0.17969-0.87109 0.41797-1.2031 0.71875l-0.375-0.54688c0.39453-0.35156 0.86328-0.625 1.4062-0.8125 0.55078-0.19531 1.1289-0.29688 1.7344-0.29688zm-0.42188 7.3281c0.64453 0 1.1953-0.14453 1.6562-0.4375 0.45703-0.30078 0.80078-0.73828 1.0312-1.3125v-1.4688h-2.6719c-0.77344 0-1.3281 0.14062-1.6719 0.42188s-0.51562 0.66797-0.51562 1.1562c0 0.51172 0.1875 0.91406 0.5625 1.2031 0.38281 0.29297 0.92188 0.4375 1.6094 0.4375z"/>
</g>
</g>
<g fill="#7e6449">
<g transform="translate(322.66 113.05)">
<path d="m1.5938-7.8281h0.75v7.8281h-0.75zm0.375-1.9062c-0.16797 0-0.3125-0.054687-0.4375-0.17188-0.11719-0.11328-0.17188-0.25391-0.17188-0.42188 0-0.17578 0.054687-0.32031 0.17188-0.4375 0.125-0.125 0.26953-0.1875 0.4375-0.1875 0.16406 0 0.30469 0.058594 0.42188 0.17188 0.125 0.11719 0.1875 0.26172 0.1875 0.4375 0 0.16797-0.0625 0.3125-0.1875 0.4375-0.11719 0.11719-0.25781 0.17188-0.42188 0.17188z"/>
</g>
</g>
<g fill="#7e6449">
<g transform="translate(326.58 113.05)">
<path d="m5.5156-7.8906c0.72656 0 1.3906 0.17188 1.9844 0.51562 0.59375 0.33594 1.0547 0.80469 1.3906 1.4062 0.33203 0.60547 0.5 1.2891 0.5 2.0469 0 0.77344-0.16797 1.4648-0.5 2.0781-0.33594 0.60547-0.79688 1.0742-1.3906 1.4062-0.59375 0.33594-1.2578 0.5-1.9844 0.5-0.6875 0-1.3125-0.16016-1.875-0.48438-0.55469-0.33203-0.98438-0.78516-1.2969-1.3594v4.6875h-0.75v-10.734h0.71875v1.8438c0.3125-0.60156 0.75-1.0703 1.3125-1.4062 0.5625-0.33203 1.1914-0.5 1.8906-0.5zm-0.046875 7.2812c0.60156 0 1.1445-0.14062 1.625-0.42188 0.47656-0.28125 0.85156-0.67188 1.125-1.1719 0.28125-0.5 0.42188-1.0703 0.42188-1.7188 0-0.63281-0.14062-1.2031-0.42188-1.7031-0.27344-0.5-0.64844-0.89062-1.125-1.1719-0.48047-0.28125-1.0234-0.42188-1.625-0.42188-0.59375 0-1.1328 0.14062-1.6094 0.42188-0.46875 0.28125-0.84375 0.67188-1.125 1.1719-0.27344 0.5-0.40625 1.0703-0.40625 1.7031 0 0.64844 0.13281 1.2188 0.40625 1.7188 0.28125 0.5 0.65625 0.89062 1.125 1.1719 0.47656 0.28125 1.0156 0.42188 1.6094 0.42188z"/>
</g>
</g>
<g fill="#7e6449">
<g transform="translate(336.7 113.05)">
<path d="m4.6562 0.0625c-0.74219 0-1.4141-0.16406-2.0156-0.5-0.59375-0.34375-1.0625-0.81641-1.4062-1.4219-0.33594-0.61328-0.5-1.3008-0.5-2.0625 0-0.75781 0.16406-1.4414 0.5-2.0469 0.34375-0.60156 0.8125-1.0703 1.4062-1.4062 0.60156-0.34375 1.2734-0.51562 2.0156-0.51562 0.73828 0 1.4062 0.17188 2 0.51562 0.59375 0.33594 1.0547 0.80469 1.3906 1.4062 0.34375 0.60547 0.51562 1.2891 0.51562 2.0469 0 0.76172-0.17188 1.4492-0.51562 2.0625-0.33594 0.60547-0.79688 1.0781-1.3906 1.4219-0.59375 0.33594-1.2617 0.5-2 0.5zm0-0.67188c0.59375 0 1.125-0.14062 1.5938-0.42188 0.47656-0.28125 0.85156-0.67188 1.125-1.1719 0.28125-0.5 0.42188-1.0703 0.42188-1.7188 0-0.63281-0.14062-1.2031-0.42188-1.7031-0.27344-0.5-0.64844-0.89062-1.125-1.1719-0.46875-0.28125-1-0.42188-1.5938-0.42188-0.60547 0-1.1484 0.14062-1.625 0.42188-0.46875 0.28125-0.84375 0.67188-1.125 1.1719-0.27344 0.5-0.40625 1.0703-0.40625 1.7031 0 0.64844 0.13281 1.2188 0.40625 1.7188 0.28125 0.5 0.65625 0.89062 1.125 1.1719 0.47656 0.28125 1.0195 0.42188 1.625 0.42188z"/>
</g>
</g>
<g fill="#7e6449">
<g transform="translate(346 113.05)">
<path d="m1.5-1.2188c0.17578 0 0.32031 0.0625 0.4375 0.1875 0.125 0.125 0.1875 0.27734 0.1875 0.45312 0 0.09375-0.011719 0.19922-0.03125 0.3125-0.023438 0.10547-0.054688 0.23047-0.09375 0.375l-0.59375 2.0312h-0.53125l0.48438-2.1094c-0.14844-0.039062-0.26562-0.11328-0.35938-0.21875-0.085938-0.10156-0.125-0.23438-0.125-0.39062 0-0.1875 0.054688-0.33594 0.17188-0.45312 0.125-0.125 0.27344-0.1875 0.45312-0.1875z"/>
</g>
</g>
<g fill="#7e6449">
<g transform="translate(152.94 133.89)">
<path d="m4.5938 0.078125c-0.77344 0-1.5078-0.12891-2.2031-0.39062-0.69922-0.26953-1.2422-0.61328-1.625-1.0312l0.34375-0.57812c0.375 0.39844 0.875 0.71875 1.5 0.96875 0.625 0.24219 1.2812 0.35938 1.9688 0.35938 1 0 1.7539-0.1875 2.2656-0.5625 0.50781-0.38281 0.76562-0.88281 0.76562-1.5 0-0.46875-0.13672-0.84375-0.40625-1.125-0.27344-0.28125-0.60938-0.49219-1.0156-0.64062-0.39844-0.15625-0.93359-0.3125-1.6094-0.46875-0.77344-0.1875-1.3906-0.36719-1.8594-0.54688-0.46094-0.1875-0.85547-0.46875-1.1875-0.84375-0.32422-0.375-0.48438-0.875-0.48438-1.5 0-0.50781 0.13281-0.97656 0.40625-1.4062 0.26953-0.42578 0.67969-0.76562 1.2344-1.0156 0.5625-0.25 1.2539-0.375 2.0781-0.375 0.58203 0 1.1484 0.089844 1.7031 0.26562 0.5625 0.16797 1.0508 0.39844 1.4688 0.6875l-0.28125 0.60938c-0.42969-0.28906-0.89844-0.50781-1.4062-0.65625-0.5-0.15625-0.99609-0.23438-1.4844-0.23438-0.96875 0-1.7031 0.19922-2.2031 0.59375-0.5 0.38672-0.75 0.89062-0.75 1.5156 0 0.46875 0.13281 0.84375 0.40625 1.125 0.26953 0.28125 0.60156 0.49609 1 0.64062 0.40625 0.14844 0.95312 0.30859 1.6406 0.48438 0.76953 0.1875 1.3828 0.375 1.8438 0.5625 0.45703 0.17969 0.84766 0.44922 1.1719 0.8125 0.33203 0.36719 0.5 0.85547 0.5 1.4688 0 0.51172-0.14062 0.98047-0.42188 1.4062-0.27344 0.41797-0.69531 0.75-1.2656 1-0.57422 0.25-1.2734 0.375-2.0938 0.375z"/>
</g>
</g>
<g fill="#7e6449">
<g transform="translate(162.07 133.89)">
<path d="m4.2344-7.8906c0.96875 0 1.7109 0.25 2.2344 0.75 0.51953 0.49219 0.78125 1.2148 0.78125 2.1719v4.9688h-0.71875v-1.3906c-0.25 0.46094-0.62109 0.82031-1.1094 1.0781-0.48047 0.25-1.0547 0.375-1.7188 0.375-0.86719 0-1.5547-0.20312-2.0625-0.60938-0.5-0.41406-0.75-0.95703-0.75-1.625 0-0.65625 0.22656-1.1797 0.6875-1.5781 0.46875-0.40625 1.2109-0.60938 2.2344-0.60938h2.6875v-0.64062c0-0.72656-0.19922-1.2812-0.59375-1.6562-0.39844-0.38281-0.97656-0.57812-1.7344-0.57812-0.52344 0-1.0234 0.09375-1.5 0.28125-0.46875 0.17969-0.87109 0.41797-1.2031 0.71875l-0.375-0.54688c0.39453-0.35156 0.86328-0.625 1.4062-0.8125 0.55078-0.19531 1.1289-0.29688 1.7344-0.29688zm-0.42188 7.3281c0.64453 0 1.1953-0.14453 1.6562-0.4375 0.45703-0.30078 0.80078-0.73828 1.0312-1.3125v-1.4688h-2.6719c-0.77344 0-1.3281 0.14062-1.6719 0.42188s-0.51562 0.66797-0.51562 1.1562c0 0.51172 0.1875 0.91406 0.5625 1.2031 0.38281 0.29297 0.92188 0.4375 1.6094 0.4375z"/>
</g>
</g>
<g fill="#7e6449">
<g transform="translate(170.82 133.89)">
<path d="m5.4219-7.8906c0.97656 0 1.75 0.28906 2.3125 0.85938 0.57031 0.5625 0.85938 1.3828 0.85938 2.4531v4.5781h-0.75v-4.5156c0-0.875-0.22656-1.5391-0.67188-2-0.4375-0.46875-1.0586-0.70312-1.8594-0.70312-0.91797 0-1.6406 0.27734-2.1719 0.82812-0.53125 0.55469-0.79688 1.293-0.79688 2.2188v4.1719h-0.75v-7.8281h0.71875v1.6875c0.26953-0.53906 0.67188-0.96875 1.2031-1.2812s1.1641-0.46875 1.9062-0.46875z"/>
</g>
</g>
<g fill="#7e6449">
<g transform="translate(180.91 133.89)">
<path d="m5.4688-0.5c-0.1875 0.1875-0.42969 0.32812-0.71875 0.42188-0.28125 0.09375-0.57422 0.14062-0.875 0.14062-0.6875 0-1.2188-0.1875-1.5938-0.5625-0.36719-0.375-0.54688-0.89453-0.54688-1.5625v-5.125h-1.4375v-0.64062h1.4375v-1.7188h0.75v1.7188h2.5v0.64062h-2.5v5.0469c0 0.51172 0.11719 0.90234 0.35938 1.1719 0.25 0.26172 0.61328 0.39062 1.0938 0.39062 0.5 0 0.90625-0.14453 1.2188-0.4375z"/>
</g>
</g>
<g fill="#7e6449">
<g transform="translate(186.88 133.89)">
<path d="m1.5938-7.8281h0.75v7.8281h-0.75zm0.375-1.9062c-0.16797 0-0.3125-0.054687-0.4375-0.17188-0.11719-0.11328-0.17188-0.25391-0.17188-0.42188 0-0.17578 0.054687-0.32031 0.17188-0.4375 0.125-0.125 0.26953-0.1875 0.4375-0.1875 0.16406 0 0.30469 0.058594 0.42188 0.17188 0.125 0.11719 0.1875 0.26172 0.1875 0.4375 0 0.16797-0.0625 0.3125-0.1875 0.4375-0.11719 0.11719-0.25781 0.17188-0.42188 0.17188z"/>
</g>
</g>
<g fill="#7e6449">
<g transform="translate(190.79 133.89)">
<path d="m4.2344-7.8906c0.96875 0 1.7109 0.25 2.2344 0.75 0.51953 0.49219 0.78125 1.2148 0.78125 2.1719v4.9688h-0.71875v-1.3906c-0.25 0.46094-0.62109 0.82031-1.1094 1.0781-0.48047 0.25-1.0547 0.375-1.7188 0.375-0.86719 0-1.5547-0.20312-2.0625-0.60938-0.5-0.41406-0.75-0.95703-0.75-1.625 0-0.65625 0.22656-1.1797 0.6875-1.5781 0.46875-0.40625 1.2109-0.60938 2.2344-0.60938h2.6875v-0.64062c0-0.72656-0.19922-1.2812-0.59375-1.6562-0.39844-0.38281-0.97656-0.57812-1.7344-0.57812-0.52344 0-1.0234 0.09375-1.5 0.28125-0.46875 0.17969-0.87109 0.41797-1.2031 0.71875l-0.375-0.54688c0.39453-0.35156 0.86328-0.625 1.4062-0.8125 0.55078-0.19531 1.1289-0.29688 1.7344-0.29688zm-0.42188 7.3281c0.64453 0 1.1953-0.14453 1.6562-0.4375 0.45703-0.30078 0.80078-0.73828 1.0312-1.3125v-1.4688h-2.6719c-0.77344 0-1.3281 0.14062-1.6719 0.42188s-0.51562 0.66797-0.51562 1.1562c0 0.51172 0.1875 0.91406 0.5625 1.2031 0.38281 0.29297 0.92188 0.4375 1.6094 0.4375z"/>
</g>
</g>
<g fill="#7e6449">
<g transform="translate(199.54 133.89)">
<path d="m8.6406-7.8281v6.9844c0 1.3008-0.32031 2.2578-0.95312 2.875-0.625 0.625-1.5742 0.9375-2.8438 0.9375-0.71875 0-1.4023-0.10938-2.0469-0.32812-0.63672-0.21875-1.1484-0.52734-1.5312-0.92188l0.40625-0.5625c0.38281 0.35156 0.85156 0.62891 1.4062 0.82812 0.55078 0.20703 1.1328 0.3125 1.75 0.3125 1.0391 0 1.8125-0.25 2.3125-0.75 0.5-0.49219 0.75-1.2578 0.75-2.2969v-1.3125c-0.32422 0.5625-0.77344 1-1.3438 1.3125-0.5625 0.3125-1.1992 0.46875-1.9062 0.46875-0.73047 0-1.3984-0.16016-2-0.48438-0.59375-0.33203-1.0625-0.78516-1.4062-1.3594-0.33594-0.58203-0.5-1.2383-0.5-1.9688 0-0.72656 0.16406-1.3828 0.5-1.9688 0.34375-0.58203 0.8125-1.0312 1.4062-1.3438 0.60156-0.32031 1.2695-0.48438 2-0.48438 0.71875 0 1.3633 0.16406 1.9375 0.48438 0.58203 0.3125 1.0312 0.76172 1.3438 1.3438v-1.7656zm-3.9531 6.875c0.61328 0 1.1641-0.12891 1.6562-0.39062 0.48828-0.26953 0.86719-0.64453 1.1406-1.125 0.28125-0.47656 0.42188-1.0195 0.42188-1.625 0-0.61328-0.14062-1.1562-0.42188-1.625-0.27344-0.46875-0.65234-0.83203-1.1406-1.0938-0.49219-0.26953-1.043-0.40625-1.6562-0.40625-0.60547 0-1.1523 0.13672-1.6406 0.40625-0.48047 0.26172-0.85938 0.625-1.1406 1.0938-0.27344 0.46875-0.40625 1.0117-0.40625 1.625 0 0.60547 0.13281 1.1484 0.40625 1.625 0.28125 0.48047 0.66016 0.85547 1.1406 1.125 0.48828 0.26172 1.0352 0.39062 1.6406 0.39062z"/>
</g>
</g>
<g fill="#7e6449">
<g transform="translate(209.76 133.89)">
<path d="m4.6562 0.0625c-0.74219 0-1.4141-0.16406-2.0156-0.5-0.59375-0.34375-1.0625-0.81641-1.4062-1.4219-0.33594-0.61328-0.5-1.3008-0.5-2.0625 0-0.75781 0.16406-1.4414 0.5-2.0469 0.34375-0.60156 0.8125-1.0703 1.4062-1.4062 0.60156-0.34375 1.2734-0.51562 2.0156-0.51562 0.73828 0 1.4062 0.17188 2 0.51562 0.59375 0.33594 1.0547 0.80469 1.3906 1.4062 0.34375 0.60547 0.51562 1.2891 0.51562 2.0469 0 0.76172-0.17188 1.4492-0.51562 2.0625-0.33594 0.60547-0.79688 1.0781-1.3906 1.4219-0.59375 0.33594-1.2617 0.5-2 0.5zm0-0.67188c0.59375 0 1.125-0.14062 1.5938-0.42188 0.47656-0.28125 0.85156-0.67188 1.125-1.1719 0.28125-0.5 0.42188-1.0703 0.42188-1.7188 0-0.63281-0.14062-1.2031-0.42188-1.7031-0.27344-0.5-0.64844-0.89062-1.125-1.1719-0.46875-0.28125-1-0.42188-1.5938-0.42188-0.60547 0-1.1484 0.14062-1.625 0.42188-0.46875 0.28125-0.84375 0.67188-1.125 1.1719-0.27344 0.5-0.40625 1.0703-0.40625 1.7031 0 0.64844 0.13281 1.2188 0.40625 1.7188 0.28125 0.5 0.65625 0.89062 1.125 1.1719 0.47656 0.28125 1.0195 0.42188 1.625 0.42188z"/>
</g>
</g>
<g fill="#7e6449">
<g transform="translate(219.06 133.89)">
<path d="m1.5 0.0625c-0.16797 0-0.3125-0.0625-0.4375-0.1875s-0.1875-0.27344-0.1875-0.45312c0-0.1875 0.0625-0.33594 0.1875-0.45312 0.125-0.125 0.26953-0.1875 0.4375-0.1875 0.16406 0 0.3125 0.0625 0.4375 0.1875 0.125 0.11719 0.1875 0.26562 0.1875 0.45312 0 0.17969-0.0625 0.32812-0.1875 0.45312s-0.27344 0.1875-0.4375 0.1875z"/>
</g>
</g>
<g fill="#7e6449">
<g transform="translate(187.5 145.63)"/>
</g>
<g fill="#7e6449">
<g transform="translate(187.5 154.22)"/>
</g>
<g fill="#7e6449">
<g transform="translate(187.5 162.8)"/>
</g>
<g fill="#7e6449">
<g transform="translate(187.5 175.94)"/>
</g>
<g fill="#7e6449">
<g transform="translate(187.5 186.28)"/>
</g>
<g fill="#7e6449">
<g transform="translate(187.5 194.86)"/>
</g>
</svg>
